<svg xmlns="http://www.w3.org/2000/svg" width="106" height="72">
  <defs>
    <linearGradient id="a" x1="33.219%" x2="75.118%" y1="78.172%" y2="50%">
      <stop offset="0%" stop-color="#FF0065"/>
      <stop offset="100%" stop-color="#DD61FC"/>
    </linearGradient>
    <linearGradient id="b" x1="50%" x2="92.773%" y1="45.2%" y2="50%">
      <stop offset="0%" stop-color="#B10151"/>
      <stop offset="100%" stop-color="#750126"/>
    </linearGradient>
    <linearGradient id="c" x1="33.694%" x2="66.678%" y1="80.184%" y2="54.581%">
      <stop offset="0%" stop-color="#80F3FD"/>
      <stop offset="100%" stop-color="#00D0FF"/>
    </linearGradient>
    <linearGradient id="d" x1="32.332%" x2="76.803%" y1="50%" y2="61.076%">
      <stop offset="0%" stop-color="#0080BB"/>
      <stop offset="100%" stop-color="#004985"/>
    </linearGradient>
  </defs>
  <g fill="none" fill-rule="evenodd">
    <path fill="url(#a)" d="M12.931 1.063c6.722-2.651 11.052-.715 21.903 10.065l.741.74c12.068 12.1 14.59 15.841 15.137 22.459l.037.493c.475 7.33-2.335 11.928-14.505 23.928l-1.905 1.868C23.364 71.32 20.638 72.842 13.362 71.01c-3.066-.772-5.613-2.617-8.568-5.644l-.357-.368-4.394-5.046 23.315-23.613L10.515 23.16C4.89 17.426.299 12.974.017 13L0 13.004v-.064l.014.015 5.283-5.854c2.823-2.778 6.26-5.496 7.634-6.038Z" transform="translate(55)"/>
    <path fill="url(#b)" d="M12.931 1.063c6.722-2.651 11.052-.715 21.903 10.065l.741.74c3.52 5.196-.553 13.353-12.217 24.47L10.515 23.162C4.89 17.426.299 12.974.017 13L0 13.004v-.064l.014.015 5.283-5.854c2.823-2.778 6.26-5.496 7.634-6.038Z" transform="translate(55)"/>
    <path fill="url(#c)" d="M12.931 1.063c6.722-2.651 11.052-.715 21.903 10.065l.741.74c12.068 12.1 14.59 15.841 15.137 22.459l.037.493c.475 7.33-2.335 11.928-14.505 23.928l-1.905 1.868C23.364 71.32 20.638 72.842 13.362 71.01c-3.066-.772-5.613-2.617-8.568-5.644l-.357-.368-4.394-5.046 23.315-23.613L10.515 23.16C4.89 17.426.299 12.974.017 13L0 13.004v-.064l.014.015 5.283-5.854c2.823-2.778 6.26-5.496 7.634-6.038Z" transform="rotate(180 25.5 36)"/>
    <path fill="url(#d)" d="M12.931 1.063c6.722-2.651 11.052-.715 21.903 10.065l.741.74c3.52 5.196-.553 13.353-12.217 24.47L10.515 23.162C4.89 17.426.299 12.974.017 13L0 13.004v-.064l.014.015 5.283-5.854c2.823-2.778 6.26-5.496 7.634-6.038Z" transform="rotate(180 25.5 36)"/>
  </g>
</svg>
