<svg xmlns="http://www.w3.org/2000/svg" width="324" height="343" fill="none" viewBox="0 0 324 343">
  <path fill="#EA4325" d="m170.333 300.591 39.095-.013-.104 7.187-2.904.001-.077 5.355-3.129.001-.086 5.918-1.832.001-.164 11.358-4.172.001-.109 7.553-3.439.001-.066 4.566-8.146.003.066-4.566-4.454.001.11-7.553-3.157.001.165-11.358-1.832.001.085-5.919-3.128.001.077-5.355-2.903.001.104-7.186Z"/>
  <path fill="#FFE500" d="m178.909 300.602 21.943-.006-.104 7.182-1.633.001-.078 5.351-1.774.001-.086 5.915h-1.014l-.164 11.351-2.338.001-.109 7.548-1.944.001-.066 4.563-4.563.001.066-4.563-2.479.001.109-7.549-1.775.001.164-11.351h-1.042l.086-5.915-1.747.001.078-5.352h-1.634l.104-7.182Z"/>
  <path fill="#FFF8AC" d="m185.614 300.612 8.528-.002-.103 7.178h-.647l-.077 5.347h-.676l-.084 5.911h-.394l-.163 11.342-.901.001-.108 7.543h-.76l-.066 4.559-1.773.001.066-4.56h-.957l.108-7.543h-.704l.163-11.342h-.394l.085-5.911-.675.001.076-5.348h-.647l.103-7.177Z"/>
  <path fill="#EA4325" d="m204.3 316.433 3.439-.002-.059 4.087-3.439.001.059-4.086ZM199.387 335.978h1.747l-.03 2.085-1.747.001.03-2.086Z"/>
  <path fill="#FFE500" d="m203.262 323.718 1.832-.001-.032 2.17h-1.832l.032-2.169Z"/>
  <path fill="#EA4325" d="m174.971 320.487-3.439.001.059-4.086 3.439-.001-.059 4.086ZM179.298 338.092l-1.747.001.03-2.085 1.747-.001-.03 2.085Z"/>
  <path fill="#FFE500" d="M175.801 325.886h-1.832l.031-2.169 1.832-.001-.031 2.17Z"/>
  <path fill="#EA4325" d="m170.302 301.581 39.094-.013.105-7.187-2.904.001.078-5.326-3.129.001.086-5.947H201.8l.164-11.329-4.171.001.109-7.581-3.438.001.066-4.566-8.146.003-.066 4.565-4.454.002-.11 7.581-3.156.001-.165 11.33h-1.832l-.086 5.947-3.129.001-.077 5.327-2.903.001-.104 7.187Z"/>
  <path fill="#FFE500" d="m178.881 301.564 21.944-.007.104-7.182-1.634.001.077-5.324-1.775.001.086-5.944-1.014.001.164-11.323-2.338.001.109-7.577h-1.943l.066-4.563-4.564.002-.066 4.563h-2.478l-.11 7.577-1.775.001-.163 11.323h-1.043l-.086 5.943h-1.746l-.077 5.324h-1.634l-.104 7.183Z"/>
  <path fill="#FFF8AC" d="m185.591 301.542 8.529-.001.103-7.177h-.648l.077-5.32-.676.001.085-5.939h-.394l.163-11.314h-.901l.109-7.571h-.76l.065-4.56-1.773.001-.065 4.559h-.957l-.109 7.571-.704.001-.162 11.314h-.394l-.085 5.939h-.676l-.076 5.319h-.648l-.103 7.177Z"/>
  <path fill="#EA4325" d="m204.794 281.671 3.438-.001-.059 4.086-3.439.001.06-4.086ZM200.407 264.095l1.747-.001-.03 2.085-1.748.001.031-2.085Z"/>
  <path fill="#FFE500" d="m203.936 276.272 1.832-.001-.032 2.17h-1.832l.032-2.169Z"/>
  <path fill="#EA4325" d="m175.463 285.727-3.439.001.059-4.086 3.439-.001-.059 4.086ZM180.319 266.179l-1.748.001.031-2.085 1.747-.001-.03 2.085Z"/>
  <path fill="#FFE500" d="M176.472 278.47h-1.832l.031-2.17h1.832l-.031 2.17Z"/>
  <path fill="#EA4325" d="m112.253 300.588 39.122-.013-.104 7.187-2.903.001-.077 5.355-3.157.001-.086 5.918-1.832.001-.165 11.358-4.143.001-.11 7.553-3.467.001-.066 4.566-8.118.003.067-4.566-4.454.001.11-7.553-3.185.001.164-11.358-1.832.001.086-5.919-3.129.001.078-5.355-2.903.001.104-7.186Z"/>
  <path fill="#FFE500" d="m120.857 300.599 21.915-.006-.104 7.182h-1.634l-.077 5.352-1.747.001-.085 5.914-1.042.001-.165 11.351h-2.309l-.11 7.549-1.943.001-.066 4.563-4.564.001.066-4.563-2.507.001.11-7.549-1.775.001.164-11.351h-1.014l.086-5.915h-1.775l.077-5.351h-1.605l.104-7.182Z"/>
  <path fill="#FFF8AC" d="m127.56 300.616 8.5-.001-.103 7.177h-.62l-.076 5.347-.704.001-.085 5.91h-.394l-.163 11.343h-.9l-.109 7.543h-.76l-.065 4.559-1.773.001.065-4.56h-.957l.109-7.543-.704.001.163-11.343h-.394l.084-5.91h-.675l.077-5.348h-.619l.103-7.177Z"/>
  <path fill="#EA4325" d="m146.218 316.426 3.439-.001-.059 4.086-3.439.002.059-4.087ZM141.333 335.972h1.747l-.03 2.085-1.747.001.03-2.086Z"/>
  <path fill="#FFE500" d="m145.179 323.712 1.832-.001-.031 2.17h-1.832l.031-2.169Z"/>
  <path fill="#EA4325" d="m116.883 320.484-3.438.001.059-4.086 3.438-.001-.059 4.086ZM121.243 338.092h-1.748l.031-2.085 1.747-.001-.03 2.086Z"/>
  <path fill="#FFE500" d="m117.713 325.884-1.832.001.032-2.17 1.832-.001-.032 2.17Z"/>
  <path fill="#EA4325" d="m112.224 301.576 39.123-.013.104-7.187-2.903.001.077-5.326-3.157.001.087-5.947-1.833.001.165-11.33-4.144.001.11-7.581-3.467.001.066-4.566-8.117.003-.067 4.565-4.453.002-.11 7.581-3.185.001-.164 11.33-1.832.001-.086 5.946-3.129.001-.077 5.327-2.904.001-.104 7.187Z"/>
  <path fill="#FFE500" d="m120.83 301.561 21.915-.007.104-7.182h-1.633l.077-5.323h-1.747l.086-5.943h-1.042l.163-11.322h-2.309l.109-7.576h-1.943l.066-4.563-4.564.002-.066 4.562-2.507.001-.109 7.577h-1.775l-.164 11.323-1.014.001-.086 5.943h-1.774l-.077 5.324h-1.606l-.104 7.183Z"/>
  <path fill="#FFF8AC" d="m127.535 301.544 8.5-.001.103-7.177h-.619l.076-5.319h-.703l.085-5.939h-.394l.162-11.314h-.9l.108-7.571h-.76l.066-4.559h-1.773l-.066 4.559-.957.001-.109 7.571h-.703l-.163 11.314h-.394l-.085 5.939h-.675l-.077 5.319h-.619l-.103 7.177Z"/>
  <path fill="#EA4325" d="m146.709 281.661 3.438-.002-.059 4.087-3.438.001.059-4.086ZM142.352 264.082h1.748l-.03 2.085-1.748.001.03-2.086Z"/>
  <path fill="#FFE500" d="M145.85 276.266h1.832l-.031 2.17h-1.832l.031-2.17Z"/>
  <path fill="#EA4325" d="m117.375 285.721-3.438.001.059-4.086 3.439-.001-.06 4.086ZM122.261 266.174l-1.747.001.03-2.086h1.747l-.03 2.085Z"/>
  <path fill="#FFE500" d="M118.387 278.466h-1.832l.031-2.17h1.832l-.031 2.17ZM270.529 65.441l22.242-.005-1.143 79.414-22.242.005 1.143-79.414Z"/>
  <path fill="#00639F" d="m270.092 95.766 22.251-.006-.709 49.086-22.251.006.709-49.086Z"/>
  <path fill="#FFE500" d="m34.611 65.44 22.242-.006-1.143 79.414-22.241.005 1.142-79.414Z"/>
  <path fill="#00639F" d="m34.18 95.765 22.25-.006-.708 49.086-22.251.006.709-49.086Z"/>
  <path fill="#3ABDAA" d="m3.49 131.028 318.525-.029-.368 25.841-318.525.029.369-25.841Z"/>
  <path fill="#332A74" d="m202.937 224.857-.531 36.651-22.482.007.53-36.651 22.483-.007Z"/>
  <path fill="#2E498F" d="m220.611 190.871-.39 26.967-56.872.016.389-26.967 56.873-.016Z"/>
  <path fill="#2E498F" d="m209.984 210.125-.248 17.15-36.194.01.247-17.15 36.195-.01Z"/>
  <path fill="#332A74" d="m142.427 224.862-.531 36.65-22.482.007.53-36.65 22.483-.007Z"/>
  <path fill="#2E498F" d="m160.1 190.871-.39 26.967-56.872.016.389-26.967 56.873-.016Z"/>
  <path fill="#2E498F" d="m149.474 210.124-.248 17.151-36.194.01.247-17.15 36.195-.011Z"/>
  <path fill="#B3B2FF" d="m104.137 52.61 119.511-.038-2.296 158.494-119.511.038 2.296-158.495Z"/>
  <path fill="#B3B2FF" d="m104.081 52.65 61.7-.016-2.286 158.392-61.7.016 2.286-158.392Z" style="mix-blend-mode:multiply"/>
  <path fill="#B3B2FF" d="m125.653 24.293 77.267-.022-2.152 148.829-77.267.023 2.152-148.83Z"/>
  <path fill="#B3B2FF" d="M144.932.108 184.29.099l-2.025 140.728-39.358.008L144.932.108Z"/>
  <path fill="#171717" d="m132.345 63.546 8.515-.003.171-11.814 21.233-.006h.592l21.233-.007-.171 11.813 11.138-.003-.335 23.148-11.138.003-.171 11.786-21.233.007h-.592l-21.233.007.171-11.786-8.516.003.336-23.148Z"/>
  <path fill="#171717" d="m174.004 105.55-21.811.007.437-30.175 21.811-.007-.437 30.175ZM174.435 74.808l-21.81.007.437-30.175 21.81-.007-.437 30.175Z"/>
  <path fill="#fff" d="m152.161 62.095 4.061-.002.081-5.61 10.067-.004h.282l10.095-.003-.082 5.61h5.273l-.159 10.967-5.273.002-.081 5.61-10.095.004h-.282l-10.066.003.081-5.61h-4.06l.158-10.967Z"/>
  <path fill="#76CBC8" d="m286.207 165.739-13.628.003.59-40.909 13.628-.003-.59 40.909Z"/>
  <path fill="#3ABDAA" d="m275.467 169.736-16.275.004.704-48.849 16.275-.004-.704 48.849Z"/>
  <path fill="#00639F" d="m260.899 117.559-.8 55.449-23.883.007.801-55.45 23.882-.006Z"/>
  <path fill="#76CBC8" d="m252.226 189.061-13.395.002 1.253-87.49 13.395-.002-1.253 87.49Z"/>
  <path fill="#2E498F" d="m241.589 197.56-16.012.002 1.496-104.515 16.013-.002-1.497 104.515Z"/>
  <path fill="#B3B2FF" d="m228.09 85.975-1.702 118.658-23.474.004 1.702-118.657 23.474-.005Z"/>
  <path fill="#76CBC8" d="m38.896 124.862 13.628-.004-.59 40.91-13.627.003.59-40.909Z"/>
  <path fill="#3ABDAA" d="m49.638 120.863 16.275-.004-.704 48.849-16.275.004.704-48.849Z"/>
  <path fill="#00639F" d="m88.86 117.587-.8 55.449-23.883.007.801-55.45 23.882-.006Z"/>
  <path fill="#76CBC8" d="m72.907 101.543 13.395-.002-1.252 87.489-13.396.002 1.253-87.489Z"/>
  <path fill="#2E498F" d="m83.513 93.044 16.013-.002-1.497 104.515-16.012.002 1.496-104.515Z"/>
  <path fill="#B3B2FF" d="m122.189 85.969-1.703 118.657-23.474.004 1.703-118.657 23.474-.004Z"/>
  <path fill="#B3B2FF" d="m122.189 85.969-1.703 118.657-23.474.004 1.703-118.657 23.474-.004Z" style="mix-blend-mode:multiply"/>
</svg>
