<?xml version="1.0" encoding="UTF-8"?>
<svg xmlns="http://www.w3.org/2000/svg" xmlns:xlink="http://www.w3.org/1999/xlink" version="1.1" viewBox="0 0 128 128">
  <defs>
    <style>
      .cls-1 {
        fill: none;
      }

      .cls-2 {
        fill: #3f2c13;
      }

      .cls-3 {
        fill: #83d9ff;
      }

      .cls-4 {
        fill: #2a38f7;
      }

      .cls-5 {
        fill: #739293;
      }

      .cls-6 {
        fill: #00a0f9;
      }

      .cls-7 {
        fill: #43ceff;
      }

      .cls-8 {
        fill: #fff;
      }

      .cls-9 {
        fill: #634b27;
      }

      .cls-10 {
        clip-path: url(#clippath);
      }
    </style>
    <clipPath id="clippath">
      <rect class="cls-1" x="30.9" y="16" width="66.1" height="96"/>
    </clipPath>
  </defs>
  <!-- Generator: Adobe Illustrator 28.7.1, SVG Export Plug-In . SVG Version: 1.2.0 Build 142)  -->
  <g>
    <g id="Capa_1">
      <g id="Capa_1-2" data-name="Capa_1">
        <g class="cls-10">
          <g>
            <path class="cls-6" d="M97.1,82h-6v6h6v-6Z"/>
            <path class="cls-6" d="M97.1,76v6h-6v-6h6Z"/>
            <path class="cls-6" d="M97.1,70v6h-6v-6h6Z"/>
            <path class="cls-6" d="M91.1,94h-6v6h6v-6Z"/>
            <path class="cls-6" d="M91.1,88h-6v6h6v-6Z"/>
            <path class="cls-4" d="M91.1,82h-6v6h6v-6Z"/>
            <path class="cls-4" d="M91.1,76v6h-6v-6h6Z"/>
            <path class="cls-4" d="M91,70v6h-6v-6h6Z"/>
            <path class="cls-6" d="M91,64h-6v6h6v-6Z"/>
            <path class="cls-6" d="M91,58h-6v6h6v-6Z"/>
            <path class="cls-6" d="M85.1,100h-6v6h6v-6Z"/>
            <path class="cls-4" d="M85.1,94h-6v6h6v-6Z"/>
            <path class="cls-4" d="M85.1,88h-6v6h6v-6Z"/>
            <path class="cls-4" d="M85.1,82h-6v6h6v-6Z"/>
            <path class="cls-4" d="M85.1,76v6h-6v-6h6Z"/>
            <path class="cls-4" d="M85,70v6h-6v-6h6Z"/>
            <path class="cls-7" d="M85,64h-6v6h6v-6Z"/>
            <path class="cls-7" d="M85,58h-6v6h6v-6Z"/>
            <path class="cls-6" d="M85,52h-6v6h6v-6Z"/>
            <path class="cls-6" d="M85,28v6h-6v-6h6Z"/>
            <path class="cls-6" d="M79.1,100h-6v6h6v-6Z"/>
            <path class="cls-4" d="M79.1,94h-6v6h6v-6Z"/>
            <path class="cls-4" d="M79.1,88h-6v6h6v-6Z"/>
            <path class="cls-4" d="M79.1,82h-6v6h6v-6Z"/>
            <path class="cls-4" d="M79.1,76v6h-6v-6h6Z"/>
            <path class="cls-4" d="M79,70v6h-6v-6h6Z"/>
            <path class="cls-3" d="M79,64h-6v6h6v-6Z"/>
            <path class="cls-7" d="M79,58h-6v6h6v-6Z"/>
            <path class="cls-6" d="M79,52h-6v6h6v-6Z"/>
            <path class="cls-6" d="M79,34h-6v6h6v-6Z"/>
            <path class="cls-3" d="M79,28v6h-6v-6h6Z"/>
            <path class="cls-6" d="M79,22v6h-6v-6h6Z"/>
            <path class="cls-6" d="M73,106h-6v6h6v-6Z"/>
            <path class="cls-6" d="M73,100h-6v6h6v-6Z"/>
            <path class="cls-4" d="M73,94h-6v6h6v-6Z"/>
            <path class="cls-4" d="M73,88h-6v6h6v-6Z"/>
            <path class="cls-4" d="M73,82h-6v6h6v-6Z"/>
            <path class="cls-4" d="M73,76v6h-6v-6h6Z"/>
            <path class="cls-2" d="M73,16v6h-6v-6h6Z"/>
            <path class="cls-4" d="M73,70v6h-6v-6h6Z"/>
            <path class="cls-3" d="M73,64h-6v6h6v-6Z"/>
            <path class="cls-7" d="M73,58h-6v6h6v-6Z"/>
            <path class="cls-6" d="M73,52h-6v6h6v-6Z"/>
            <path class="cls-6" d="M73,46h-6v6h6v-6Z"/>
            <path class="cls-6" d="M73,40h-6v6h6v-6Z"/>
            <path class="cls-6" d="M73,34h-6v6h6v-6Z"/>
            <path class="cls-5" d="M73,28v6h-6v-6h6Z"/>
            <path class="cls-5" d="M73,22v6h-6v-6h6Z"/>
            <path class="cls-6" d="M67,106h-6v6h6v-6Z"/>
            <path class="cls-4" d="M67,100h-6v6h6v-6Z"/>
            <path class="cls-4" d="M67,94h-6v6h6v-6Z"/>
            <path class="cls-4" d="M67,88h-6v6h6v-6Z"/>
            <path class="cls-4" d="M67,82h-6v6h6v-6Z"/>
            <path class="cls-4" d="M67,76v6h-6v-6h6Z"/>
            <path class="cls-9" d="M67,16v6h-6v-6h6Z"/>
            <path class="cls-3" d="M67,70v6h0V28h0v-6h0v6h0v42Z"/>
            <path class="cls-4" d="M67,70v6h-6v-6h6Z"/>
            <path class="cls-3" d="M67,64h-6v6h6v-6Z"/>
            <path class="cls-3" d="M67,58h-6v6h6v-6Z"/>
            <path class="cls-3" d="M67,52h-6v6h6v-6Z"/>
            <path class="cls-3" d="M67,46h-6v6h6v-6Z"/>
            <path class="cls-3" d="M67,40h-6v6h6v-6Z"/>
            <path class="cls-3" d="M67,34h-6v6h6v-6Z"/>
            <path class="cls-5" d="M67,28v6h-6v-6h6Z"/>
            <path class="cls-5" d="M67,22v6h-6v-6h6Z"/>
            <path class="cls-6" d="M61,106h-6v6h6v-6Z"/>
            <path class="cls-6" d="M61,100h-6v6h6v-6Z"/>
            <path class="cls-4" d="M61,94h-6v6h6v-6Z"/>
            <path class="cls-4" d="M61,88h-6v6h6v-6Z"/>
            <path class="cls-4" d="M61,82h-6v6h6v-6Z"/>
            <path class="cls-4" d="M61,76v6h-6v-6h6Z"/>
            <path class="cls-9" d="M61,16v6h-6v-6h6Z"/>
            <path class="cls-8" d="M61,70v6h-6v-6h6Z"/>
            <path class="cls-8" d="M61,64h-6v6h6v-6Z"/>
            <path class="cls-3" d="M61,58h-6v6h6v-6Z"/>
            <path class="cls-6" d="M61,52h-6v6h6v-6Z"/>
            <path class="cls-6" d="M61,46h-6v6h6v-6Z"/>
            <path class="cls-6" d="M61,40h-6v6h6v-6Z"/>
            <path class="cls-6" d="M61,34h-6v6h6v-6Z"/>
            <path class="cls-5" d="M61,28v6h-6v-6h6Z"/>
            <path class="cls-5" d="M61,22v6h-6v-6h6Z"/>
            <path class="cls-6" d="M55,100h-6v6h6v-6Z"/>
            <path class="cls-4" d="M55,94h-6v6h6v-6Z"/>
            <path class="cls-4" d="M55,88h-6v6h6v-6Z"/>
            <path class="cls-4" d="M55,82h-6v6h6v-6Z"/>
            <path class="cls-8" d="M55,76v6h-6v-6h6Z"/>
            <path class="cls-8" d="M54.9,70v6h-6v-6h6Z"/>
            <path class="cls-8" d="M54.9,64h-6v6h6v-6Z"/>
            <path class="cls-3" d="M54.9,58h-6v6h6v-6Z"/>
            <path class="cls-6" d="M54.9,52h-6v6h6v-6Z"/>
            <path class="cls-6" d="M54.9,34h-6v6h6v-6Z"/>
            <path class="cls-3" d="M54.9,28v6h-6v-6h6Z"/>
            <path class="cls-8" d="M54.9,22v6h-6v-6h6Z"/>
            <path class="cls-6" d="M49,100h-6v6h6v-6Z"/>
            <path class="cls-4" d="M49,94h-6v6h6v-6Z"/>
            <path class="cls-4" d="M49,88h-6v6h6v-6Z"/>
            <path class="cls-4" d="M49,82h-6v6h6v-6Z"/>
            <path class="cls-8" d="M49,76v6h-6v-6h6Z"/>
            <path class="cls-8" d="M49,70v6h-6v-6h6Z"/>
            <path class="cls-3" d="M49,64h-6v6h6v-6Z"/>
            <path class="cls-3" d="M49,58h-6v6h6v-6Z"/>
            <path class="cls-6" d="M49,52h-6v6h6v-6Z"/>
            <path class="cls-6" d="M49,28v6h-6v-6h6Z"/>
            <path class="cls-6" d="M43,94h-6v6h6v-6Z"/>
            <path class="cls-6" d="M43,88h-6v6h6v-6Z"/>
            <path class="cls-4" d="M43,82h-6v6h6v-6Z"/>
            <path class="cls-4" d="M43,76v6h-6v-6h6Z"/>
            <path class="cls-4" d="M42.9,70v6h-6v-6h6Z"/>
            <path class="cls-6" d="M42.9,64h-6v6h6v-6Z"/>
            <path class="cls-6" d="M42.9,58h-6v6h6v-6Z"/>
            <path class="cls-6" d="M37,82h-6v6h6v-6h0Z"/>
            <path class="cls-6" d="M37,76v6h-6v-6h6Z"/>
            <path class="cls-6" d="M36.9,70v6h-6v-6h6Z"/>
          </g>
        </g>
      </g>
    </g>
  </g>
</svg>