<?xml version="1.0" encoding="UTF-8"?>
<svg xmlns="http://www.w3.org/2000/svg" version="1.1" viewBox="0 0 128 128">
  <defs>
    <style>
      .cls-1 {
        fill: #63e3ef;
      }

      .cls-2 {
        fill: #ea4325;
      }

      .cls-3 {
        fill: #ebf5f6;
      }

      .cls-4 {
        fill: #2e498f;
      }

      .cls-5 {
        fill: #76cbc8;
      }

      .cls-6 {
        fill: #3abdaa;
      }

      .cls-7 {
        fill: #0089ba;
      }

      .cls-8 {
        fill: #00639f;
      }

      .cls-9 {
        fill: #304990;
      }

      .cls-10 {
        fill: #12acba;
      }

      .cls-11 {
        fill: #fff;
      }

      .cls-12 {
        fill: #ffe500;
      }

      .cls-13 {
        fill: #e8253a;
      }

      .cls-14 {
        fill: #0a0a0a;
      }

      .cls-15 {
        fill: #fff8ac;
      }

      .cls-16 {
        fill: #332a74;
      }
    </style>
  </defs>
  <!-- Generator: Adobe Illustrator 28.7.1, SVG Export Plug-In . SVG Version: 1.2.0 Build 142)  -->
  <g>
    <g id="Capa_1">
      <g>
        <path class="cls-2" d="M42.7,111.1h-15.8v2.9h1.2v2.2h1.3v2.4h.7v4.6h1.7v3h1.4v1.8h3.3v-1.8h1.8v-3h1.3v-4.6h.7v-2.4h1.3v-2.2h1.2v-2.9Z"/>
        <path class="cls-12" d="M39.2,111.1h-8.8v2.9h.7v2.2h.7v2.4h.4v4.6h.9v3h.8v1.8h1.8v-1.8h1v-3h.7v-4.6h.4v-2.4h.7v-2.2h.7v-2.9Z"/>
        <path class="cls-15" d="M36.5,111.1h-3.4v2.9h.3v2.2h.3v2.4h.2v4.6h.4v3h.3v1.8h.7v-1.8h.4v-3h.3v-4.6h.2v-2.4h.3v-2.2h.3v-2.9Z"/>
        <path class="cls-2" d="M28.9,117.5h-1.4v1.6h1.4v-1.6Z"/>
        <path class="cls-2" d="M30.8,125.4h-.7v.8h.7v-.8Z"/>
        <path class="cls-12" d="M29.3,120.4h-.7v.9h.7v-.9Z"/>
        <path class="cls-2" d="M40.7,119.1h1.4v-1.6h-1.4v1.6Z"/>
        <path class="cls-2" d="M38.9,126.2h.7v-.8h-.7v.8Z"/>
        <path class="cls-12" d="M40.3,121.3h.7v-.9h-.7v.9Z"/>
        <path class="cls-2" d="M42.7,111.5h-15.8v-2.9h1.2v-2.1h1.3v-2.4h.7v-4.6h1.7v-3h1.4v-1.8h3.3v1.8h1.8v3h1.3v4.6h.7v2.4h1.3v2.1h1.2v2.9Z"/>
        <path class="cls-12" d="M39.2,111.5h-8.8v-2.9h.7v-2.1h.7v-2.4h.4v-4.6h.9v-3h.8v-1.8h1.8v1.8h1v3h.7v4.6h.4v2.4h.7v2.1h.7v2.9Z"/>
        <path class="cls-15" d="M36.5,111.5h-3.4v-2.9h.3v-2.1h.3v-2.4h.2v-4.6h.4v-3h.3v-1.8h.7v1.8h.4v3h.3v4.6h.2v2.4h.3v2.1h.3v2.9Z"/>
        <path class="cls-2" d="M28.9,103.5h-1.4v1.6h1.4v-1.6Z"/>
        <path class="cls-2" d="M30.8,96.4h-.7v.8h.7v-.8Z"/>
        <path class="cls-12" d="M29.3,101.3h-.7v.9h.7v-.9Z"/>
        <path class="cls-2" d="M40.7,105.1h1.4v-1.6h-1.4v1.6Z"/>
        <path class="cls-2" d="M38.9,97.2h.7v-.8h-.7v.8Z"/>
        <path class="cls-12" d="M40.3,102.2h.7v-.9h-.7v.9Z"/>
        <path class="cls-2" d="M101.1,111.1h-15.8v2.9h1.2v2.2h1.3v2.4h.7v4.6h1.7v3h1.4v1.8h3.3v-1.8h1.8v-3h1.3v-4.6h.7v-2.4h1.3v-2.2h1.2v-2.9Z"/>
        <path class="cls-12" d="M97.7,111.1h-8.8v2.9h.7v2.2h.7v2.4h.4v4.6h.9v3h.8v1.8h1.8v-1.8h1v-3h.7v-4.6h.4v-2.4h.7v-2.2h.7v-2.9Z"/>
        <path class="cls-15" d="M95,111.1h-3.4v2.9h.3v2.2h.3v2.4h.2v4.6h.4v3h.3v1.8h.7v-1.8h.4v-3h.3v-4.6h.2v-2.4h.3v-2.2h.3v-2.9Z"/>
        <path class="cls-2" d="M87.4,117.5h-1.4v1.6h1.4v-1.6Z"/>
        <path class="cls-2" d="M89.2,125.4h-.7v.8h.7v-.8Z"/>
        <path class="cls-12" d="M87.7,120.4h-.7v.9h.7v-.9Z"/>
        <path class="cls-2" d="M99.1,119.1h1.4v-1.6h-1.4v1.6Z"/>
        <path class="cls-2" d="M97.3,126.2h.7v-.8h-.7v.8Z"/>
        <path class="cls-12" d="M98.7,121.3h.7v-.9h-.7v.9Z"/>
        <path class="cls-2" d="M101.1,111.5h-15.8v-2.9h1.2v-2.1h1.3v-2.4h.7v-4.6h1.7v-3h1.4v-1.8h3.3v1.8h1.8v3h1.3v4.6h.7v2.4h1.3v2.1h1.2v2.9Z"/>
        <path class="cls-12" d="M97.7,111.5h-8.8v-2.9h.7v-2.1h.7v-2.4h.4v-4.6h.9v-3h.8v-1.8h1.8v1.8h1v3h.7v4.6h.4v2.4h.7v2.1h.7v2.9Z"/>
        <path class="cls-15" d="M95,111.5h-3.4v-2.9h.3v-2.1h.3v-2.4h.2v-4.6h.4v-3h.3v-1.8h.7v1.8h.4v3h.3v4.6h.2v2.4h.3v2.1h.3v2.9Z"/>
        <path class="cls-2" d="M87.4,103.5h-1.4v1.6h1.4v-1.6Z"/>
        <path class="cls-2" d="M89.2,96.4h-.7v.8h.7v-.8Z"/>
        <path class="cls-12" d="M87.7,101.3h-.7v.9h.7v-.9Z"/>
        <path class="cls-2" d="M99.1,105.1h1.4v-1.6h-1.4v1.6Z"/>
        <path class="cls-2" d="M97.3,97.2h.7v-.8h-.7v.8Z"/>
        <path class="cls-12" d="M98.7,102.2h.7v-.9h-.7v.9Z"/>
        <path class="cls-3" d="M90.7,36.6h-53.4v41.7h53.4v-41.7Z"/>
        <path class="cls-3" d="M97.8,50.4H30.2v27.9h67.6v-27.9Z"/>
        <path class="cls-9" d="M28.8,91.7h2.4v-20.9h-2.4v20.9Z"/>
        <path class="cls-7" d="M30.5,93.7h2.8v-25h-2.8v25Z"/>
        <path class="cls-9" d="M40.7,70.8h-2.4v20.9h2.4v-20.9Z"/>
        <path class="cls-7" d="M39,68.7h-2.8v25h2.8v-25Z"/>
        <path class="cls-8" d="M36.8,95.4v-28.4h-4.1v28.4h4.1Z"/>
        <path class="cls-9" d="M87.3,91.7h2.4v-20.9h-2.4v20.9Z"/>
        <path class="cls-7" d="M89,93.7h2.8v-25h-2.8v25Z"/>
        <path class="cls-9" d="M99.2,70.8h-2.4v20.9h2.4v-20.9Z"/>
        <path class="cls-7" d="M97.5,68.7h-2.8v25h2.8v-25Z"/>
        <path class="cls-8" d="M95.3,95.4v-28.4h-4.1v28.4h4.1Z"/>
        <path class="cls-13" d="M28.3,52.8v-23.6h-8.3v23.6h8.3Z"/>
        <path class="cls-16" d="M28.3,52.8v-15.8h-8.3v15.8h8.3Z"/>
        <path class="cls-4" d="M34.6,65.4v-10H13.6v10h21.1Z"/>
        <path class="cls-4" d="M30.8,58.3v-6.4h-13.4v6.4h13.4Z"/>
        <path class="cls-13" d="M108,52.8v-23.6h-8.3v23.6h8.3Z"/>
        <path class="cls-16" d="M108,52.8v-15.8h-8.3v15.8h8.3Z"/>
        <path class="cls-4" d="M114.4,65.4v-10h-21.1v10h21.1Z"/>
        <path class="cls-4" d="M110.6,58.3v-6.4h-13.4v6.4h13.4Z"/>
        <path class="cls-1" d="M86.1,19.5h-44.3v58.8h44.3V19.5Z"/>
        <path class="cls-10" d="M78.3,9h-28.7v55.2h28.7V9Z"/>
        <path class="cls-5" d="M21.8,62v3.5h84.4v-3.5H21.8Z"/>
        <path class="cls-16" d="M106.9,77.2H21.1v4h85.9v-4Z"/>
        <path class="cls-4" d="M111,72.9H17v5.1h94v-5.1Z"/>
        <path class="cls-6" d="M13.6,64.8v4.2h100.8v-4.2H13.6Z"/>
        <path class="cls-8" d="M121.2,68.7H6.8v6.2h114.5v-6.2Z"/>
        <path class="cls-7" d="M75.3,58.9h-22.6v23.4h22.6v-23.4Z"/>
        <path class="cls-4" d="M70.3,56.5h-12.7v28h12.7v-28Z"/>
        <path class="cls-16" d="M65.4,56.5h-2.8v28h2.8v-28Z"/>
        <path class="cls-1" d="M71.3,0h-14.6v52.2h14.6V0Z"/>
        <path class="cls-14" d="M75.6,23.6h-3.1v-4.4h-16v4.4h-4.1v8.6h4.1v4.4h16v-4.4h3.1v-8.6Z"/>
        <path class="cls-14" d="M59.9,39.2h8.1v-11.2h-8.1v11.2Z"/>
        <path class="cls-14" d="M59.9,27.7h8.1v-11.2h-8.1v11.2Z"/>
        <path class="cls-11" d="M68.3,23h-1.5v-2.1h-7.6v2.1h-2v4.1h2v2.1h7.6v-2.1h1.5v-4.1Z"/>
      </g>
    </g>
  </g>
</svg>