<?xml version="1.0" encoding="UTF-8"?>
<svg xmlns="http://www.w3.org/2000/svg" version="1.1" viewBox="0 0 128 128">
  <defs>
    <style>
      .cls-1 {
        fill: #ea4325;
      }

      .cls-2 {
        fill: #b71a2c;
      }

      .cls-3 {
        fill: #2e498f;
      }

      .cls-4 {
        fill: #76cbc8;
      }

      .cls-5 {
        fill: #3abdaa;
      }

      .cls-6 {
        fill: #00639f;
      }

      .cls-7 {
        isolation: isolate;
      }

      .cls-8 {
        mix-blend-mode: multiply;
      }

      .cls-9 {
        fill: #fff;
      }

      .cls-10 {
        fill: #ffe500;
      }

      .cls-11 {
        fill: #e8253a;
      }

      .cls-12 {
        fill: #0a0a0a;
      }

      .cls-13 {
        fill: #f0534c;
      }

      .cls-14 {
        fill: #fff8ac;
      }

      .cls-15 {
        fill: #332a74;
      }
    </style>
  </defs>
  <!-- Generator: Adobe Illustrator 28.7.1, SVG Export Plug-In . SVG Version: 1.2.0 Build 142)  -->
  <g class="cls-7">
    <g id="Capa_1">
      <g>
        <path class="cls-1" d="M60.3,112.4h-14.6v2.7h1.1v2h1.2v2.2h.7v4.2h1.6v2.8h1.3v1.7h3v-1.7h1.7v-2.8h1.2v-4.2h.7v-2.2h1.2v-2h1.1v-2.7Z"/>
        <path class="cls-10" d="M57.1,112.4h-8.2v2.7h.6v2h.7v2.2h.4v4.2h.9v2.8h.7v1.7h1.7v-1.7h.9v-2.8h.7v-4.2h.4v-2.2h.7v-2h.6v-2.7Z"/>
        <path class="cls-14" d="M54.6,112.4h-3.2v2.7h.2v2h.3v2.2h.1v4.2h.3v2.8h.3v1.7h.7v-1.7h.4v-2.8h.3v-4.2h.1v-2.2h.3v-2h.2v-2.7Z"/>
        <path class="cls-1" d="M47.6,118.3h-1.3v1.5h1.3v-1.5Z"/>
        <path class="cls-1" d="M49.3,125.6h-.7v.8h.7v-.8Z"/>
        <path class="cls-10" d="M47.9,121h-.7v.8h.7v-.8Z"/>
        <path class="cls-1" d="M58.5,119.8h1.3v-1.5h-1.3v1.5Z"/>
        <path class="cls-1" d="M56.7,126.3h.7v-.8h-.7v.8Z"/>
        <path class="cls-10" d="M58.1,121.8h.7v-.8h-.7v.8Z"/>
        <path class="cls-1" d="M60.3,112.7h-14.6v-2.7h1.1v-2h1.2v-2.2h.7v-4.2h1.6v-2.8h1.3v-1.7h3v1.7h1.7v2.8h1.2v4.2h.7v2.2h1.2v2h1.1v2.7Z"/>
        <path class="cls-10" d="M57.1,112.7h-8.2v-2.7h.6v-2h.7v-2.2h.4v-4.2h.9v-2.8h.7v-1.7h1.7v1.7h.9v2.8h.7v4.2h.4v2.2h.7v2h.6v2.7Z"/>
        <path class="cls-14" d="M54.6,112.7h-3.2v-2.7h.2v-2h.3v-2.2h.1v-4.2h.3v-2.8h.3v-1.7h.7v1.7h.4v2.8h.3v4.2h.1v2.2h.3v2h.2v2.7Z"/>
        <path class="cls-1" d="M47.6,105.3h-1.3v1.5h1.3v-1.5Z"/>
        <path class="cls-1" d="M49.3,98.7h-.7v.8h.7v-.8Z"/>
        <path class="cls-10" d="M47.9,103.2h-.7v.8h.7v-.8Z"/>
        <path class="cls-1" d="M58.5,106.8h1.3v-1.5h-1.3v1.5Z"/>
        <path class="cls-1" d="M56.7,99.5h.7v-.8h-.7v.8Z"/>
        <path class="cls-10" d="M58.1,104.1h.7v-.8h-.7v.8Z"/>
        <path class="cls-1" d="M81.9,112.4h-14.6v2.7h1.1v2h1.2v2.2h.7v4.2h1.5v2.8h1.3v1.7h3v-1.7h1.7v-2.8h1.2v-4.2h.7v-2.2h1.2v-2h1.1v-2.7Z"/>
        <path class="cls-10" d="M78.7,112.4h-8.2v2.7h.6v2h.7v2.2h.4v4.2h.9v2.8h.7v1.7h1.7v-1.7h.9v-2.8h.7v-4.2h.4v-2.2h.7v-2h.6v-2.7Z"/>
        <path class="cls-14" d="M76.2,112.4h-3.2v2.7h.2v2h.3v2.2h.1v4.2h.3v2.8h.3v1.7h.7v-1.7h.4v-2.8h.3v-4.2h.1v-2.2h.3v-2h.2v-2.7Z"/>
        <path class="cls-1" d="M69.2,118.3h-1.3v1.5h1.3v-1.5Z"/>
        <path class="cls-1" d="M70.9,125.6h-.7v.8h.7v-.8Z"/>
        <path class="cls-10" d="M69.5,121h-.7v.8h.7v-.8Z"/>
        <path class="cls-1" d="M80.1,119.8h1.3v-1.5h-1.3v1.5Z"/>
        <path class="cls-1" d="M78.4,126.3h.7v-.8h-.7v.8Z"/>
        <path class="cls-10" d="M79.7,121.8h.7v-.8h-.7v.8Z"/>
        <path class="cls-1" d="M81.9,112.7h-14.6v-2.7h1.1v-2h1.2v-2.2h.7v-4.2h1.5v-2.8h1.3v-1.7h3v1.7h1.7v2.8h1.2v4.2h.7v2.2h1.2v2h1.1v2.7Z"/>
        <path class="cls-10" d="M78.7,112.7h-8.2v-2.7h.6v-2h.7v-2.2h.4v-4.2h.9v-2.8h.7v-1.7h1.7v1.7h.9v2.8h.7v4.2h.4v2.2h.7v2h.6v2.7Z"/>
        <path class="cls-14" d="M76.2,112.7h-3.2v-2.7h.2v-2h.3v-2.2h.1v-4.2h.3v-2.8h.3v-1.7h.7v1.7h.4v2.8h.3v4.2h.1v2.2h.3v2h.2v2.7Z"/>
        <path class="cls-1" d="M69.2,105.3h-1.3v1.5h1.3v-1.5Z"/>
        <path class="cls-1" d="M70.9,98.7h-.7v.8h.7v-.8Z"/>
        <path class="cls-10" d="M69.5,103.2h-.7v.8h.7v-.8Z"/>
        <path class="cls-1" d="M80.1,106.8h1.3v-1.5h-1.3v1.5Z"/>
        <path class="cls-1" d="M78.4,99.5h.7v-.8h-.7v.8Z"/>
        <path class="cls-10" d="M79.7,104.1h.7v-.8h-.7v.8Z"/>
        <path class="cls-13" d="M24.2,24.4h-8.3v29.7h8.3v-29.7Z"/>
        <path class="cls-6" d="M24.2,35.8h-8.3v18.3h8.3v-18.3Z"/>
        <path class="cls-13" d="M112.1,24.4h-8.3v29.7h8.3v-29.7Z"/>
        <path class="cls-6" d="M112.1,35.8h-8.3v18.3h8.3v-18.3Z"/>
        <path class="cls-5" d="M123.3,48.9H4.7v9.6h118.6v-9.6Z"/>
        <path class="cls-15" d="M48.5,84v13.7h8.4v-13.7h-8.4Z"/>
        <path class="cls-3" d="M42.1,71.3v10.1h21.2v-10.1h-21.2Z"/>
        <path class="cls-3" d="M46,78.5v6.4h13.5v-6.4h-13.5Z"/>
        <path class="cls-15" d="M71.1,84v13.7h8.4v-13.7h-8.4Z"/>
        <path class="cls-3" d="M64.7,71.3v10.1h21.2v-10.1h-21.2Z"/>
        <path class="cls-3" d="M68.5,78.5v6.4h13.5v-6.4h-13.5Z"/>
        <path class="cls-2" d="M86.3,19.7h-44.6v59.2h44.6V19.7Z"/>
        <g class="cls-8">
          <path class="cls-2" d="M86.3,19.7h-23v59.2h23V19.7Z"/>
        </g>
        <path class="cls-11" d="M78.4,9.1h-28.8v55.6h28.8V9.1Z"/>
        <path class="cls-13" d="M71.4,0h-14.7v52.6h14.7V0Z"/>
        <path class="cls-12" d="M75.7,23.7h-3.2v-4.4h-16.1v4.4h-4.2v8.6h4.2v4.4h16.1v-4.4h3.2v-8.6Z"/>
        <path class="cls-12" d="M59.9,39.4h8.1v-11.3h-8.1v11.3Z"/>
        <path class="cls-12" d="M59.9,27.9h8.1v-11.3h-8.1v11.3Z"/>
        <path class="cls-9" d="M68.3,23.2h-1.5v-2.1h-7.6v2.1h-2v4.1h2v2.1h7.6v-2.1h1.5v-4.1Z"/>
        <path class="cls-4" d="M17.8,61.9h5.1v-15.3h-5.1v15.3Z"/>
        <path class="cls-5" d="M21.8,63.4h6.1v-18.2h-6.1v18.2Z"/>
        <path class="cls-6" d="M27.5,43.9v20.7h8.9v-20.7h-8.9Z"/>
        <path class="cls-4" d="M30.4,70.6h5v-32.7h-5v32.7Z"/>
        <path class="cls-3" d="M34.3,73.8h6v-39.1h-6v39.1Z"/>
        <path class="cls-2" d="M39.9,32.1v44.3h8.8v-44.3h-8.8Z"/>
        <path class="cls-4" d="M110.2,46.6h-5.1v15.3h5.1v-15.3Z"/>
        <path class="cls-5" d="M106.2,45.1h-6.1v18.2h6.1v-18.2Z"/>
        <path class="cls-6" d="M91.6,43.9v20.7h8.9v-20.7h-8.9Z"/>
        <path class="cls-4" d="M97.6,37.9h-5v32.7h5v-32.7Z"/>
        <path class="cls-3" d="M93.7,34.7h-6v39.1h6v-39.1Z"/>
        <path class="cls-2" d="M79.3,32.1v44.3h8.8v-44.3h-8.8Z"/>
        <g class="cls-8">
          <path class="cls-2" d="M79.3,32.1v44.3h8.8v-44.3h-8.8Z"/>
        </g>
      </g>
    </g>
  </g>
</svg>