<?xml version="1.0" encoding="UTF-8"?>
<svg xmlns="http://www.w3.org/2000/svg" version="1.1" viewBox="0 0 128 128">
  <defs>
    <style>
      .cls-1 {
        fill: #ea4325;
      }

      .cls-2 {
        fill: #171717;
      }

      .cls-3 {
        fill: #2e498f;
      }

      .cls-4 {
        fill: #76cbc8;
      }

      .cls-5 {
        fill: #3abdaa;
      }

      .cls-6 {
        fill: #00639f;
      }

      .cls-7 {
        fill: #fff;
      }

      .cls-8 {
        fill: #b3b2ff;
      }

      .cls-9 {
        fill: #ffe500;
      }

      .cls-10 {
        fill: #7e7cff;
      }

      .cls-11 {
        fill: #fff8ac;
      }

      .cls-12 {
        fill: #332a74;
      }
    </style>
  </defs>
  <!-- Generator: Adobe Illustrator 28.7.1, SVG Export Plug-In . SVG Version: 1.2.0 Build 142)  -->
  <g>
    <g id="Capa_1">
      <g>
        <polygon class="cls-1" points="61.1 112.3 46.6 112.3 46.6 115 47.7 115 47.7 117 48.9 117 48.9 119.2 49.6 119.2 49.7 123.5 51.2 123.5 51.3 126.3 52.5 126.3 52.6 128 55.6 128 55.6 126.3 57.2 126.3 57.2 123.5 58.4 123.5 58.3 119.2 59 119.2 58.9 117 60.1 117 60.1 115 61.2 115 61.1 112.3"/>
        <polygon class="cls-9" points="57.9 112.3 49.8 112.3 49.8 115 50.4 115 50.4 117 51.1 117 51.1 119.2 51.5 119.2 51.6 123.5 52.5 123.5 52.5 126.3 53.2 126.3 53.2 128 55 128 54.9 126.3 55.8 126.3 55.8 123.5 56.5 123.5 56.4 119.2 56.8 119.2 56.7 117 57.4 117 57.4 115 58 115 57.9 112.3"/>
        <polygon class="cls-11" points="55.4 112.3 52.3 112.3 52.3 115 52.5 115 52.6 117 52.8 117 52.9 119.2 53 119.2 53.1 123.5 53.4 123.5 53.4 126.3 53.7 126.3 53.7 128 54.4 128 54.4 126.3 54.7 126.3 54.7 123.5 55 123.5 54.9 119.2 55.1 119.2 55 117 55.3 117 55.2 115 55.5 115 55.4 112.3"/>
        <polygon class="cls-1" points="48.5 118.2 47.2 118.2 47.2 119.8 48.5 119.8 48.5 118.2"/>
        <polygon class="cls-1" points="50.3 125.5 49.7 125.5 49.7 126.3 50.3 126.3 50.3 125.5"/>
        <polygon class="cls-9" points="48.9 121 48.2 121 48.2 121.8 48.9 121.8 48.9 121"/>
        <polygon class="cls-1" points="59.4 119.8 60.7 119.8 60.7 118.2 59.4 118.2 59.4 119.8"/>
        <polygon class="cls-1" points="57.8 126.3 58.4 126.3 58.4 125.6 57.8 125.6 57.8 126.3"/>
        <polygon class="cls-9" points="59.1 121.8 59.8 121.8 59.8 121 59.1 121 59.1 121.8"/>
        <polygon class="cls-1" points="61.1 112.7 46.6 112.7 46.6 110 47.7 110 47.6 108 48.8 108 48.8 105.8 49.4 105.8 49.4 101.6 50.9 101.6 50.9 98.7 52.2 98.7 52.1 97 55.2 97 55.2 98.7 56.8 98.7 56.9 101.6 58 101.6 58.1 105.8 58.8 105.8 58.8 108 60 108 60 110 61.1 110 61.1 112.7"/>
        <polygon class="cls-9" points="57.9 112.7 49.8 112.7 49.8 110 50.4 110 50.3 108 51 108 51 105.8 51.3 105.8 51.3 101.6 52.1 101.6 52.1 98.7 52.8 98.7 52.8 97 54.5 97 54.5 98.7 55.4 98.7 55.5 101.6 56.2 101.6 56.2 105.8 56.6 105.8 56.6 108 57.3 108 57.3 110 57.9 110 57.9 112.7"/>
        <polygon class="cls-11" points="55.5 112.7 52.3 112.7 52.2 110 52.5 110 52.5 108 52.7 108 52.7 105.8 52.8 105.8 52.8 101.6 53.1 101.6 53.1 98.7 53.3 98.7 53.3 97 54 97 54 98.7 54.4 98.7 54.4 101.6 54.7 101.6 54.7 105.8 54.9 105.8 54.9 108 55.2 108 55.2 110 55.4 110 55.5 112.7"/>
        <polygon class="cls-1" points="48.3 105.2 47 105.2 47.1 106.8 48.3 106.8 48.3 105.2"/>
        <polygon class="cls-1" points="50 98.7 49.3 98.7 49.3 99.5 50 99.5 50 98.7"/>
        <polygon class="cls-9" points="48.6 103.2 48 103.2 48 104 48.7 104 48.6 103.2"/>
        <polygon class="cls-1" points="59.2 106.8 60.5 106.8 60.5 105.2 59.2 105.2 59.2 106.8"/>
        <polygon class="cls-1" points="57.4 99.5 58.1 99.5 58 98.7 57.4 98.7 57.4 99.5"/>
        <polygon class="cls-9" points="58.8 104.1 59.5 104.1 59.5 103.2 58.8 103.2 58.8 104.1"/>
        <polygon class="cls-1" points="82.7 112.3 68.2 112.3 68.2 115 69.3 115 69.3 117 70.5 117 70.5 119.2 71.2 119.2 71.3 123.5 72.8 123.5 72.8 126.3 74.1 126.3 74.2 128 77.2 128 77.1 126.3 78.8 126.3 78.8 123.5 80 123.5 79.9 119.2 80.6 119.2 80.5 117 81.7 117 81.7 115 82.8 115 82.7 112.3"/>
        <polygon class="cls-9" points="79.5 112.3 71.4 112.3 71.4 115 72 115 72.1 117 72.7 117 72.7 119.2 73.1 119.2 73.2 123.5 74 123.5 74.1 126.3 74.8 126.3 74.8 128 76.5 128 76.5 126.3 77.4 126.3 77.4 123.5 78 123.5 78 119.2 78.3 119.2 78.3 117 79 117 79 115 79.6 115 79.5 112.3"/>
        <polygon class="cls-11" points="77 112.3 73.9 112.3 73.9 115 74.1 115 74.2 117 74.4 117 74.5 119.2 74.6 119.2 74.7 123.5 75 123.5 75 126.3 75.3 126.3 75.4 128 76 128 76 126.3 76.3 126.3 76.3 123.5 76.6 123.5 76.5 119.2 76.6 119.2 76.6 117 76.9 117 76.8 115 77.1 115 77 112.3"/>
        <polygon class="cls-1" points="70.1 118.2 68.8 118.2 68.8 119.8 70.1 119.8 70.1 118.2"/>
        <polygon class="cls-1" points="71.9 125.5 71.3 125.5 71.3 126.3 71.9 126.3 71.9 125.5"/>
        <polygon class="cls-9" points="70.5 121 69.8 121 69.8 121.8 70.5 121.8 70.5 121"/>
        <polygon class="cls-1" points="81 119.8 82.3 119.8 82.2 118.2 81 118.2 81 119.8"/>
        <polygon class="cls-1" points="79.4 126.3 80 126.3 80 125.6 79.3 125.6 79.4 126.3"/>
        <polygon class="cls-9" points="80.7 121.8 81.4 121.8 81.3 121 80.7 121 80.7 121.8"/>
        <polygon class="cls-1" points="82.7 112.7 68.2 112.7 68.1 110 69.2 110 69.2 108 70.4 108 70.3 105.8 71 105.8 71 101.6 72.5 101.6 72.5 98.7 73.7 98.7 73.7 97 76.7 97 76.8 98.7 78.4 98.7 78.5 101.6 79.6 101.6 79.7 105.8 80.4 105.8 80.4 108 81.6 108 81.6 110 82.7 110 82.7 112.7"/>
        <polygon class="cls-9" points="79.5 112.7 71.4 112.7 71.3 110 71.9 110 71.9 108 72.6 108 72.5 105.8 72.9 105.8 72.9 101.6 73.7 101.6 73.7 98.7 74.4 98.7 74.4 97 76.1 97 76.1 98.7 77 98.7 77.1 101.6 77.7 101.6 77.8 105.8 78.2 105.8 78.2 108 78.9 108 78.9 110 79.5 110 79.5 112.7"/>
        <polygon class="cls-11" points="77 112.7 73.9 112.7 73.8 110 74.1 110 74 108 74.3 108 74.3 105.8 74.4 105.8 74.4 101.6 74.7 101.6 74.6 98.7 74.9 98.7 74.9 97 75.6 97 75.6 98.7 75.9 98.7 76 101.6 76.2 101.6 76.3 105.8 76.5 105.8 76.5 108 76.7 108 76.8 110 77 110 77 112.7"/>
        <polygon class="cls-1" points="69.9 105.2 68.6 105.2 68.6 106.8 69.9 106.8 69.9 105.2"/>
        <polygon class="cls-1" points="71.5 98.7 70.9 98.7 70.9 99.5 71.5 99.5 71.5 98.7"/>
        <polygon class="cls-9" points="70.2 103.2 69.5 103.2 69.5 104 70.2 104 70.2 103.2"/>
        <polygon class="cls-1" points="80.8 106.8 82.1 106.8 82.1 105.2 80.8 105.2 80.8 106.8"/>
        <polygon class="cls-1" points="79 99.5 79.6 99.5 79.6 98.7 79 98.7 79 99.5"/>
        <polygon class="cls-9" points="80.4 104.1 81.1 104.1 81.1 103.2 80.4 103.2 80.4 104.1"/>
        <polygon class="cls-9" points="23.9 24.4 15.6 24.4 16 54.1 24.3 54.1 23.9 24.4"/>
        <polygon class="cls-6" points="24.1 35.8 15.8 35.8 16 54.1 24.3 54.1 24.1 35.8"/>
        <polygon class="cls-9" points="111.6 24.4 103.3 24.4 103.7 54.1 112 54.1 111.6 24.4"/>
        <polygon class="cls-6" points="111.7 35.8 103.5 35.8 103.7 54.1 112 54.1 111.7 35.8"/>
        <path class="cls-5" d="M93.6,48.9v9.7h29.7v-9.7h-29.7M4.7,48.9v9.7h37.1v-9.7H4.7"/>
        <polygon class="cls-12" points="49 84 49.2 97.7 57.6 97.7 57.4 84 49 84"/>
        <polyline class="cls-3" points="42.5 78.8 42.6 81.4 63.7 81.4 63.7 78.9 42.5 78.8"/>
        <polygon class="cls-3" points="46.4 78.5 46.5 84.9 59.9 84.9 59.8 78.5 46.4 78.5"/>
        <polygon class="cls-12" points="71.5 84 71.7 97.7 80 97.7 79.9 84 71.5 84"/>
        <path class="cls-3" d="M82.3,78.9v2.5h3.9v-2.5h-3.9M65,78.9v2.5h3.9v-2.5h-3.9"/>
        <polyline class="cls-3" points="68.9 78.9 68.9 81.4 69 84.9 82.4 84.9 82.4 81.4 82.3 78.9 68.9 78.9"/>
        <polyline class="cls-8" points="41.3 19.6 41.7 48.9 41.9 58.6 42.2 78.8 42.5 78.8 63.7 78.9 65 78.9 68.9 78.9 82.3 78.9 86.2 78.9 86.6 78.9 86.6 78.8 63.7 78.8 62.8 19.6 85.7 19.6 85.7 19.6 41.3 19.6"/>
        <path class="cls-8" d="M86.5,76.4v2.4h0v-2.4h0M85.7,19.6l.2,12.5h0l-.2-12.5h0"/>
        <polyline class="cls-10" points="62.8 19.6 63.7 78.8 86.6 78.8 86.5 76.4 79.7 76.4 79 32.1 85.9 32.1 85.7 19.6 62.8 19.6"/>
        <polygon class="cls-8" points="77.7 9 49 9 49.8 64.7 78.5 64.7 77.7 9"/>
        <polygon class="cls-8" points="70.6 0 55.9 0 56.7 52.6 71.3 52.6 70.6 0"/>
        <polygon class="cls-2" points="75.3 23.7 72.1 23.7 72 19.3 64.1 19.3 63.9 19.3 56 19.3 56.1 23.7 51.9 23.7 52.1 32.4 56.2 32.4 56.3 36.8 64.1 36.8 64.4 36.8 72.3 36.8 72.2 32.4 75.4 32.4 75.3 23.7"/>
        <polygon class="cls-2" points="59.8 39.4 67.9 39.4 67.7 28.1 59.6 28.1 59.8 39.4"/>
        <polygon class="cls-2" points="59.6 27.9 67.7 27.9 67.5 16.6 59.4 16.6 59.6 27.9"/>
        <polygon class="cls-7" points="67.9 23.2 66.4 23.2 66.3 21.1 62.6 21.1 62.5 21.1 58.7 21.1 58.8 23.2 56.8 23.2 56.9 27.3 58.8 27.3 58.9 29.4 62.6 29.4 62.7 29.4 66.4 29.4 66.4 27.3 67.9 27.3 67.9 23.2"/>
        <polygon class="cls-4" points="18.1 61.9 23.1 61.9 22.9 46.6 17.8 46.6 18.1 61.9"/>
        <polygon class="cls-5" points="22.1 63.4 28.1 63.4 27.8 45.2 21.8 45.2 22.1 63.4"/>
        <polygon class="cls-6" points="27.5 43.9 27.8 64.6 36.6 64.6 36.3 43.9 27.5 43.9"/>
        <polygon class="cls-4" points="30.7 70.6 35.7 70.6 35.2 37.9 30.2 37.9 30.7 70.6"/>
        <polygon class="cls-3" points="34.6 73.8 40.6 73.8 40 34.7 34.1 34.7 34.6 73.8"/>
        <polygon class="cls-8" points="39.7 32.1 40.3 76.4 49 76.4 48.4 32.1 39.7 32.1"/>
        <polygon class="cls-4" points="110 46.6 104.9 46.6 105.1 61.9 110.2 61.9 110 46.6"/>
        <polygon class="cls-5" points="106 45.1 99.9 45.1 100.2 63.4 106.3 63.4 106 45.1"/>
        <polygon class="cls-6" points="91.4 43.9 91.7 64.6 100.6 64.6 100.3 43.9 91.4 43.9"/>
        <polygon class="cls-4" points="97.3 37.9 92.4 37.9 92.8 70.6 97.8 70.6 97.3 37.9"/>
        <polyline class="cls-3" points="87.8 34.7 88.3 73.8 93.9 73.8 93.7 58.6 93.6 48.9 93.4 34.7 87.8 34.7"/>
        <polyline class="cls-10" points="79 32.1 79.7 76.4 88.4 76.4 87.7 32.1 79 32.1"/>
      </g>
    </g>
  </g>
</svg>