<?xml version="1.0" encoding="UTF-8"?>
<svg xmlns="http://www.w3.org/2000/svg" version="1.1" viewBox="0 0 128 128">
  <defs>
    <style>
      .cls-1 {
        fill: #ea4325;
      }

      .cls-2 {
        opacity: .7;
      }

      .cls-2, .cls-3 {
        mix-blend-mode: multiply;
      }

      .cls-3 {
        opacity: .7;
      }

      .cls-4 {
        fill: #2e498f;
      }

      .cls-5 {
        fill: #0089ba;
      }

      .cls-6 {
        fill: #00639f;
      }

      .cls-7 {
        fill: #3c3485;
      }

      .cls-8 {
        isolation: isolate;
      }

      .cls-9 {
        fill: #304990;
      }

      .cls-10 {
        fill: #1e52a1;
      }

      .cls-11 {
        fill: #fff;
      }

      .cls-12 {
        fill: #ffe500;
      }

      .cls-13 {
        fill: #85b743;
      }

      .cls-14 {
        fill: #e8253a;
      }

      .cls-15 {
        fill: #0a0a0a;
      }

      .cls-16 {
        fill: #c5cb33;
      }

      .cls-17 {
        fill: #fff8ac;
      }

      .cls-18 {
        fill: #332a74;
      }
    </style>
  </defs>
  <!-- Generator: Adobe Illustrator 28.7.1, SVG Export Plug-In . SVG Version: 1.2.0 Build 142)  -->
  <g class="cls-8">
    <g id="Capa_1">
      <g>
        <path class="cls-1" d="M85.1,89.3h-42.2v6.6h3.1v4.9h3.4v5.5h2v10.5h4.5v7h3.7v4.2h8.8v-4.2h4.8v-7h3.4v-10.5h2v-5.5h3.4v-4.9h3.1v-6.6Z"/>
        <path class="cls-12" d="M75.8,89.3h-23.7v6.6h1.8v4.9h1.9v5.5h1.1v10.5h2.5v7h2.1v4.2h4.9v-4.2h2.7v-7h1.9v-10.5h1.1v-5.5h1.9v-4.9h1.8v-6.6Z"/>
        <path class="cls-17" d="M68.6,89.3h-9.2v6.6h.7v4.9h.7v5.5h.4v10.5h1v7h.8v4.2h1.9v-4.2h1v-7h.7v-10.5h.4v-5.5h.7v-4.9h.7v-6.6Z"/>
        <path class="cls-1" d="M48.3,103.9h-3.7v3.8h3.7v-3.8Z"/>
        <path class="cls-1" d="M53.2,122h-1.9v1.9h1.9v-1.9Z"/>
        <path class="cls-12" d="M49.2,110.6h-2v2h2v-2Z"/>
        <path class="cls-1" d="M79.7,107.7h3.7v-3.8h-3.7v3.8Z"/>
        <path class="cls-1" d="M74.8,123.9h1.9v-1.9h-1.9v1.9Z"/>
        <path class="cls-12" d="M78.7,112.6h2v-2h-2v2Z"/>
        <path class="cls-7" d="M86.2,85.4h-44.5v5.4h44.5v-5.4Z"/>
        <path class="cls-14" d="M33.4,41.5v-14.3h-5.1v14.3h5.1Z"/>
        <path class="cls-18" d="M33.4,41.6v-9.6h-5.1v9.6h5.1Z"/>
        <path class="cls-7" d="M37.2,49.2v-6.1h-12.8v6.1h12.8Z"/>
        <path class="cls-4" d="M34.9,44.9v-3.9h-8.1v3.9h8.1Z"/>
        <path class="cls-14" d="M99.7,41.5v-14.3h-5.1v14.3h5.1Z"/>
        <path class="cls-18" d="M99.7,41.6v-9.6h-5.1v9.6h5.1Z"/>
        <path class="cls-7" d="M103.6,49.2v-6.1h-12.8v6.1h12.8Z"/>
        <path class="cls-4" d="M101.2,44.9v-3.9h-8.1v3.9h8.1Z"/>
        <path class="cls-4" d="M48.1,34.5h-8.9v18.8h8.9v-18.8Z"/>
        <path class="cls-4" d="M41.7,38.6h-5.7v12h5.7v-12Z"/>
        <path class="cls-4" d="M36.8,41.2h-3.5v7.5h3.5v-7.5Z"/>
        <g class="cls-2">
          <path class="cls-4" d="M33.3,43.3v5.3h2.8v2h3.1v2.8h8.9v-10h-14.8Z"/>
        </g>
        <path class="cls-4" d="M79.9,53.4h8.9v-18.8h-8.9v18.8Z"/>
        <path class="cls-4" d="M86.3,50.6h5.7v-12h-5.7v12Z"/>
        <path class="cls-4" d="M91.2,48.6h3.5v-7.5h-3.5v7.5Z"/>
        <g class="cls-2">
          <path class="cls-4" d="M94.7,43.3v5.3h-2.8v2h-3.1v2.8h-8.9v-10h14.8Z"/>
        </g>
        <path class="cls-10" d="M83.8,17.5h-39.6v52.6h39.6V17.5Z"/>
        <path class="cls-10" d="M70.5,0h-13.1v46.7h13.1V0Z"/>
        <path class="cls-10" d="M76.8,8h-25.6v49.4h25.6V8Z"/>
        <g class="cls-3">
          <path class="cls-7" d="M76.8,17.5v-9.4h-6.3V0h-6.6v70h19.9V17.5h-7Z"/>
        </g>
        <path class="cls-15" d="M74.4,27.3h-2.8v-3.9h-14.3v3.9h-3.7v7.7h3.7v3.9h14.3v-3.9h2.8v-7.7Z"/>
        <path class="cls-15" d="M60.4,41.2h7.2v-10h-7.2v10Z"/>
        <path class="cls-15" d="M60.4,31h7.2v-10h-7.2v10Z"/>
        <path class="cls-11" d="M67.8,26.8h-1.3v-1.9h-6.8v1.9h-1.8v3.6h1.8v1.9h6.8v-1.9h1.3v-3.6Z"/>
        <path class="cls-16" d="M38.4,64.8v4.8h51.1v-4.8h-51.1Z"/>
        <path class="cls-9" d="M92.4,79.6h-56.9v6.9h56.9v-6.9Z"/>
        <path class="cls-6" d="M98.6,73.9H29.3v8.4h69.3v-8.4Z"/>
        <path class="cls-13" d="M33.5,68.6v5.7h61v-5.7h-61Z"/>
        <path class="cls-5" d="M70.9,60.6h-13.7v31.7h13.7v-31.7Z"/>
        <path class="cls-4" d="M67.8,57.4h-7.7v37.9h7.7v-37.9Z"/>
        <path class="cls-18" d="M64.8,57.4h-1.7v37.9h1.7v-37.9Z"/>
      </g>
    </g>
  </g>
</svg>