<?xml version="1.0" encoding="UTF-8"?>
<svg xmlns="http://www.w3.org/2000/svg" version="1.1" viewBox="0 0 128 128">
  <defs>
    <style>
      .cls-1 {
        fill: #ea4325;
      }

      .cls-2 {
        fill: #ffc214;
      }

      .cls-3 {
        fill: #2e498f;
      }

      .cls-4 {
        fill: #f79221;
      }

      .cls-5 {
        fill: #76cbc8;
      }

      .cls-6 {
        fill: #3abdaa;
      }

      .cls-7 {
        fill: #00639f;
      }

      .cls-8 {
        fill: #fff;
      }

      .cls-9 {
        fill: #f47723;
      }

      .cls-10 {
        fill: #ffe500;
      }

      .cls-11 {
        fill: #0a0a0a;
      }

      .cls-12 {
        fill: #fff8ac;
      }

      .cls-13 {
        fill: #ffdf00;
      }
    </style>
  </defs>
  <!-- Generator: Adobe Illustrator 28.7.1, SVG Export Plug-In . SVG Version: 1.2.0 Build 142)  -->
  <g>
    <g id="Capa_1">
      <g>
        <path class="cls-1" d="M83.3,90.6h-40.7v6.4h3v4.8h3.3v5.3h1.9v10.1h4.3v6.7h3.6v4.1h8.5v-4.1h4.6v-6.7h3.3v-10.1h1.9v-5.3h3.3v-4.8h3v-6.4Z"/>
        <path class="cls-10" d="M74.3,90.6h-22.8v6.4h1.7v4.8h1.8v5.3h1.1v10.1h2.4v6.7h2v4.1h4.8v-4.1h2.6v-6.7h1.8v-10.1h1.1v-5.3h1.8v-4.8h1.7v-6.4Z"/>
        <path class="cls-12" d="M67.3,90.6h-8.9v6.4h.7v4.8h.7v5.3h.4v10.1h.9v6.7h.8v4.1h1.8v-4.1h1v-6.7h.7v-10.1h.4v-5.3h.7v-4.8h.7v-6.4Z"/>
        <path class="cls-1" d="M47.7,104.7h-3.6v3.6h3.6v-3.6Z"/>
        <path class="cls-1" d="M52.5,122.2h-1.8v1.9h1.8v-1.9Z"/>
        <path class="cls-10" d="M48.7,111.2h-1.9v1.9h1.9v-1.9Z"/>
        <path class="cls-1" d="M78.1,108.4h3.6v-3.6h-3.6v3.6Z"/>
        <path class="cls-1" d="M73.3,124.1h1.8v-1.9h-1.8v1.9Z"/>
        <path class="cls-10" d="M77.1,113.2h1.9v-1.9h-1.9v1.9Z"/>
        <path class="cls-3" d="M18.1,28.3h-9.6v34.3h9.6V28.3Z"/>
        <path class="cls-9" d="M18.1,41.4h-9.6v21.2h9.6v-21.2Z"/>
        <path class="cls-3" d="M119.5,28.3h-9.6v34.3h9.6V28.3Z"/>
        <path class="cls-9" d="M119.5,41.4h-9.6v21.2h9.6v-21.2Z"/>
        <path class="cls-3" d="M39.2,80.5v11.4c0,0,48.9.3,48.9.3v-11.4c0,0-48.9-.3-48.9-.3Z"/>
        <path class="cls-4" d="M89.6,22.4l-51.5-.3-.4,66.8,51.5.3.4-66.8Z"/>
        <path class="cls-9" d="M89.6,22.4l-26.1-.2-.4,66.8,26.1.2.4-66.8Z"/>
        <path class="cls-2" d="M80.6,10.4l-33.3-.2-.4,62.8,33.3.2.4-62.8Z"/>
        <path class="cls-13" d="M72.5.1h-17c0-.1-.4,59.3-.4,59.3h17c0,.1.4-59.3.4-59.3Z"/>
        <path class="cls-11" d="M77.3,26.9h-3.7s0-5,0-5h-9.1s-.3,0-.3,0h-9.2c0,0,0,4.9,0,4.9h-4.8s0,9.7,0,9.7h4.8s0,5,0,5h9.1c0,0,.3,0,.3,0h9.1s0-4.9,0-4.9h3.7s0-9.7,0-9.7Z"/>
        <path class="cls-11" d="M59,44.6h9.4c0,0,0-12.7,0-12.7h-9.4c0,0,0,12.7,0,12.7Z"/>
        <path class="cls-11" d="M59.1,31.6h9.4c0,0,0-12.7,0-12.7h-9.4c0,0,0,12.7,0,12.7Z"/>
        <path class="cls-8" d="M68.8,26.3h-1.7s0-2.4,0-2.4h-4.3s-.1,0-.1,0h-4.3s0,2.3,0,2.3h-2.3s0,4.6,0,4.6h2.3s0,2.4,0,2.4h4.3s.1,0,.1,0h4.3s0-2.3,0-2.3h1.7s0-4.6,0-4.6Z"/>
        <path class="cls-5" d="M10.2,69.7h5.9s.1-17.2.1-17.2h-5.9s-.1,17.2-.1,17.2Z"/>
        <path class="cls-6" d="M14.8,71.4h7s.1-20.6.1-20.6h-7s-.1,20.6-.1,20.6Z"/>
        <path class="cls-7" d="M21.5,49.4v23.4c-.1,0,10.2,0,10.2,0v-23.4c.1,0-10.2,0-10.2,0Z"/>
        <path class="cls-5" d="M24.7,79.6h5.8s.2-36.9.2-36.9h-5.8s-.2,36.9-.2,36.9Z"/>
        <path class="cls-3" d="M29.2,83.2h6.9s.3-44.1.3-44.1h-6.9s-.3,44.1-.3,44.1Z"/>
        <path class="cls-9" d="M35.9,36.1l-.3,50.1h10.1c0,0,.3-50,.3-50h-10.1Z"/>
        <path class="cls-5" d="M117,53.1h-5.9s-.1,17.2-.1,17.2h5.9s.1-17.2.1-17.2Z"/>
        <path class="cls-6" d="M112.4,51.3h-7s-.1,20.6-.1,20.6h7s.1-20.6.1-20.6Z"/>
        <path class="cls-7" d="M95.5,49.9v23.4c-.1,0,10.2,0,10.2,0v-23.4c.1,0-10.2,0-10.2,0Z"/>
        <path class="cls-5" d="M102.6,43.1h-5.8s-.2,36.9-.2,36.9h5.8s.2-36.9.2-36.9Z"/>
        <path class="cls-3" d="M98.1,39.5h-6.9s-.3,44.1-.3,44.1h6.9s.3-44.1.3-44.1Z"/>
        <path class="cls-9" d="M81.5,36.4l-.3,50.1h10.1c0,0,.3-50,.3-50h-10.1Z"/>
      </g>
    </g>
  </g>
</svg>