<?xml version="1.0" encoding="UTF-8"?>
<svg xmlns="http://www.w3.org/2000/svg" version="1.1" viewBox="0 0 128 128">
  <defs>
    <style>
      .cls-1 {
        fill: #5d3896;
      }

      .cls-2 {
        fill: #8fe076;
      }

      .cls-3 {
        fill: #1b7500;
        fill-opacity: .5;
      }

      .cls-4 {
        fill: #42ae22;
      }

      .cls-5 {
        fill: #2e498f;
      }

      .cls-6 {
        fill: #3c3485;
      }

      .cls-7 {
        isolation: isolate;
      }

      .cls-8 {
        mix-blend-mode: multiply;
      }

      .cls-9 {
        fill: #fff;
      }

      .cls-10 {
        fill: #505ca9;
      }

      .cls-11 {
        fill: #ffe500;
      }

      .cls-12 {
        fill: #0a0a0a;
      }

      .cls-13 {
        fill: #fff8ac;
      }

      .cls-14 {
        fill: #332a74;
      }
    </style>
  </defs>
  <!-- Generator: Adobe Illustrator 28.7.1, SVG Export Plug-In . SVG Version: 1.2.0 Build 142)  -->
  <g class="cls-7">
    <g id="Capa_1">
      <g>
        <path class="cls-14" d="M124.4,49.6H3.6v8h120.9v-8Z"/>
        <path class="cls-10" d="M43.1,81.6h-12.7v3.8h-4.6v4.5h-4.2v8.5h21.5v-16.8Z"/>
        <path class="cls-1" d="M43.3,92.4H14.7v5.9h28.6v-5.9Z"/>
        <path class="cls-10" d="M86.6,81.6h12.7v3.8h4.6v4.5h4.2v8.5h-21.5v-16.8Z"/>
        <path class="cls-1" d="M114.9,92.4h-28.6v5.9h28.6v-5.9Z"/>
        <path class="cls-2" d="M46.8,109.4h-10.5v-3.2h-3.8v-3.7h-3.4v-7h17.8v13.9Z"/>
        <path class="cls-1" d="M47.1,95.6h-23.6v4.9h23.6v-4.9Z"/>
        <path class="cls-2" d="M82.8,109.4h10.5v-3.2h3.8v-3.7h3.4v-7h-17.8v13.9Z"/>
        <path class="cls-1" d="M106.2,95.6h-23.6v4.9h23.6v-4.9Z"/>
        <path class="cls-2" d="M79.1,100.3h-30.2v4.7h2.2v3.5h2.4v3.9h1.4v7.5h3.2v5h2.7v3h6.3v-3h3.4v-5h2.4v-7.5h1.4v-3.9h2.4v-3.5h2.3v-4.7Z"/>
        <path class="cls-11" d="M72.5,100.3h-16.9v4.7h1.3v3.5h1.4v3.9h.8v7.5h1.8v5h1.5v3h3.5v-3h1.9v-5h1.4v-7.5h.8v-3.9h1.4v-3.5h1.2v-4.7Z"/>
        <path class="cls-13" d="M67.3,100.3h-6.6v4.7h.5v3.5h.5v3.9h.3v7.5h.7v5h.6v3h1.4v-3h.7v-5h.5v-7.5h.3v-3.9h.5v-3.5h.5v-4.7Z"/>
        <path class="cls-2" d="M52.8,110.8h-2.7v2.7h2.7v-2.7Z"/>
        <path class="cls-2" d="M56.3,123.7h-1.4v1.4h1.4v-1.4Z"/>
        <path class="cls-11" d="M53.5,115.6h-1.4v1.4h1.4v-1.4Z"/>
        <path class="cls-2" d="M75.3,113.4h2.7v-2.7h-2.7v2.7Z"/>
        <path class="cls-2" d="M71.7,125.1h1.4v-1.4h-1.4v1.4Z"/>
        <path class="cls-11" d="M74.6,117h1.4v-1.4h-1.4v1.4Z"/>
        <path class="cls-10" d="M48.1,94.9v7.7s33.3.2,33.3.2v-7.7s-33.3-.2-33.3-.2Z"/>
        <path class="cls-1" d="M38.6,86.1v12.2c0,0,52.4.3,52.4.3v-12.2c0,0-52.4-.3-52.4-.3Z"/>
        <path class="cls-2" d="M92.6,24l-55.2-.3-.4,71.5,55.2.3.4-71.5Z"/>
        <path class="cls-3" d="M92.3,71.1l-55.2-.3v21.3c-.1,0,55.1.3,55.1.3v-21.3Z"/>
        <g class="cls-8">
          <path class="cls-3" d="M92.3,71.1l-27.2-.2v21.3c-.1,0,27,.2,27,.2v-21.3Z"/>
        </g>
        <path class="cls-2" d="M83,11.1l-35.7-.2-.4,67.2,35.7.2.4-67.2Z"/>
        <path class="cls-4" d="M74.3.1h-18.2c0-.1-.4,63.5-.4,63.5h18.2c0,.1.4-63.5.4-63.5Z"/>
        <path class="cls-12" d="M79.5,28.8h-3.9s0-5.4,0-5.4h-9.8c0,0-.3,0-.3,0h-9.8c0,0,0,5.3,0,5.3h-5.1s0,10.4,0,10.4h5.1s0,5.4,0,5.4h9.8c0,0,.3,0,.3,0h9.8c0,0,0-5.3,0-5.3h3.9s0-10.4,0-10.4Z"/>
        <path class="cls-12" d="M59.8,47.7h10.1c0,0,0-13.6,0-13.6h-10.1c0,0,0,13.6,0,13.6Z"/>
        <path class="cls-12" d="M59.9,33.8h10.1c0,0,0-13.6,0-13.6h-10.1c0,0,0,13.6,0,13.6Z"/>
        <path class="cls-9" d="M70.3,28.1h-1.9s0-2.5,0-2.5h-4.6s-.1,0-.1,0h-4.7s0,2.5,0,2.5h-2.4s0,4.9,0,4.9h2.4s0,2.6,0,2.6h4.7s.1,0,.1,0h4.6s0-2.5,0-2.5h1.9s0-4.9,0-4.9Z"/>
        <path class="cls-2" d="M20.8,43.5v-20.6h-7.3v20.6h7.3Z"/>
        <path class="cls-14" d="M20.8,43.5v-13.8h-7.3v13.8h7.3Z"/>
        <path class="cls-5" d="M23,48.3v-5.6h-11.7v5.6h11.7Z"/>
        <path class="cls-6" d="M26.3,54.5v-8.7H7.9v8.7h18.4Z"/>
        <path class="cls-2" d="M116.1,43.5v-20.6h-7.3v20.6h7.3Z"/>
        <path class="cls-14" d="M116.1,43.5v-13.8h-7.3v13.8h7.3Z"/>
        <path class="cls-5" d="M118.3,48.3v-5.6h-11.7v5.6h11.7Z"/>
        <path class="cls-6" d="M121.7,54.5v-8.7h-18.4v8.7h18.4Z"/>
      </g>
    </g>
  </g>
</svg>