<?xml version="1.0" encoding="UTF-8"?>
<svg id="Capa_1" xmlns="http://www.w3.org/2000/svg" version="1.1" viewBox="0 0 104 104">
  <!-- Generator: Adobe Illustrator 29.0.0, SVG Export Plug-In . SVG Version: 2.1.0 Build 186)  -->
  <defs>
    <style>
      .st0 {
        fill: none;
      }

      .st1 {
        fill: #9a9a9a;
      }
    </style>
  </defs>
  <path class="st1" d="M59.6,85c0,.5-.2,1.1-.6,1.5-.4.4-.9.6-1.5.6h-11c-.5,0-1.1-.2-1.5-.6-.4-.4-.6-.9-.6-1.5s.2-1.1.6-1.5c.4-.4.9-.6,1.5-.6h11c.5,0,1.1.2,1.5.6s.6.9.6,1.5ZM52,45.8c.7,0,1.3-.2,1.9-.6.6-.4,1-.9,1.3-1.5.3-.6.3-1.3.2-2-.1-.7-.5-1.3-.9-1.8-.5-.5-1.1-.8-1.8-.9-.7-.1-1.4,0-2,.2-.6.3-1.2.7-1.5,1.3-.4.6-.6,1.2-.6,1.9s.4,1.8,1,2.4c.6.6,1.5,1,2.4,1ZM84.2,61.4l-4.2,19.1c-.2.8-.5,1.5-1.1,2.1-.5.6-1.2,1.1-2,1.3-.8.3-1.6.4-2.4.2-.8-.1-1.6-.5-2.2-1l-9.6-7.2h-21.4l-9.6,7.2c-.6.5-1.4.8-2.2,1-.8.1-1.6,0-2.4-.2-.8-.3-1.5-.7-2-1.4-.5-.6-.9-1.4-1.1-2.1l-4.2-19.1c-.2-.7-.2-1.5,0-2.2.2-.7.5-1.4,1-1.9l10-11.9c.3-4.3,1.3-8.6,2.9-12.6,4.4-11,12.2-17.8,15.4-20.3.8-.7,1.9-1,2.9-1s2.1.4,2.9,1c3.2,2.4,11,9.3,15.4,20.3,1.6,4,2.6,8.3,2.9,12.6l10,11.9c.5.6.8,1.2,1,1.9.2.7.2,1.5,0,2.2ZM41.8,71.9h20.4c7.5-13.2,9-25.9,4.3-37.7-4.1-10.3-11.8-16.8-14.1-18.6-.1,0-.3-.1-.4-.1s-.3,0-.4.1c-2.3,1.7-10,8.3-14.1,18.6-4.7,11.8-3.3,24.5,4.3,37.7ZM37.9,73.5c-4.1-7.4-6.5-14.6-7.1-21.7l-6.8,8.2c0,0-.1.2-.1.3,0,.1,0,.2,0,.3l4.3,19.1c0,.1,0,.2.2.3,0,0,.2.2.3.2.1,0,.2,0,.3,0,.1,0,.2,0,.3-.1h0s8.7-6.6,8.7-6.6ZM80,59.9l-6.8-8.2c-.6,7.1-3,14.3-7.1,21.7l8.7,6.5h0c0,.1.2.2.3.2.1,0,.2,0,.3,0,.1,0,.2-.1.3-.2,0,0,.1-.2.2-.3l4.3-19.1c0-.1,0-.2,0-.3s0-.2-.1-.3h0Z"/>
  <rect class="st0" x="8" y="8" width="88" height="88"/>
</svg>