<?xml version="1.0" encoding="UTF-8"?>
<svg id="Capa_1" xmlns="http://www.w3.org/2000/svg" version="1.1" viewBox="0 0 104 104">
  <!-- Generator: Adobe Illustrator 29.0.0, SVG Export Plug-In . SVG Version: 2.1.0 Build 186)  -->
  <defs>
    <style>
      .st0 {
        fill: none;
      }

      .st1 {
        fill: #7982fd;
      }
    </style>
  </defs>
  <path class="st1" d="M74.4,23c-6.2-3.5-12.8-5.3-20.2-5.3v9.2c0,1.3-1.3,2.6-2.6,1.8-.9,0-.9-.9-.9-1.8v-9.7c-7,0-13.6,2.2-20.2,5.3.9,1.8,2.2,3.5,3.1,5.3.9,1.3,0,2.6-1.3,2.6s-1.3,0-1.8-.9c-.9-1.8-1.8-3.5-3.1-5.3-6.2,4-11,8.8-15,14.5,0,0,.4,0,.9.4,2.6,1.8,5.3,3.1,7.9,4.8.9.4,1.3,1.3.9,2.2,0,1.3-1.8,1.8-2.6.9-3.1-1.8-5.7-3.5-8.8-4.8-.4,0-.9-.4-1.3-.9-1.3-.9-1.8-1.8-.9-3.1,4.4-7,9.7-12.8,17.2-17.2,9.2-5.7,18.9-8.4,29.5-7.5,17.6,1.3,31.2,9.7,40.5,24.6.9,1.3.4,2.2-.9,3.1-3.5,2.2-7,4-10.6,6.2-.9.4-2.2,0-2.6-.4-.4-.9,0-1.8.9-2.6,2.6-1.8,5.7-3.1,8.4-4.8,0,0,.4,0,.9-.4-4-6.2-8.8-11-15-15-.9,1.3-1.3,2.6-2.2,4,0,.4-.4.9-.9,1.8-.4.9-1.8,1.3-2.6.4-.9-.4-.9-1.3-.4-2.2.9-1.8,2.2-3.5,3.1-5.3h.9Z"/>
  <path class="st1" d="M52.4,77.1c-6.6,0-11.4-6.2-9.7-12.3,2.6-10.6,5.3-20.7,7.9-31.2,0-.9.9-1.8,1.8-1.8s1.8.4,1.8,1.8c2.6,10.6,5.3,21.1,7.9,31.2,1.8,6.2-3.1,12.3-9.7,12.3ZM59,67.4c0-3.5-2.6-6.6-6.2-6.6s-6.6,2.6-6.6,6.2,2.6,6.6,6.2,6.6,6.6-2.6,6.6-6.6h0v.4ZM56.8,58.2c-1.3-5.7-3.1-11.4-4.4-17.2h0c-1.3,5.7-2.6,11.4-4.4,17.2,3.1-1.3,5.7-1.3,8.8,0h0Z"/>
  <path class="st1" d="M14.6,80.6v7h6.2v3.5h-9.2v-24.6h9.2v3.5h-6.2v7h6.2v3.5h-6.2Z"/>
  <path class="st1" d="M92.9,77.5v3.5h-6.2v10.6h-3.1v-24.6h9.2v3.5h-6.2v7s6.2,0,6.2,0Z"/>
  <rect class="st0" x="8" y="8" width="88" height="88"/>
</svg>