<?xml version="1.0" encoding="UTF-8"?>
<svg id="Capa_1" xmlns="http://www.w3.org/2000/svg" version="1.1" viewBox="0 0 104 104">
  <!-- Generator: Adobe Illustrator 29.0.0, SVG Export Plug-In . SVG Version: 2.1.0 Build 186)  -->
  <defs>
    <style>
      .st0 {
        fill: none;
      }

      .st1 {
        fill: #9a9a9a;
      }
    </style>
  </defs>
  <path class="st1" d="M76.2,27.3c-4.1-7.1-9.8-11-16-11h-16.5c-6.2,0-11.8,3.9-16,11-3.9,6.6-6,15.4-6,24.7s2.1,18.1,6,24.7c4.1,7.1,9.8,11,16,11h16.5c6.2,0,11.8-3.9,16-11,3.9-6.6,6-15.4,6-24.7s-2.1-18.1-6-24.7ZM76.7,49.2h-11c-.2-5.6-1.3-11.2-3.3-16.5h10.5c2.1,4.6,3.5,10.3,3.8,16.5ZM69.6,27.2h-9.9c-1.1-2-2.5-3.8-4.1-5.5h4.7c3.4,0,6.7,2.1,9.3,5.5ZM27.2,52c0-16.4,7.6-30.2,16.5-30.2s16.5,13.9,16.5,30.2-7.6,30.2-16.5,30.2-16.5-13.9-16.5-30.2ZM60.2,82.2h-4.6c1.6-1.7,3-3.5,4.1-5.5h9.9c-2.7,3.4-5.9,5.5-9.4,5.5ZM72.9,71.2h-10.5c2-5.3,3.1-10.9,3.3-16.5h11c-.3,6.2-1.7,11.9-3.8,16.5Z"/>
  <rect class="st0" x="8" y="8" width="88" height="88"/>
</svg>