<?xml version="1.0" encoding="UTF-8"?>
<svg id="Capa_1" data-name="Capa 1" xmlns="http://www.w3.org/2000/svg" viewBox="0 0 320 320">
  <path d="M160,30h0c49.7,0,90,40.3,90,90h0c0,49.7-40.3,90-90,90h0c-49.7,0-90-40.3-90-90h0c0-49.7,40.3-90,90-90Z" fill="none" stroke="#07f3e6" stroke-width="4"/>
  <path d="M190.4,88.3c-8.3-4.4-17-6.7-26.5-7.1v12.4c0,2-1.6,3.2-3.3,2.4-1.1-.5-1.3-1.4-1.3-2.5v-12.4c-9.4.4-18.2,2.8-26.5,7.1,1.3,2.3,2.6,4.5,3.9,6.8,1,1.7,0,3.5-1.8,3.6-1,0-1.7-.5-2.2-1.4-1.2-2.2-2.5-4.4-3.9-6.7-7.9,5-14.3,11.4-19.3,19.3.3.2.6.4,1,.6,3.5,2,7,4,10.5,6.1,1.3.7,1.7,1.7,1.4,2.8-.4,1.6-2.1,2.1-3.7,1.2-3.8-2.2-7.5-4.3-11.3-6.5-.6-.4-1.2-.7-1.9-1.1-1.7-1-2.1-2.1-1-3.9,5.6-9.4,13-17,22.2-22.7,11.9-7.3,24.9-10.8,38.8-9.8,23.2,1.7,40.9,12.7,53.1,32.5,1,1.7.7,2.8-.9,3.8-4.6,2.7-9.2,5.3-13.8,8-1.4.8-2.7.6-3.4-.6-.8-1.2-.4-2.6,1.1-3.4,3.6-2.1,7.2-4.2,10.8-6.3.4-.2.8-.5,1.3-.8-5-7.9-11.4-14.3-19.4-19.3-1,1.7-1.9,3.3-2.8,4.9-.4.7-.8,1.4-1.2,2.1-.8,1.2-2.1,1.5-3.2.8-1-.6-1.4-1.9-.8-3.1,1.3-2.3,2.6-4.6,4-7h0l.1.2Z" fill="#07f3e6"/>
  <path d="M161.7,159.7c-8.5,0-14.8-7.9-12.7-16.2,3.4-13.7,6.8-27.4,10.3-41,.3-1.4,1.2-2.1,2.3-2.2,1.2,0,2,.7,2.4,2.2,3.5,13.7,7,27.4,10.5,41.1,2.1,8.3-4.2,16.1-12.7,16.1h-.1ZM170.2,146.7c0-4.7-3.6-8.5-8.3-8.6-4.7,0-8.6,3.6-8.7,8.3-.1,4.6,3.7,8.6,8.2,8.7,4.8.1,8.7-3.6,8.8-8.4h0ZM167.4,134.8c-1.9-7.6-3.8-14.9-5.7-22.3h-.3c-1.8,7.4-3.7,14.7-5.6,22.3,3.9-1.7,7.6-1.7,11.5,0h.1Z" fill="#07f3e6"/>
  <path d="M112.2,147c.1.6.2,1.2.2,2.1s0,1.5-.2,2.1c.1.6.2,1.2.2,2.1s0,1.5-.2,2.1h8c.1.6.2,1.2.2,2.1s0,1.5-.2,2.1h-12c-.1-.6-.2-1.3-.2-2.1s0-1.5.2-2.1c-.1-.6-.2-1.3-.2-2.1s0-1.5.2-2.1c-.1-.6-.2-1.3-.2-2.1s0-1.5.2-2.1c-.1-.6-.2-1.3-.2-2.1s0-1.5.2-2.1c-.1-.6-.2-1.3-.2-2.1s0-1.5.2-2.1c-.1-.6-.2-1.3-.2-2.1s0-1.5.2-2.1c-.1-.6-.2-1.3-.2-2.1s0-1.5.2-2.1h12c.1.6.2,1.2.2,2.1s0,1.5-.2,2.1h-8c.1.6.2,1.2.2,2.1s0,1.5-.2,2.1c.1.6.2,1.2.2,2.1s0,1.5-.2,2.1h8c.1.6.2,1.2.2,2.1s0,1.5-.2,2.1h-8Z" fill="#07f3e6"/>
  <path d="M214.9,142.9c.1.6.2,1.2.2,2.1s0,1.5-.2,2.1h-8c.1.6.2,1.2.2,2.1s0,1.5-.2,2.1c.1.6.2,1.2.2,2.1s0,1.5-.2,2.1c.1.6.2,1.2.2,2.1s0,1.5-.2,2.1h-4c-.1-.6-.2-1.3-.2-2.1s0-1.5.2-2.1c-.1-.6-.2-1.3-.2-2.1s0-1.5.2-2.1c-.1-.6-.2-1.3-.2-2.1s0-1.5.2-2.1c-.1-.6-.2-1.3-.2-2.1s0-1.5.2-2.1c-.1-.6-.2-1.3-.2-2.1s0-1.5.2-2.1c-.1-.6-.2-1.3-.2-2.1s0-1.5.2-2.1c-.1-.6-.2-1.3-.2-2.1s0-1.5.2-2.1h12c.1.6.2,1.2.2,2.1s0,1.5-.2,2.1h-8c.1.6.2,1.2.2,2.1s0,1.5-.2,2.1c.1.6.2,1.2.2,2.1s0,1.5-.2,2.1h8Z" fill="#07f3e6"/>
  <path d="M19,292v-4.4h-4.4v-22.2h4.4v-4.4h17.8v4.4h-17.8v22.2h13.3v-13.3h-4.4v-4.4h8.9v17.8h-4.4v4.4h-13.3l-.1-.1ZM45.6,269.8h13.3v-4.4h-13.3v-4.4h13.3v4.4h4.4v26.7h-4.4v-17.8h-13.3v17.8h-4.4v-26.7h4.4v4.4ZM76.8,292v-26.7h-8.9v-4.4h22.2v4.4h-8.9v26.7h-4.4ZM94.6,292v-31.1h4.4v8.9h13.3v-8.9h4.4v31.1h-4.4v-17.8h-13.3v17.8h-4.4ZM121.2,292v-31.1h22.2v4.4h-17.8v4.4h8.9v4.4h-8.9v13.3h17.8v4.4h-22.2v.2ZM152.4,269.8h13.3v4.4h4.4v17.8h-4.4v-17.8h-13.3v17.8h-4.4v-31.1h17.8v4.4h4.4v4.4h-4.4v-4.4h-13.3v4.4l-.1.1ZM201.3,292v-31.1h22.2v4.4h-17.8v4.4h8.9v4.4h-8.9v17.8h-4.4v.1ZM232.4,292v-4.4h-4.4v-26.7h4.4v26.7h13.3v-26.7h4.4v26.7h-4.4v4.4h-13.3ZM254.6,292v-31.1h22.2v4.4h-17.8v4.4h8.9v4.4h-8.9v13.3h17.8v4.4h-22.2v.2ZM281.3,292v-31.1h4.4v26.7h17.8v4.4h-22.2,0Z" fill="#fff"/>
  <rect width="320" height="320" fill="none"/>
</svg>