<?xml version="1.0" encoding="UTF-8"?>
<svg id="Capa_1" data-name="Capa 1" xmlns="http://www.w3.org/2000/svg" viewBox="0 0 80 80">
  <path d="M46.32,27.37H14.74c-3.48,0-6.32,2.83-6.32,6.32v31.58c0,3.48,2.83,6.32,6.32,6.32h31.58c3.48,0,6.32-2.83,6.32-6.32v-31.58c0-3.48-2.83-6.32-6.32-6.32Z" fill="#171717"/>
  <path d="M65.26,8.42h-31.58c-1.68,0-3.28.67-4.47,1.85s-1.85,2.79-1.85,4.47v6.32h25.26c1.67,0,3.28.67,4.47,1.85,1.18,1.18,1.85,2.79,1.85,4.47v25.26h6.32c1.67,0,3.28-.67,4.47-1.85,1.18-1.18,1.85-2.79,1.85-4.47V14.74c0-1.68-.67-3.28-1.85-4.47s-2.79-1.85-4.47-1.85Z" fill="#171717"/>
  <rect width="80" height="80" fill="none"/>
</svg>