<?xml version="1.0" encoding="UTF-8"?>
<svg id="Capa_1" data-name="Capa 1" xmlns="http://www.w3.org/2000/svg" viewBox="0 0 320 320">
  <path d="M160,30h0c49.7,0,90,40.3,90,90h0c0,49.7-40.3,90-90,90h0c-49.7,0-90-40.3-90-90h0c0-49.7,40.3-90,90-90Z" fill="none" stroke="#07f3e6" stroke-width="4"/>
  <path d="M146,164c-2.3-.5-4.6-.8-6.8-1.4-2.2-.6-3.8-2-4.9-4-2.1-3.7-4.2-7.4-6.5-11-1.9-2.9-2-5.9-.9-9.1,1.4-3.9,3.8-7.3,6.6-10.4,6.6-7.4,14.5-13.2,22.9-18.2,9.2-5.5,18.9-9.9,29.3-12.4,4.4-1.1,8.9-1.8,13.6-1.2,3.9.5,7.1,2,9.1,5.7,1.8,3.5,3.9,6.9,6,10.3,1.9,2.9,1.9,6,.8,9.1-1.6,4.4-4.4,8.1-7.6,11.5-6.3,6.7-13.7,12.2-21.7,16.9-9.3,5.5-19,10.1-29.5,12.5-3.4.8-7,1.2-10.5,1.7h.1ZM208.3,107.8c-.3.7-.4,1.1-.6,1.6-1.9,4.7-5.1,8.7-8.7,12.2-12.6,12.3-27.5,21-44.3,26.6-5.5,1.8-11.1,3.1-17,3-1.5,0-3-.3-4.6-.4,1.5,2.6,3,5,4.5,7.5.2.3.5.6.9.8,2.6,1.7,5.6,1.8,8.7,1.7-.8-1.4-1.5-2.6-2.3-3.9.9-.5,1.8-1,2.6-1.5.9,1.5,1.7,2.9,2.5,4.3.4.7.8.8,1.5.7,1.9-.4,3.9-.8,5.8-1.3,1.4-.3,2.8-.8,4.2-1.2-.9-1.6-1.8-3-2.6-4.5.9-.5,1.8-1,2.6-1.5.9,1.5,1.7,2.8,2.5,4.2.3.6.7.7,1.3.4s1.2-.5,1.8-.7c2.4-1,4.9-2.1,7.4-3.2-.9-1.6-1.8-3.1-2.7-4.7.9-.5,1.8-1,2.6-1.5,1,1.6,1.9,3.1,2.8,4.8,3.2-1.8,6.2-3.5,9.4-5.3-1-1.7-1.9-3.2-2.8-4.8.9-.5,1.7-1,2.6-1.5.9,1.5,1.8,3,2.8,4.7,3-2.2,5.8-4.3,8.7-6.4-1-1.8-2-3.4-2.9-5.1.9-.5,1.8-1,2.6-1.5.9,1.5,1.7,2.9,2.8,4.7,2.5-2.7,5-5.3,7.3-7.9.2-.2,0-.7,0-.9-.8-1.5-1.7-3-2.6-4.6.9-.5,1.8-1,2.6-1.5.8,1.3,1.5,2.6,2.3,3.9,1.3-2,2.4-3.9,2.7-6.1.2-1.2.2-2.6-.3-3.7-1.2-2.5-2.7-4.8-4.2-7.3h0l.1-.1ZM138.6,148.3c4.6-.3,9.1-1.2,13.5-2.5,13.6-4.1,25.8-10.8,37-19.4,5.1-4,9.8-8.4,13.5-13.8,1.4-2,2.5-4.2,3-6.7.5-2.8-.6-4.9-3.2-5.9-1.6-.6-3.4-.9-5.1-1-4.3-.2-8.6.7-12.7,1.8-10.9,3-20.9,8-30.4,14-7.2,4.7-14,9.9-19.5,16.6-2.2,2.7-4.3,5.6-5.1,9.1-.8,3.4.5,5.8,3.9,6.7,1.7.5,3.5.6,5.3.9h0l-.2.2Z" fill="#07f3e6"/>
  <path d="M144.1,115.2c-.6.9-1,1.7-1.6,2.7-3.5-2.4-7-4.6-10.4-7-6-4.3-11.5-9.2-16-15.1-1.8-2.4-3.3-5-4.3-8.1-.5.9-1,1.6-1.4,2.4-.7,1.2-1.4,2.5-2.2,3.7-1.3,1.9-1.4,3.9-.6,6,.6,1.7,1.4,3.3,2.3,5.2.9-1.6,1.7-2.8,2.5-4.1.9.5,1.7,1,2.6,1.5-.9,1.5-1.7,2.9-2.5,4.3-.4.6-.4,1,0,1.6,2.4,2.4,4.7,4.9,7.1,7.5,1-1.7,1.8-3.1,2.7-4.6.9.5,1.7,1,2.6,1.5-1,1.7-1.9,3.3-3,5.1,3.6,2.6,7.2,5.2,10.9,7.8-.5.8-1,1.5-1.5,2.3h-.4c-7.9-5.1-15.2-10.7-21.2-17.9-2.6-3.1-4.8-6.4-5.7-10.5-.5-2.3-.2-4.5,1-6.6,2.2-3.7,4.5-7.3,6.5-11.1,1.9-3.5,5-5,8.8-5.5,5.4-.7,10.7.3,15.9,1.7,14.3,4,27.1,11,39,19.8-.6.8-1.2,1.6-1.9,2.4-.9-.7-1.8-1.3-2.7-2-10.7-7.6-22.3-13.7-35.1-17.3-4.3-1.2-8.6-2.1-13.1-1.8-1.8.1-3.6.5-5.2,1.1-2.4.9-3.3,2.9-3,5.4.4,2.4,1.4,4.5,2.8,6.5,3.5,5.4,8.1,9.8,13.1,13.7,4.1,3.1,8.4,5.8,12.6,8.7.3.2.7.4,1.1.7h.3Z" fill="#07f3e6"/>
  <path d="M150.7,110.4c-.5.9-1,1.7-1.5,2.6-.4-.2-.6-.3-.9-.5-7.9-4.5-15.6-9.4-22.2-15.7-1.6-1.6-3.1-3.3-4.5-5.1-.7-.9-1.2-2.1-1.6-3.3-.8-2.4.4-4.3,2.9-5.1,1.9-.6,3.9-.4,5.9,0,5.7,1,11,3,16.3,5.3,7.6,3.4,14.8,7.4,21.7,12,.2.1.4.3.7.5-.6.8-1.1,1.6-1.7,2.4-.6-.4-1.1-.7-1.6-1.1-8.7-5.6-17.7-10.6-27.6-14-3.1-1.1-6.3-1.7-9.5-2.4-1-.2-2,0-3,0-1.1.2-1.5.7-1,1.8.5,1.1,1.1,2.3,1.9,3.1,2.7,2.7,5.5,5.5,8.4,8,5,4.1,10.5,7.5,16.1,10.7.3.2.7.4,1.1.7h0l.1.1Z" fill="#07f3e6"/>
  <path d="M139.9,144.2c-.6-.1-1.7-.2-2.8-.6-1.9-.7-2.8-2.4-2.4-4.3.3-1.9,1.4-3.5,2.5-5,3.1-3.9,6.8-7,10.8-9.9,10.6-7.9,22.1-14.3,34.6-18.8,3.4-1.2,6.9-2.3,10.6-2.5,1.3,0,2.6,0,3.9.3,2.5.6,3.7,2.7,2.8,5.1-.6,1.6-1.5,3.2-2.6,4.6-3.2,4.1-7.2,7.3-11.3,10.3-10.5,7.7-21.8,14-34.2,18.3-3.7,1.3-7.4,2.3-11.9,2.5h0ZM140.5,141.4c3.8-.4,7.3-1.5,10.8-2.7,10.4-3.7,20-8.9,29.1-15,5-3.4,9.9-7,13.9-11.6,1-1.2,1.9-2.6,2.6-4,.6-1.1.2-1.7-1.1-1.9-.8-.1-1.6-.2-2.4,0-1.7.2-3.3.5-4.9.9-7.3,1.9-14.1,5-20.8,8.6-8.4,4.5-16.5,9.5-23.6,16-2.1,1.9-3.8,4.1-5.6,6.3-.5.7-1,2-.7,2.5.4.6,1.7.7,2.5,1.1h0l.2-.2Z" fill="#07f3e6"/>
  <path d="M27.2,292v-31.1h4.4v4.4h4.4v4.4h4.4v-4.4h4.4v-4.4h4.4v31.1h-4.4v-22.2h-4.4v4.4h-4.4v-4.4h-4.4v22.2h-4.4ZM58.3,292v-4.4h4.4v-22.2h-4.4v-4.4h13.3v4.4h-4.4v22.2h4.4v4.4h-13.3ZM80.6,292v-31.1h4.4v4.4h4.4v4.4h4.4v4.4h4.4v-13.3h4.4v31.1h-4.4v-13.3h-4.4v-4.4h-4.4v-4.4h-4.4v22.2h-4.4ZM107.2,292v-31.1h22.2v4.4h-17.8v4.4h8.9v4.4h-8.9v13.3h17.8v4.4h-22.2v.2ZM169.5,292v-26.7h-8.9v-4.4h22.2v4.4h-8.9v26.7h-4.4ZM191.7,287.6h-4.4v-22.2h4.4v-4.4h13.3v4.4h4.4v22.2h-4.4v4.4h-13.3v-4.4h13.3v-22.2h-13.3v22.2ZM214,292v-31.1h4.4v8.9h8.9v-4.4h4.4v-4.4h4.4v4.4h-4.4v4.4h-4.4v4.4h4.4v4.4h4.4v13.3h-4.4v-13.3h-4.4v-4.4h-8.9v17.8h-4.4ZM240.6,292v-31.1h22.2v4.4h-17.8v4.4h8.9v4.4h-8.9v13.3h17.8v4.4h-22.2v.2ZM267.3,292v-31.1h4.4v4.4h4.4v4.4h4.4v4.4h4.4v-13.3h4.4v31.1h-4.4v-13.3h-4.4v-4.4h-4.4v-4.4h-4.4v22.2h-4.4Z" fill="#fff"/>
  <rect width="320" height="320" fill="none"/>
</svg>