<?xml version="1.0" encoding="UTF-8"?>
<svg id="Capa_1" data-name="Capa 1" xmlns="http://www.w3.org/2000/svg" viewBox="0 0 320 320">
  <path d="M160,30h0c49.7,0,90,40.3,90,90h0c0,49.7-40.3,90-90,90h0c-49.7,0-90-40.3-90-90h0c0-49.7,40.3-90,90-90Z" fill="none" stroke="#07f3e6" stroke-width="4"/>
  <path d="M108,128c.4-1.5.7-3.1,1.2-4.6,2.8-7.6,10.2-12.8,18-12.6,8.5.2,15.5,5.5,18.1,13.4,1.4,4.4.9,8.6-.8,12.8-2.7,6.7-6.4,12.7-10.3,18.7-1.7,2.7-3.6,5.3-5.4,7.8-.9,1.3-2.2,1.3-3.2,0-5.4-7.5-10.5-15.1-14.4-23.5-1.4-2.9-2.4-5.9-3.1-9.1v-3l-.1.1ZM127.1,159.8c.5-.8,1-1.4,1.4-2,4.6-6.7,9-13.6,12.3-21.1,1.6-3.5,2.4-7.1,1.4-10.9-2.2-8.4-11.3-13.5-19.7-10.8-8,2.5-13.2,11.6-9.8,19.9,3.7,8.9,9,16.9,14.5,24.9h-.1Z" fill="#07f3e6"/>
  <path d="M130.5,168v-3.5h15.3c8.5,0,15.5-5,18.2-13,.7-2.1.9-4.5,1-6.8.2-4.3,0-8.5.1-12.8.2-6.9,5.7-13.2,12.5-14.3,1.9-.3,3.9-.3,5.8,0,3.2.4,6.4,1.2,9.6,1.8-.2,1.2-.4,2.2-.7,3.4-3-.6-5.8-1.1-8.7-1.7-6.9-1.4-13.1,2.2-14.8,8.8-.3,1.2-.3,2.4-.4,3.6,0,4.5.1,8.9-.2,13.4-.6,8.4-4.8,14.5-12.2,18.5-2.4,1.3-4.9,2-7.6,2.3-.2,0-.5.1-.7.2h-17.5l.3.1Z" fill="#07f3e6"/>
  <path d="M192.3,64c11.1,0,19.5,8.4,19.7,18.7,0,2.6-.8,5.1-1.7,7.6-2.7,6.6-6.4,12.7-10.3,18.6-1.7,2.6-3.5,5.1-5.2,7.6-1.2,1.7-2.4,1.7-3.6,0-5.4-7.5-10.4-15.1-14.4-23.5-1.3-2.8-2.5-5.6-2.8-8.7-.4-4.3.7-8.3,3.2-11.8,3.8-5.5,9.2-8.2,15.1-8.4v-.1ZM192.9,112.9s.2,0,.2-.1c5.1-7.3,10-14.7,13.6-22.9,1.2-2.8,2.1-5.7,1.7-8.9-1-7.5-7.4-13.3-15.1-13.5-7.5-.2-14.2,5.3-15.6,12.6-.7,3.5.2,6.8,1.6,9.9,3.6,8.1,8.4,15.4,13.4,22.6,0,.1.2.2.3.3h-.1Z" fill="#07f3e6"/>
  <path d="M126.9,140.2c-5.8-.1-10.3-4.8-10.2-10.5,0-5.7,4.9-10.3,10.6-10.2,5.7.1,10.3,4.9,10.2,10.7-.1,5.5-4.9,10.2-10.5,10.1h0l-.1-.1ZM127.1,136.8c3.8,0,6.9-3.1,6.9-6.9s-3.1-6.9-6.9-7c-3.8,0-7,3.1-7,7s3.1,6.9,6.9,6.9h.1Z" fill="#07f3e6"/>
  <path d="M192.9,72.7c5.7,0,10.4,4.7,10.4,10.4s-4.7,10.4-10.4,10.4-10.3-4.7-10.3-10.4,4.7-10.4,10.4-10.4h-.1ZM192.9,76.2c-3.8,0-6.9,3.1-6.9,6.9s3.1,6.9,6.9,6.9,7-3.1,6.9-7c0-3.8-3.1-6.9-6.9-6.9v.1Z" fill="#07f3e6"/>
  <path d="M107.3,292v-31.1h4.4v4.4h4.4v4.4h4.4v-4.4h4.4v-4.4h4.4v31.1h-4.4v-22.2h-4.4v4.4h-4.4v-4.4h-4.4v22.2s-4.4,0-4.4,0ZM138.4,287.6h-4.4v-22.2h4.4v-4.4h13.3v4.4h4.4v22.2h-4.4v4.4h-13.3v-4.4h13.3v-22.2h-13.3v22.2ZM169.5,292v-4.4h-4.4v-8.9h-4.4v-17.8h4.4v17.8h4.4v8.9h4.4v-8.9h4.4v-17.8h4.4v17.8h-4.4v8.9h-4.4v4.4h-4.4ZM187.3,292v-31.1h22.2v4.4h-17.8v4.4h8.9v4.4h-8.9v13.3h17.8v4.4h-22.2v.2Z" fill="#fff"/>
  <rect width="320" height="320" fill="none"/>
</svg>