<?xml version="1.0" encoding="UTF-8"?>
<svg id="Capa_1" xmlns="http://www.w3.org/2000/svg" xmlns:xlink="http://www.w3.org/1999/xlink" version="1.1" viewBox="0 0 296 100">
  <!-- Generator: Adobe Illustrator 29.0.1, SVG Export Plug-In . SVG Version: 2.1.0 Build 192)  -->
  <defs>
    <style>
      .st0 {
        fill: url(#Degradado_sin_nombre);
      }

      .st1 {
        fill: url(#Degradado_sin_nombre_7);
      }

      .st2 {
        fill: url(#Degradado_sin_nombre_6);
      }

      .st3 {
        fill: url(#Degradado_sin_nombre_5);
      }

      .st4 {
        fill: url(#Degradado_sin_nombre_8);
      }

      .st5 {
        fill: url(#Degradado_sin_nombre_4);
      }

      .st6 {
        fill: url(#Degradado_sin_nombre_9);
      }

      .st7 {
        fill: url(#Degradado_sin_nombre_3);
      }

      .st8 {
        fill: url(#Degradado_sin_nombre_2);
      }

      .st9 {
        fill: url(#Degradado_sin_nombre_10);
      }

      .st10 {
        fill: url(#Degradado_sin_nombre_11);
      }

      .st11 {
        fill: url(#Degradado_sin_nombre_12);
      }
    </style>
    <linearGradient id="Degradado_sin_nombre" data-name="Degradado sin nombre" x1="265.1" y1="63.5" x2="265.1" y2="10.1" gradientTransform="translate(0 102) scale(1 -1)" gradientUnits="userSpaceOnUse">
      <stop offset="0" stop-color="#07f3e6"/>
      <stop offset="1" stop-color="#014945"/>
    </linearGradient>
    <linearGradient id="Degradado_sin_nombre_2" data-name="Degradado sin nombre 2" x1="224.6" y1="63.5" x2="224.6" y2="10.1" gradientTransform="translate(0 102) scale(1 -1)" gradientUnits="userSpaceOnUse">
      <stop offset="0" stop-color="#07f3e6"/>
      <stop offset="1" stop-color="#014945"/>
    </linearGradient>
    <linearGradient id="Degradado_sin_nombre_3" data-name="Degradado sin nombre 3" x1="187.1" y1="63.5" x2="187.1" y2="10.1" gradientTransform="translate(0 102) scale(1 -1)" gradientUnits="userSpaceOnUse">
      <stop offset="0" stop-color="#07f3e6"/>
      <stop offset="1" stop-color="#014945"/>
    </linearGradient>
    <linearGradient id="Degradado_sin_nombre_4" data-name="Degradado sin nombre 4" x1="146.6" y1="63.5" x2="146.6" y2="10.1" gradientTransform="translate(0 102) scale(1 -1)" gradientUnits="userSpaceOnUse">
      <stop offset="0" stop-color="#07f3e6"/>
      <stop offset="1" stop-color="#014945"/>
    </linearGradient>
    <linearGradient id="Degradado_sin_nombre_5" data-name="Degradado sin nombre 5" x1="108.8" y1="63.5" x2="108.8" y2="10.1" gradientTransform="translate(0 102) scale(1 -1)" gradientUnits="userSpaceOnUse">
      <stop offset="0" stop-color="#07f3e6"/>
      <stop offset="1" stop-color="#014945"/>
    </linearGradient>
    <linearGradient id="Degradado_sin_nombre_6" data-name="Degradado sin nombre 6" x1="66.6" y1="63.5" x2="66.6" y2="10.1" gradientTransform="translate(0 102) scale(1 -1)" gradientUnits="userSpaceOnUse">
      <stop offset="0" stop-color="#07f3e6"/>
      <stop offset="1" stop-color="#014945"/>
    </linearGradient>
    <linearGradient id="Degradado_sin_nombre_7" data-name="Degradado sin nombre 7" x1="20.8" y1="65.5" x2="20.8" y2="12.1" gradientTransform="translate(0 102) scale(1 -1)" gradientUnits="userSpaceOnUse">
      <stop offset="0" stop-color="#07f3e6"/>
      <stop offset="1" stop-color="#014945"/>
    </linearGradient>
    <linearGradient id="Degradado_sin_nombre_8" data-name="Degradado sin nombre 8" x1="182.9" y1="102" x2="182.9" y2="93.9" gradientTransform="translate(0 102) scale(1 -1)" gradientUnits="userSpaceOnUse">
      <stop offset="0" stop-color="#07f3e6"/>
      <stop offset="1" stop-color="#014945"/>
    </linearGradient>
    <linearGradient id="Degradado_sin_nombre_9" data-name="Degradado sin nombre 9" x1="238.8" y1="89.8" x2="238.8" y2="83.7" gradientTransform="translate(0 102) scale(1 -1)" gradientUnits="userSpaceOnUse">
      <stop offset="0" stop-color="#07f3e6"/>
      <stop offset="1" stop-color="#014945"/>
    </linearGradient>
    <linearGradient id="Degradado_sin_nombre_10" data-name="Degradado sin nombre 10" x1="37.6" y1="85.8" x2="37.6" y2="79.7" gradientTransform="translate(0 102) scale(1 -1)" gradientUnits="userSpaceOnUse">
      <stop offset="0" stop-color="#07f3e6"/>
      <stop offset="1" stop-color="#014945"/>
    </linearGradient>
    <linearGradient id="Degradado_sin_nombre_11" data-name="Degradado sin nombre 11" x1="44.7" y1="75.6" x2="44.7" y2="71.6" gradientTransform="translate(0 102) scale(1 -1)" gradientUnits="userSpaceOnUse">
      <stop offset="0" stop-color="#07f3e6"/>
      <stop offset="1" stop-color="#014945"/>
    </linearGradient>
    <linearGradient id="Degradado_sin_nombre_12" data-name="Degradado sin nombre 12" x1="170.7" y1="93.9" x2="170.7" y2="89.8" gradientTransform="translate(0 102) scale(1 -1)" gradientUnits="userSpaceOnUse">
      <stop offset="0" stop-color="#07f3e6"/>
      <stop offset="1" stop-color="#014945"/>
    </linearGradient>
  </defs>
  <path d="M290.1,58.5h5.9v41.5h-11.8v-14h-17.8v14h-11.9v-41.5h6v-5.9h5.9v-6h17.8v6h5.9v5.9ZM284.2,64.4h-6v-5.9h-5.9v5.9h-5.9v14h17.8v-14Z"/>
  <path d="M222.9,88.1h5.9v-29.6h-5.9v-11.9h23.7v11.9h-5.9v29.6h5.9v11.9h-23.7v-11.9Z"/>
  <path d="M209.2,52.6h5.9v17.8h-5.9v11.8h5.9v17.8h-11.8v-17.8h-11.9v17.8h-11.9v-53.4h29.7v6ZM203.3,58.5h-11.9v11.9h11.9v-11.9Z"/>
  <path d="M147.9,46.6h23.7v11.9h-17.8v11h17.8v7.7h-17.8v11h17.8v11.9h-23.7v-5.9h-6v-41.5h6v-6Z"/>
  <path d="M112.9,58.5h-11.8v-11.9h35.6v11.9h-11.9v41.5h-11.9v-41.5Z"/>
  <path d="M94.6,64.4h-11.9v-5.9h-11.9v5.9h6v6h11.8v5.9h6v17.8h-6v5.9h-23.7v-5.9h-5.9v-11.9h11.8v5.9h11.9v-5.9h-5.9v-5.9h-11.9v-5.9h-5.9v-17.8h5.9v-6h23.7v6h6v11.8Z"/>
  <path d="M37.7,58.5h5.9v41.5h-11.8v-14H13.9v14H2v-41.5h6v-5.9h5.9v-6h17.8v6h5.9v5.9ZM31.7,64.4h-6v-5.9h-5.9v5.9h-5.9v14h17.8v-14Z"/>
  <path class="st0" d="M279.9,50.4h5.9v41.5h-11.8v-14h-17.8v14h-11.9v-41.5h6v-5.9h5.9v-6h17.8v6h5.9v5.9ZM274,56.3h-6v-5.9h-5.9v5.9h-5.9v14h17.8v-14Z"/>
  <path class="st8" d="M212.7,80h5.9v-29.6h-5.9v-11.9h23.7v11.9h-5.9v29.6h5.9v11.9h-23.7v-11.9Z"/>
  <path class="st7" d="M199,44.5h5.9v17.8h-5.9v11.8h5.9v17.8h-11.8v-17.8h-11.9v17.8h-11.9v-53.4h29.7v6ZM193.1,50.4h-11.9v11.9h11.9v-11.9Z"/>
  <path class="st5" d="M137.7,38.5h23.7v11.9h-17.8v11h17.8v7.7h-17.8v11h17.8v11.9h-23.7v-5.9h-6v-41.5h6v-6Z"/>
  <path class="st3" d="M102.8,50.4h-11.8v-11.9h35.6v11.9h-11.9v41.5h-11.9v-41.5Z"/>
  <path class="st2" d="M84.4,56.3h-11.9v-5.9h-11.9v5.9h6v6h11.8v5.9h6v17.8h-6v5.9h-23.7v-5.9h-5.9v-11.9h11.8v5.9h11.9v-5.9h-5.9v-5.9h-11.9v-5.9h-5.9v-17.8h5.9v-6h23.7v6h6v11.8Z"/>
  <path class="st1" d="M35.6,48.4h5.9v41.5h-11.8v-14H11.9v14H0v-41.5h6v-5.9h5.9v-6h17.8v6h5.9v5.9ZM29.7,54.3h-6v-5.9h-5.9v5.9h-5.9v14h17.8v-14Z"/>
  <rect class="st4" x="178.8" width="8.1" height="8.1"/>
  <rect class="st6" x="235.7" y="12.2" width="6.1" height="6.1"/>
  <rect class="st9" x="34.5" y="16.2" width="6.1" height="6.1"/>
  <rect class="st10" x="42.7" y="26.4" width="4.1" height="4.1"/>
  <rect class="st11" x="168.7" y="8.1" width="4.1" height="4.1"/>
</svg>