<svg width="32" height="38" viewBox="0 0 32 38" fill="none" xmlns="http://www.w3.org/2000/svg">
<path d="M28.2164 16.5082C27.8659 16.5082 27.5414 16.5732 27.2428 16.703C26.9442 16.8328 26.6845 17.008 26.4639 17.2287C26.2432 17.4494 26.0614 17.7156 25.9186 18.0271C25.7758 18.3387 25.7109 18.6633 25.7239 19.0008C25.7239 19.3513 25.7888 19.6759 25.9186 19.9744C26.0484 20.273 26.2237 20.5327 26.4444 20.7534C26.6651 20.9741 26.9312 21.1558 27.2428 21.2986C27.5543 21.4414 27.8789 21.5063 28.2164 21.4933H31.9553V31.4636H24.4776V32.7098C24.4776 33.3979 24.3478 34.0405 24.0881 34.6377C23.8285 35.2348 23.4715 35.7671 23.0171 36.2345C22.5627 36.7018 22.037 37.0588 21.4398 37.3055C20.8426 37.5521 20.1935 37.682 19.4925 37.6949C18.8044 37.6949 18.1618 37.5651 17.5647 37.3055C16.9675 37.0458 16.4352 36.6888 15.9679 36.2345C15.5005 35.7801 15.1435 35.2543 14.8968 34.6571C14.6502 34.06 14.5204 33.4109 14.5074 32.7098V31.4636H7.02972V23.9859H5.78345C5.0954 23.9859 4.45279 23.8561 3.85561 23.5964C3.25844 23.3368 2.72617 22.9798 2.25882 22.5254C1.79147 22.071 1.43446 21.5453 1.1878 20.9481C0.941142 20.3509 0.811322 19.7018 0.79834 19.0008C0.79834 18.3127 0.92816 17.6701 1.1878 17.073C1.44744 16.4758 1.80445 15.9435 2.25882 15.4762C2.71319 15.0088 3.23897 14.6518 3.83614 14.4051C4.43331 14.1585 5.08242 14.0287 5.78345 14.0157H7.02972V6.53802H14.5074V5.29175C14.5074 4.6037 14.6372 3.96109 14.8968 3.36391C15.1565 2.76674 15.5135 2.23448 15.9679 1.76712C16.4222 1.29977 16.948 0.942761 17.5452 0.696102C18.1424 0.449443 18.7915 0.319623 19.4925 0.306641C20.1805 0.306641 20.8232 0.436461 21.4203 0.696102C22.0175 0.955743 22.5498 1.31275 23.0171 1.76712C23.4845 2.22149 23.8415 2.74727 24.0881 3.34444C24.3348 3.94161 24.4646 4.59072 24.4776 5.29175V6.53802H31.9553V16.5082H28.2164ZM28.2164 23.9859C27.5284 23.9859 26.8858 23.8561 26.2886 23.5964C25.6914 23.3368 25.1592 22.9798 24.6918 22.5254C24.2244 22.071 23.8674 21.5453 23.6208 20.9481C23.3741 20.3509 23.2443 19.7018 23.2313 19.0008C23.2313 18.3127 23.3611 17.6701 23.6208 17.073C23.8804 16.4758 24.2374 15.9435 24.6918 15.4762C25.1462 15.0088 25.6719 14.6518 26.2691 14.4051C26.8663 14.1585 27.5154 14.0287 28.2164 14.0157H29.4627V9.03058H21.985V5.29175C21.985 4.94123 21.9201 4.61668 21.7903 4.31809C21.6605 4.01951 21.4852 3.75987 21.2645 3.53917C21.0438 3.31848 20.7777 3.13673 20.4661 2.99393C20.1546 2.85112 19.83 2.78621 19.4925 2.79919C19.142 2.79919 18.8174 2.8641 18.5188 2.99393C18.2203 3.12375 17.9606 3.299 17.7399 3.5197C17.5192 3.74039 17.3375 4.00653 17.1947 4.31809C17.0519 4.62966 16.987 4.95421 16.9999 5.29175V9.03058H9.52228V16.5082H5.78345C5.43293 16.5082 5.10838 16.5732 4.80979 16.703C4.51121 16.8328 4.25157 17.008 4.03087 17.2287C3.81018 17.4494 3.62843 17.7156 3.48562 18.0271C3.34282 18.3387 3.27791 18.6633 3.29089 19.0008C3.29089 19.3513 3.3558 19.6759 3.48562 19.9744C3.61544 20.273 3.7907 20.5327 4.0114 20.7534C4.23209 20.9741 4.49822 21.1558 4.80979 21.2986C5.12136 21.4414 5.44591 21.5063 5.78345 21.4933H9.52228V28.971H16.9999V32.7098C16.9999 33.0604 17.0648 33.3849 17.1947 33.6835C17.3245 33.9821 17.4997 34.2417 17.7204 34.4624C17.9411 34.6831 18.2073 34.8649 18.5188 35.0077C18.8304 35.1505 19.155 35.2154 19.4925 35.2024C19.843 35.2024 20.1676 35.1375 20.4661 35.0077C20.7647 34.8778 21.0244 34.7026 21.2451 34.4819C21.4658 34.2612 21.6475 33.9951 21.7903 33.6835C21.9331 33.3719 21.998 33.0474 21.985 32.7098V28.971H29.4627V23.9859H28.2164Z" fill="url(#paint0_linear_2268_870)"/>
<defs>
<linearGradient id="paint0_linear_2268_870" x1="16.3768" y1="0.306641" x2="16.3768" y2="37.6949" gradientUnits="userSpaceOnUse">
<stop stop-color="#07F3E6"/>
<stop offset="1" stop-color="#FFE500"/>
</linearGradient>
</defs>
</svg>
