<svg width="174" height="175" viewBox="0 0 174 175" fill="none" xmlns="http://www.w3.org/2000/svg">
<path d="M45.6799 113.255L37.0107 101.38L34.8486 103.002L35.4924 103.884L33.8814 105.093L34.5752 106.043L32.7946 107.379L33.2009 107.936L29.7839 110.5L30.709 111.767L28.4367 113.472L29.1992 114.517L27.8256 115.547L29.6319 118.022L31.0055 116.991L31.9931 118.344L34.2654 116.639L34.9654 117.598L38.3824 115.034L38.7887 115.59L40.5692 114.254L41.263 115.204L42.874 113.996L43.5178 114.878L45.6799 113.255Z" fill="#EA4325"/>
<path d="M43.7748 110.655L38.9083 103.989L36.7473 105.611L37.1097 106.107L35.4995 107.315L35.8931 107.854L34.1134 109.19L34.3383 109.498L30.9231 112.06L31.4416 112.77L29.1705 114.475L29.6015 115.065L28.2287 116.095L29.2407 117.481L30.6135 116.451L31.1633 117.204L33.4344 115.5L33.828 116.039L37.2432 113.477L37.4743 113.793L39.254 112.458L39.6413 112.988L41.2514 111.78L41.6138 112.277L43.7748 110.655Z" fill="#FFE500"/>
<path d="M42.2843 108.617L40.3926 106.026L38.2329 107.647L38.3765 107.843L36.7673 109.05L36.9171 109.256L35.1385 110.59L35.2259 110.71L31.8128 113.27L32.0126 113.544L29.7428 115.246L29.9113 115.477L28.5393 116.507L28.9326 117.045L30.3047 116.016L30.5169 116.307L32.7867 114.604L32.9428 114.818L36.356 112.257L36.4434 112.377L38.222 111.043L38.3718 111.248L39.981 110.041L40.1246 110.237L42.2843 108.617Z" fill="#FFF8AC"/>
<path d="M33.3305 106.449L32.5674 105.403L31.3371 106.327L32.1002 107.372L33.3305 106.449Z" fill="#EA4325"/>
<path d="M28.4747 112.267L28.0869 111.735L27.459 112.206L27.8468 112.738L28.4747 112.267Z" fill="#EA4325"/>
<path d="M31.3441 108.374L30.9375 107.817L30.2842 108.308L30.6907 108.865L31.3441 108.374Z" fill="#FFE500"/>
<path d="M38.6006 116.255L39.3636 117.3L40.5939 116.377L39.8308 115.331L38.6006 116.255Z" fill="#EA4325"/>
<path d="M32.2883 118.837L32.6761 119.368L33.304 118.897L32.9162 118.366L32.2883 118.837Z" fill="#EA4325"/>
<path d="M36.7754 117.196L37.182 117.753L37.8353 117.263L37.4288 116.706L36.7754 117.196Z" fill="#FFE500"/>
<path d="M45.3896 113.486L36.7205 101.611L38.8826 99.9883L39.5264 100.87L41.1289 99.6677L41.8227 100.618L43.6117 99.2756L44.018 99.8321L47.4265 97.2745L48.3515 98.5416L50.6323 96.8301L51.3949 97.8747L52.7684 96.844L54.5748 99.3184L53.2012 100.349L54.1887 101.702L51.9079 103.413L52.608 104.372L49.1995 106.93L49.6057 107.486L47.8167 108.829L48.5105 109.779L46.908 110.982L47.5517 111.864L45.3896 113.486Z" fill="#EA4325"/>
<path d="M43.4919 110.88L38.6255 104.215L40.7865 102.593L41.1488 103.089L42.7505 101.888L43.144 102.427L44.9322 101.085L45.157 101.393L48.5638 98.837L49.0823 99.5472L51.3619 97.8367L51.7929 98.4271L53.1658 97.397L54.1778 98.7832L52.805 99.8133L53.3547 100.566L51.0751 102.277L51.4686 102.816L48.0619 105.372L48.2931 105.689L46.5049 107.03L46.8923 107.561L45.2906 108.763L45.6529 109.259L43.4919 110.88Z" fill="#FFE500"/>
<path d="M42.0081 108.833L40.1164 106.242L42.2761 104.622L42.4197 104.819L44.0204 103.618L44.1702 103.823L45.9573 102.482L46.0447 102.602L49.4494 100.048L49.6492 100.322L51.9275 98.6125L52.096 98.8434L53.4681 97.8141L53.8614 98.3527L52.4894 99.382L52.7016 99.6727L50.4234 101.382L50.5794 101.596L47.1747 104.15L47.2621 104.269L45.4751 105.61L45.6249 105.815L44.0242 107.016L44.1678 107.213L42.0081 108.833Z" fill="#FFF8AC"/>
<path d="M43.7945 98.6088L43.0314 97.5635L41.8011 98.4866L42.5642 99.5319L43.7945 98.6088Z" fill="#EA4325"/>
<path d="M50.1125 96.0478L49.7247 95.5166L49.0969 95.9877L49.4847 96.519L50.1125 96.0478Z" fill="#EA4325"/>
<path d="M45.6264 97.6726L45.2198 97.1157L44.5665 97.606L44.9731 98.1629L45.6264 97.6726Z" fill="#FFE500"/>
<path d="M49.0652 108.409L49.8282 109.454L51.0585 108.531L50.2954 107.486L49.0652 108.409Z" fill="#EA4325"/>
<path d="M53.9336 102.605L54.3214 103.136L54.9493 102.665L54.5615 102.133L53.9336 102.605Z" fill="#EA4325"/>
<path d="M51.0486 106.495L51.4552 107.052L52.1085 106.562L51.702 106.005L51.0486 106.495Z" fill="#FFE500"/>
<path d="M58.562 130.902L49.8866 119.019L47.7245 120.641L48.3683 121.523L46.7573 122.732L47.4573 123.691L45.6767 125.027L46.083 125.583L42.666 128.147L43.5848 129.406L41.3125 131.111L42.0813 132.164L40.7077 133.195L42.5078 135.661L43.8814 134.63L44.8689 135.983L47.1412 134.277L47.8475 135.245L51.2645 132.681L51.6708 133.237L53.4513 131.901L54.1451 132.852L55.7561 131.643L56.3999 132.525L58.562 130.902Z" fill="#EA4325"/>
<path d="M56.6511 128.291L51.7909 121.634L49.6299 123.255L49.9922 123.752L48.3821 124.96L48.7694 125.49L46.9898 126.826L47.2209 127.142L43.8057 129.705L44.318 130.406L42.0468 132.11L42.4779 132.701L41.105 133.731L42.117 135.117L43.4899 134.087L44.0459 134.849L46.317 133.145L46.7106 133.684L50.1258 131.121L50.3507 131.429L52.1303 130.094L52.5239 130.633L54.134 129.425L54.4901 129.913L56.6511 128.291Z" fill="#FFE500"/>
<path d="M55.1598 126.255L53.2743 123.673L51.1146 125.293L51.2519 125.481L49.6428 126.688L49.7988 126.902L48.0203 128.236L48.1077 128.356L44.6945 130.917L44.8943 131.19L42.6245 132.893L42.7931 133.124L41.421 134.153L41.8143 134.692L43.1864 133.662L43.3987 133.953L45.6685 132.25L45.8245 132.464L49.2377 129.904L49.3251 130.023L51.1037 128.689L51.2535 128.894L52.8627 127.687L53.0001 127.875L55.1598 126.255Z" fill="#FFF8AC"/>
<path d="M46.211 124.093L45.4479 123.047L44.2176 123.971L44.9807 125.016L46.211 124.093Z" fill="#EA4325"/>
<path d="M41.3493 129.903L40.9615 129.372L40.3337 129.843L40.7215 130.374L41.3493 129.903Z" fill="#EA4325"/>
<path d="M44.2255 126.018L43.819 125.461L43.1656 125.952L43.5722 126.509L44.2255 126.018Z" fill="#FFE500"/>
<path d="M51.4826 133.897L52.2457 134.942L53.476 134.019L52.7129 132.974L51.4826 133.897Z" fill="#EA4325"/>
<path d="M45.1616 136.472L45.5494 137.003L46.1773 136.532L45.7895 136.001L45.1616 136.472Z" fill="#EA4325"/>
<path d="M49.6556 134.839L50.0621 135.396L50.7155 134.905L50.3089 134.348L49.6556 134.839Z" fill="#FFE500"/>
<path d="M58.2687 131.131L49.5933 119.247L51.7554 117.625L52.3992 118.507L54.0017 117.304L54.7017 118.263L56.4908 116.921L56.897 117.477L60.3055 114.92L61.2243 116.178L63.5051 114.467L64.2739 115.52L65.6475 114.489L67.4476 116.955L66.074 117.986L67.0615 119.339L64.7807 121.05L65.487 122.017L62.0785 124.575L62.4848 125.132L60.6957 126.474L61.3895 127.424L59.787 128.627L60.4308 129.509L58.2687 131.131Z" fill="#EA4325"/>
<path d="M56.3643 128.516L51.5042 121.859L53.6651 120.238L54.0275 120.734L55.6291 119.532L56.0165 120.063L57.8046 118.721L58.0357 119.038L61.4424 116.481L61.9547 117.183L64.2343 115.473L64.6654 116.063L66.0382 115.033L67.0502 116.419L65.6774 117.449L66.2334 118.211L63.9537 119.921L64.3473 120.46L60.9406 123.017L61.1655 123.325L59.3774 124.666L59.7709 125.205L58.1692 126.407L58.5253 126.895L56.3643 128.516Z" fill="#FFE500"/>
<path d="M54.8805 126.471L52.9951 123.889L55.1548 122.269L55.2921 122.457L56.8928 121.256L57.0489 121.47L58.836 120.129L58.9234 120.249L62.3281 117.695L62.5278 117.968L64.8061 116.259L64.9747 116.49L66.3467 115.461L66.7401 115.999L65.368 117.029L65.5803 117.319L63.302 119.028L63.4581 119.242L60.0534 121.796L60.1408 121.916L58.3538 123.257L58.5036 123.462L56.9029 124.663L57.0402 124.851L54.8805 126.471Z" fill="#FFF8AC"/>
<path d="M56.675 116.255L55.9119 115.21L54.6816 116.133L55.4447 117.178L56.675 116.255Z" fill="#EA4325"/>
<path d="M62.9862 113.685L62.5984 113.153L61.9705 113.624L62.3583 114.156L62.9862 113.685Z" fill="#EA4325"/>
<path d="M58.5069 115.32L58.1003 114.763L57.447 115.253L57.8536 115.81L58.5069 115.32Z" fill="#FFE500"/>
<path d="M61.943 126.049L62.7061 127.095L63.9363 126.172L63.1732 125.126L61.943 126.049Z" fill="#EA4325"/>
<path d="M66.8056 120.235L67.1934 120.767L67.8212 120.295L67.4334 119.764L66.8056 120.235Z" fill="#EA4325"/>
<path d="M63.9264 124.135L64.333 124.692L64.9863 124.202L64.5798 123.645L63.9264 124.135Z" fill="#FFE500"/>
<path d="M94.9713 30.7706L90.0381 24.0142L66.1422 41.9417L71.0754 48.6981L94.9713 30.7706Z" fill="#FFE500"/>
<path d="M85.8459 37.6152L80.9111 30.856L66.142 41.9374L71.0768 48.6966L85.8459 37.6152Z" fill="#00639F"/>
<path d="M147.293 102.4L142.359 95.6436L118.464 113.571L123.397 120.327L147.293 102.4Z" fill="#FFE500"/>
<path d="M138.167 109.245L133.233 102.485L118.463 113.567L123.398 120.326L138.167 109.245Z" fill="#00639F"/>
<path d="M134.251 126.362L63.6143 29.6436L55.8407 35.4742L126.477 132.193L134.251 126.362Z" fill="#3ABDAA"/>
<path d="M61.4792 86.5801L50.4525 94.854L55.4383 101.683L66.465 93.4095L61.4792 86.5801Z" fill="#332A74"/>
<path d="M67.8959 73.6929L59.7836 79.7798L72.3943 97.0531L80.5066 90.9662L67.8959 73.6929Z" fill="#2E498F"/>
<path d="M64.398 81.1782L59.2386 85.0493L67.2642 96.0422L72.4235 92.1711L64.398 81.1782Z" fill="#2E498F"/>
<path d="M74.8987 104.957L63.8719 113.231L68.8577 120.06L79.8845 111.786L74.8987 104.957Z" fill="#332A74"/>
<path d="M81.3156 92.0699L73.2032 98.1567L85.814 115.43L93.9263 109.343L81.3156 92.0699Z" fill="#2E498F"/>
<path d="M77.8174 99.5512L72.6581 103.422L80.6837 114.415L85.843 110.544L77.8174 99.5512Z" fill="#2E498F"/>
<path d="M135.779 78.4506L109.276 42.1475L61.5928 77.9278L88.095 114.231L135.779 78.4506Z" fill="#B3B2FF"/>
<g style="mix-blend-mode:multiply">
<path d="M135.779 78.4765L122.095 59.7334L74.4368 95.4909L88.1211 114.234L135.779 78.4765Z" fill="#B3B2FF"/>
</g>
<path d="M139.619 65.6463L122.484 42.1748L77.7049 75.7737L94.8406 99.2452L139.619 65.6463Z" fill="#B3B2FF"/>
<path d="M142.698 54.4393L133.968 42.4834L91.6225 74.2525L100.352 86.2084L142.698 54.4393Z" fill="#B3B2FF"/>
<path d="M126.199 72.3057L124.31 69.7191L127.864 67.0524L123.156 60.6031L123.025 60.4232L118.317 53.9739L114.763 56.6407L112.293 53.2576L105.329 58.4829L107.799 61.866L104.254 64.5264L108.962 70.9757L109.093 71.1555L113.801 77.6048L117.347 74.9445L119.235 77.531L126.199 72.3057Z" fill="#171717"/>
<path d="M104.184 68.9533L109.021 75.5786L118.099 68.7664L113.263 62.1411L104.184 68.9533Z" fill="#171717"/>
<path d="M113.437 62.0139L118.274 68.6392L127.352 61.8269L122.516 55.2017L113.437 62.0139Z" fill="#171717"/>
<path d="M122.244 65.9624L121.344 64.729L123.032 63.4625L120.8 60.4048L120.737 60.3192L118.499 57.253L116.811 58.5195L115.642 56.9179L112.342 59.3937L113.511 60.9954L111.823 62.2619L114.062 65.3281L114.124 65.4138L116.357 68.4714L118.044 67.2049L118.945 68.4382L122.244 65.9624Z" fill="white"/>
<path d="M60.994 48.2152L64.0166 52.355L76.326 43.1197L73.3034 38.9799L60.994 48.2152Z" fill="#76CBC8"/>
<path d="M62.1599 52.3618L65.7695 57.3057L80.4679 46.2779L76.8583 41.3341L62.1599 52.3618Z" fill="#3ABDAA"/>
<path d="M81.2569 45.2335L64.5732 57.7515L69.8699 65.0064L86.5536 52.4884L81.2569 45.2335Z" fill="#00639F"/>
<path d="M61.4365 63.6896L64.4081 67.7588L90.7363 48.009L87.7648 43.9398L61.4365 63.6896Z" fill="#76CBC8"/>
<path d="M61.2104 68.8032L64.7626 73.6675L96.2142 50.0744L92.6621 45.2102L61.2104 68.8032Z" fill="#2E498F"/>
<path d="M98.138 48.1933L62.4315 74.9795L67.6385 82.1103L103.345 55.3241L98.138 48.1933Z" fill="#B3B2FF"/>
<path d="M128.273 114.247L125.25 110.107L112.941 119.342L115.963 123.482L128.273 114.247Z" fill="#76CBC8"/>
<path d="M127.107 110.102L123.497 105.158L108.799 116.185L112.408 121.129L127.107 110.102Z" fill="#3ABDAA"/>
<path d="M119.403 97.4679L102.719 109.986L108.016 117.241L124.699 104.723L119.403 97.4679Z" fill="#00639F"/>
<path d="M127.824 98.7635L124.853 94.6943L98.5243 114.444L101.496 118.513L127.824 98.7635Z" fill="#76CBC8"/>
<path d="M128.056 93.6601L124.504 88.7959L93.0522 112.389L96.6044 117.253L128.056 93.6601Z" fill="#2E498F"/>
<path d="M121.629 80.3496L85.9221 107.136L91.1291 114.267L126.836 87.4804L121.629 80.3496Z" fill="#B3B2FF"/>
<g style="mix-blend-mode:multiply">
<path d="M121.629 80.3496L85.9221 107.136L91.1291 114.267L126.836 87.4804L121.629 80.3496Z" fill="#B3B2FF"/>
</g>
</svg>
