<svg width="222" height="219" viewBox="0 0 222 219" fill="none" xmlns="http://www.w3.org/2000/svg">
<path d="M149.174 156.871L135.64 169.365L137.97 171.823L138.975 170.895L140.711 172.726L141.794 171.726L143.712 173.75L144.346 173.165L148.028 177.049L149.472 175.716L151.92 178.299L153.111 177.2L154.591 178.762L157.411 176.158L155.931 174.597L157.472 173.174L155.024 170.591L156.117 169.582L152.436 165.698L153.07 165.112L151.151 163.088L152.235 162.088L150.499 160.257L151.504 159.329L149.174 156.871Z" fill="#EA4325"/>
<path d="M146.21 159.619L138.613 166.632L140.941 169.089L141.507 168.567L143.242 170.397L143.856 169.83L145.773 171.853L146.124 171.529L149.804 175.411L150.613 174.664L153.06 177.246L153.733 176.624L155.212 178.185L156.792 176.727L155.313 175.166L156.171 174.374L153.724 171.792L154.338 171.225L150.659 167.342L151.02 167.009L149.103 164.986L149.707 164.428L147.972 162.598L148.538 162.076L146.21 159.619Z" fill="#FFE500"/>
<path d="M143.889 161.762L140.936 164.488L143.263 166.943L143.487 166.736L145.22 168.565L145.454 168.349L147.37 170.371L147.506 170.245L151.183 174.125L151.495 173.837L153.94 176.418L154.203 176.175L155.681 177.735L156.294 177.168L154.817 175.608L155.148 175.302L152.703 172.722L152.946 172.497L149.27 168.617L149.406 168.491L147.491 166.469L147.724 166.253L145.991 164.424L146.215 164.217L143.889 161.762Z" fill="#FFF8AC"/>
<path d="M142.479 173.22L141.288 174.32L142.614 175.718L143.805 174.619L142.479 173.22Z" fill="#EA4325"/>
<path d="M150.417 178.429L149.812 178.988L150.488 179.702L151.093 179.143L150.417 178.429Z" fill="#EA4325"/>
<path d="M145.162 175.416L144.527 176.002L145.231 176.745L145.866 176.159L145.162 175.416Z" fill="#FFE500"/>
<path d="M153.923 165.247L155.114 164.147L153.789 162.749L152.597 163.849L153.923 165.247Z" fill="#EA4325"/>
<path d="M158.046 172.738L158.651 172.179L157.975 171.465L157.369 172.024L158.046 172.738Z" fill="#EA4325"/>
<path d="M155.359 167.384L155.994 166.798L155.29 166.055L154.655 166.641L155.359 167.384Z" fill="#FFE500"/>
<path d="M149.501 157.207L135.967 169.7L133.638 167.243L134.643 166.315L132.916 164.493L133.999 163.493L132.072 161.46L132.706 160.874L129.034 156.999L130.478 155.666L128.02 153.074L129.211 151.975L127.731 150.413L130.551 147.81L132.031 149.371L133.573 147.948L136.03 150.541L137.123 149.532L140.795 153.407L141.429 152.821L143.357 154.855L144.44 153.855L146.167 155.677L147.172 154.749L149.501 157.207Z" fill="#EA4325"/>
<path d="M146.53 159.943L138.933 166.957L136.605 164.5L137.171 163.978L135.445 162.157L136.059 161.59L134.133 159.557L134.484 159.233L130.814 155.361L131.623 154.613L129.167 152.022L129.84 151.401L128.361 149.84L129.941 148.382L131.42 149.942L132.278 149.15L134.734 151.742L135.349 151.174L139.019 155.047L139.38 154.714L141.306 156.747L141.911 156.188L143.636 158.009L144.202 157.487L146.53 159.943Z" fill="#FFE500"/>
<path d="M144.197 162.082L141.245 164.808L138.919 162.353L139.143 162.146L137.418 160.326L137.652 160.11L135.727 158.079L135.864 157.953L132.196 154.082L132.508 153.794L130.054 151.204L130.317 150.961L128.839 149.402L129.453 148.835L130.931 150.395L131.262 150.089L133.716 152.679L133.96 152.454L137.627 156.324L137.764 156.198L139.689 158.23L139.923 158.014L141.647 159.833L141.871 159.627L144.197 162.082Z" fill="#FFF8AC"/>
<path d="M131.215 161.329L130.023 162.429L131.349 163.827L132.54 162.728L131.215 161.329Z" fill="#EA4325"/>
<path d="M127.119 153.831L126.513 154.39L127.19 155.103L127.795 154.545L127.119 153.831Z" fill="#EA4325"/>
<path d="M129.787 159.185L129.152 159.771L129.856 160.513L130.491 159.927L129.787 159.185Z" fill="#FFE500"/>
<path d="M142.654 153.36L143.845 152.26L142.519 150.862L141.328 151.961L142.654 153.36Z" fill="#EA4325"/>
<path d="M134.731 148.134L135.336 147.575L134.66 146.861L134.055 147.42L134.731 148.134Z" fill="#EA4325"/>
<path d="M139.987 151.165L140.622 150.579L139.918 149.836L139.283 150.422L139.987 151.165Z" fill="#FFE500"/>
<path d="M169.285 138.309L155.741 150.812L158.071 153.27L159.076 152.342L160.812 154.173L161.905 153.164L163.823 155.189L164.457 154.603L168.139 158.487L169.573 157.163L172.021 159.746L173.221 158.638L174.701 160.2L177.512 157.606L176.032 156.044L177.573 154.621L175.125 152.038L176.228 151.02L172.546 147.136L173.181 146.55L171.262 144.526L172.345 143.526L170.61 141.695L171.615 140.767L169.285 138.309Z" fill="#EA4325"/>
<path d="M166.311 141.062L158.724 148.066L161.052 150.522L161.618 150L163.352 151.831L163.957 151.272L165.874 153.296L166.235 152.962L169.914 156.845L170.714 156.106L173.161 158.688L173.834 158.067L175.313 159.628L176.893 158.169L175.414 156.609L176.282 155.807L173.835 153.226L174.449 152.658L170.77 148.776L171.121 148.452L169.204 146.429L169.818 145.862L168.083 144.031L168.639 143.518L166.311 141.062Z" fill="#FFE500"/>
<path d="M163.991 143.212L161.048 145.929L163.374 148.384L163.589 148.186L165.322 150.016L165.566 149.791L167.482 151.813L167.618 151.687L171.295 155.567L171.606 155.279L174.051 157.859L174.314 157.616L175.792 159.176L176.406 158.609L174.928 157.049L175.26 156.743L172.815 154.163L173.058 153.938L169.382 150.058L169.518 149.932L167.602 147.91L167.836 147.694L166.103 145.865L166.317 145.667L163.991 143.212Z" fill="#FFF8AC"/>
<path d="M162.584 154.656L161.393 155.756L162.719 157.154L163.91 156.055L162.584 154.656Z" fill="#EA4325"/>
<path d="M170.513 159.873L169.908 160.432L170.584 161.145L171.19 160.587L170.513 159.873Z" fill="#EA4325"/>
<path d="M165.266 156.85L164.631 157.436L165.335 158.178L165.97 157.592L165.266 156.85Z" fill="#FFE500"/>
<path d="M174.027 146.685L175.219 145.585L173.893 144.187L172.702 145.287L174.027 146.685Z" fill="#EA4325"/>
<path d="M178.142 154.181L178.748 153.623L178.071 152.909L177.466 153.468L178.142 154.181Z" fill="#EA4325"/>
<path d="M175.464 148.822L176.099 148.236L175.395 147.493L174.761 148.079L175.464 148.822Z" fill="#FFE500"/>
<path d="M169.614 138.648L156.07 151.15L153.74 148.692L154.745 147.765L153.019 145.943L154.112 144.934L152.184 142.9L152.818 142.315L149.146 138.44L150.58 137.116L148.123 134.523L149.323 133.415L147.843 131.854L150.654 129.26L152.133 130.821L153.675 129.398L156.133 131.991L157.235 130.973L160.908 134.847L161.542 134.262L163.469 136.296L164.552 135.296L166.279 137.118L167.284 136.19L169.614 138.648Z" fill="#EA4325"/>
<path d="M166.633 141.394L159.046 148.399L156.718 145.942L157.284 145.42L155.558 143.599L156.163 143.041L154.236 141.008L154.597 140.675L150.927 136.803L151.727 136.064L149.271 133.473L149.944 132.852L148.465 131.291L150.044 129.833L151.523 131.393L152.391 130.592L154.847 133.183L155.462 132.616L159.132 136.489L159.483 136.165L161.41 138.197L162.024 137.63L163.749 139.451L164.305 138.938L166.633 141.394Z" fill="#FFE500"/>
<path d="M164.301 143.534L161.358 146.252L159.032 143.797L159.246 143.599L157.522 141.779L157.766 141.554L155.841 139.522L155.977 139.397L152.31 135.526L152.621 135.238L150.167 132.648L150.43 132.405L148.953 130.846L149.566 130.279L151.044 131.839L151.376 131.533L153.83 134.123L154.073 133.898L157.741 137.768L157.877 137.642L159.802 139.674L160.036 139.458L161.76 141.277L161.975 141.079L164.301 143.534Z" fill="#FFF8AC"/>
<path d="M151.331 142.767L150.14 143.867L151.465 145.265L152.656 144.166L151.331 142.767Z" fill="#EA4325"/>
<path d="M147.225 135.282L146.619 135.841L147.296 136.555L147.901 135.996L147.225 135.282Z" fill="#EA4325"/>
<path d="M149.9 140.623L149.266 141.208L149.97 141.951L150.604 141.365L149.9 140.623Z" fill="#FFE500"/>
<path d="M162.762 134.812L163.953 133.712L162.627 132.314L161.436 133.414L162.762 134.812Z" fill="#EA4325"/>
<path d="M154.829 129.59L155.435 129.031L154.758 128.317L154.153 128.876L154.829 129.59Z" fill="#EA4325"/>
<path d="M160.096 132.613L160.73 132.027L160.027 131.284L159.392 131.87L160.096 132.613Z" fill="#FFE500"/>
<path d="M39.4462 107.374L31.7461 114.483L57.4874 141.648L65.1875 134.538L39.4462 107.374Z" fill="#FFE500"/>
<path d="M49.2746 117.747L41.5713 124.858L57.4824 141.648L65.1858 134.536L49.2746 117.747Z" fill="#00639F"/>
<path d="M121.076 31.9741L113.376 39.0835L139.117 66.248L146.817 59.1386L121.076 31.9741Z" fill="#FFE500"/>
<path d="M130.905 42.3468L123.201 49.4585L139.112 66.2476L146.816 59.1359L130.905 42.3468Z" fill="#00639F"/>
<path d="M152.773 44.7628L42.5479 146.555L50.92 155.392L161.145 53.5999L152.773 44.7628Z" fill="#3ABDAA"/>
<path d="M113.708 141.046L125.588 153.581L133.372 146.396L121.492 133.861L113.708 141.046Z" fill="#332A74"/>
<path d="M96.7468 134.916L105.487 144.138L125.173 125.964L116.433 116.742L96.7468 134.916Z" fill="#2E498F"/>
<path d="M106.565 138.193L112.124 144.058L124.652 132.492L119.094 126.627L106.565 138.193Z" fill="#2E498F"/>
<path d="M134.652 121.702L146.531 134.237L154.315 127.052L142.435 114.517L134.652 121.702Z" fill="#332A74"/>
<path d="M117.69 115.572L126.43 124.794L146.116 106.62L137.376 97.3982L117.69 115.572Z" fill="#2E498F"/>
<path d="M127.503 118.849L133.062 124.714L145.59 113.148L140.032 107.283L127.503 118.849Z" fill="#2E498F"/>
<path d="M92.9269 49.7442L51.5527 87.938L102.927 142.143L144.301 103.949L92.9269 49.7442Z" fill="#B3B2FF"/>
<g style="mix-blend-mode:multiply">
<path d="M92.9596 49.7385L71.5986 69.4595L122.941 123.636L144.302 103.915L92.9596 49.7385Z" fill="#B3B2FF"/>
</g>
<path d="M76.4395 46.8022L49.6895 71.4971L97.9318 122.4L124.682 97.7051L76.4395 46.8022Z" fill="#B3B2FF"/>
<path d="M62.0535 44.5802L48.4277 57.1606L94.0436 105.298L107.669 92.7177L62.0535 44.5802Z" fill="#B3B2FF"/>
<path d="M86.6551 62.5458L83.7072 65.267L79.8782 61.227L72.528 68.0122L72.323 68.2014L64.9729 74.9866L68.8018 79.0266L64.9462 82.5859L72.4488 90.5019L76.3045 86.9426L80.1243 90.973L87.4745 84.1878L87.6795 83.9986L95.0297 77.2134L91.2098 73.1831L94.1577 70.4618L86.6551 62.5458Z" fill="#171717"/>
<path d="M85.6463 90.4225L93.197 83.4521L83.4159 73.132L75.8651 80.1023L85.6463 90.4225Z" fill="#171717"/>
<path d="M75.6824 79.9069L83.2332 72.9365L73.452 62.6163L65.9013 69.5867L75.6824 79.9069Z" fill="#171717"/>
<path d="M79.3285 68.3769L77.9229 69.6745L76.1044 67.7557L72.6196 70.9726L72.522 71.0627L69.0275 74.2886L70.846 76.2074L69.0207 77.8924L72.5755 81.6431L74.4009 79.9581L76.2194 81.8768L79.7139 78.6509L79.8115 78.5608L83.2963 75.3439L81.4777 73.4252L82.8834 72.1276L79.3285 68.3769Z" fill="white"/>
<path d="M66.033 147.151L70.751 142.795L57.4905 128.802L52.7724 133.158L66.033 147.151Z" fill="#76CBC8"/>
<path d="M71.0258 145.109L76.6602 139.907L60.826 123.198L55.1917 128.4L71.0258 145.109Z" fill="#3ABDAA"/>
<path d="M59.414 122.359L77.3877 141.325L85.6559 133.691L67.6822 114.726L59.414 122.359Z" fill="#00639F"/>
<path d="M85.2312 144.377L89.8687 140.094L61.5103 110.164L56.8728 114.447L85.2312 144.377Z" fill="#76CBC8"/>
<path d="M91.6249 143.928L97.1685 138.809L63.2916 103.055L57.7481 108.174L91.6249 143.928Z" fill="#2E498F"/>
<path d="M60.6762 100.927L99.1377 141.518L107.264 134.014L68.8029 93.4234L60.6762 100.927Z" fill="#B3B2FF"/>
<path d="M138.555 53.9439L133.837 58.2998L147.098 72.2928L151.816 67.9369L138.555 53.9439Z" fill="#76CBC8"/>
<path d="M133.565 55.9885L127.93 61.1904L143.765 77.8993L149.399 72.6974L133.565 55.9885Z" fill="#3ABDAA"/>
<path d="M118.948 67.3909L136.922 86.3564L145.19 78.7232L127.217 59.7576L118.948 67.3909Z" fill="#00639F"/>
<path d="M119.352 56.726L114.715 61.0083L143.073 90.9384L147.71 86.6561L119.352 56.726Z" fill="#76CBC8"/>
<path d="M112.965 57.1711L107.422 62.29L141.298 98.0444L146.842 92.9254L112.965 57.1711Z" fill="#2E498F"/>
<path d="M97.3239 67.0776L135.785 107.668L143.912 100.165L105.451 59.5738L97.3239 67.0776Z" fill="#B3B2FF"/>
<g style="mix-blend-mode:multiply">
<path d="M97.3239 67.0776L135.785 107.668L143.912 100.165L105.451 59.5738L97.3239 67.0776Z" fill="#B3B2FF"/>
</g>
</svg>
