<svg width="105" height="116" viewBox="0 0 105 116" fill="none" xmlns="http://www.w3.org/2000/svg">
<g clip-path="url(#clip0_2268_627)">
<path d="M72.6759 89.5936L67.3767 86.7061L64.5159 91.9561L69.815 94.8437L72.6759 89.5936Z" fill="#00A0F9"/>
<path d="M75.5418 84.3339L72.6759 89.5934L67.3767 86.7058L70.2427 81.4463L75.5133 84.3183L75.5418 84.3339Z" fill="#00A0F9"/>
<path d="M78.3741 79.0683L75.5133 84.3183L70.2427 81.4463L70.2141 81.4307L73.075 76.1807L78.3741 79.0683Z" fill="#00A0F9"/>
<path d="M61.6551 97.2062L56.3464 94.3135L53.4805 99.573L58.7891 102.466L61.6551 97.2062Z" fill="#00A0F9"/>
<path d="M64.5159 91.9558L59.2073 89.063L56.3464 94.3131L61.6551 97.2058L64.5159 91.9558Z" fill="#00A0F9"/>
<path d="M67.3768 86.7058L62.0681 83.813L59.2073 89.0631L64.5159 91.9558L67.3768 86.7058Z" fill="#2A38F7"/>
<path d="M70.2428 81.4465L67.3768 86.706L62.0681 83.8132L64.9341 78.5537L70.2142 81.4309L70.2428 81.4465Z" fill="#2A38F7"/>
<path d="M73.075 76.1809L70.2142 81.4309L64.9341 78.5537L64.9055 78.5382L67.7664 73.2881L73.075 76.1809Z" fill="#2A38F7"/>
<path d="M75.9315 70.9159L70.6323 68.0283L67.7663 73.2878L73.0655 76.1754L75.9315 70.9159Z" fill="#00A0F9"/>
<path d="M78.7923 65.6659L73.4932 62.7783L70.6323 68.0284L75.9315 70.916L78.7923 65.6659Z" fill="#00A0F9"/>
<path d="M53.4857 99.5634L48.1865 96.6758L45.3257 101.926L50.6248 104.813L53.4857 99.5634Z" fill="#00A0F9"/>
<path d="M56.3465 94.3134L51.0474 91.4258L48.1814 96.6853L53.4805 99.5729L56.3465 94.3134Z" fill="#2A38F7"/>
<path d="M59.2071 89.0634L53.908 86.1758L51.0471 91.4259L56.3463 94.3134L59.2071 89.0634Z" fill="#2A38F7"/>
<path d="M62.0682 83.8129L56.769 80.9253L53.9082 86.1754L59.2074 89.063L62.0682 83.8129Z" fill="#2A38F7"/>
<path d="M64.9342 78.5536L62.0682 83.8131L56.769 80.9255L59.635 75.666L64.9056 78.5381L64.9342 78.5536Z" fill="#2A38F7"/>
<path d="M67.7664 73.288L64.9056 78.5381L59.635 75.666L59.6064 75.6505L62.4673 70.4004L67.7664 73.288Z" fill="#2A38F7"/>
<path d="M70.6324 68.0287L65.3333 65.1411L62.4673 70.4006L67.7664 73.2882L70.6324 68.0287Z" fill="#43CEFF"/>
<path d="M73.4933 62.7782L68.1941 59.8906L65.3332 65.1407L70.6324 68.0283L73.4933 62.7782Z" fill="#43CEFF"/>
<path d="M76.3592 57.5189L71.0601 54.6313L68.1941 59.8908L73.4932 62.7784L76.3592 57.5189Z" fill="#00A0F9"/>
<path d="M87.8077 36.5092L84.9469 41.7592L79.6477 38.8717L82.5085 33.6216L87.7982 36.504L87.8077 36.5092Z" fill="#00A0F9"/>
<path d="M48.1864 96.676L42.8777 93.7832L40.0168 99.0333L45.3255 101.926L48.1864 96.676Z" fill="#00A0F9"/>
<path d="M51.0472 91.4255L45.7385 88.5327L42.8725 93.7922L48.1812 96.685L51.0472 91.4255Z" fill="#2A38F7"/>
<path d="M53.908 86.1755L48.5994 83.2827L45.7385 88.5328L51.0472 91.4256L53.908 86.1755Z" fill="#2A38F7"/>
<path d="M56.7689 80.9255L51.4602 78.0327L48.5994 83.2828L53.908 86.1756L56.7689 80.9255Z" fill="#2A38F7"/>
<path d="M59.6348 75.6662L56.7689 80.9257L51.4602 78.0329L54.3262 72.7734L59.6063 75.6507L59.6348 75.6662Z" fill="#2A38F7"/>
<path d="M62.4671 70.4003L59.6063 75.6504L54.3262 72.7731L54.3071 72.7628L57.168 67.5127L62.4671 70.4003Z" fill="#2A38F7"/>
<path d="M65.3426 65.1462L60.0339 62.2534L57.168 67.5129L62.4766 70.4057L65.3426 65.1462Z" fill="#83D9FF"/>
<path d="M68.2035 59.8962L62.8948 57.0034L60.0339 62.2535L65.3426 65.1463L68.2035 59.8962Z" fill="#43CEFF"/>
<path d="M71.0694 54.6364L65.7607 51.7437L62.8948 57.0032L68.2034 59.8959L71.0694 54.6364Z" fill="#00A0F9"/>
<path d="M79.6571 38.8767L74.3484 35.9839L71.4824 41.2434L76.7911 44.1362L79.6571 38.8767Z" fill="#00A0F9"/>
<path d="M82.5084 33.6215L79.6475 38.8715L74.3484 35.984L77.2092 30.7339L82.4989 33.6163L82.5084 33.6215Z" fill="#83D9FF"/>
<path d="M85.3597 28.3661L82.4989 33.6162L77.2092 30.7338L77.1997 30.7286L80.0605 25.4785L80.0891 25.4941L85.3597 28.3661Z" fill="#00A0F9"/>
<path d="M40.0118 99.0424L34.7126 96.1548L31.8467 101.414L37.1458 104.302L40.0118 99.0424Z" fill="#00A0F9"/>
<path d="M42.8778 93.7831L37.5786 90.8955L34.7178 96.1456L40.0169 99.0332L42.8778 93.7831Z" fill="#00A0F9"/>
<path d="M45.7386 88.5331L40.4395 85.6455L37.5735 90.905L42.8726 93.7926L45.7386 88.5331Z" fill="#2A38F7"/>
<path d="M48.5995 83.2826L43.3003 80.395L40.4395 85.6451L45.7386 88.5327L48.5995 83.2826Z" fill="#2A38F7"/>
<path d="M51.4603 78.0326L46.1611 75.145L43.3003 80.3951L48.5995 83.2827L51.4603 78.0326Z" fill="#2A38F7"/>
<path d="M54.3263 72.7733L51.4603 78.0328L46.1611 75.1452L49.0271 69.8857L54.3072 72.763L54.3263 72.7733Z" fill="#2A38F7"/>
<path d="M82.95 20.244L80.0892 25.4941L80.0607 25.4786L74.79 22.6065L77.6509 17.3564L82.95 20.244Z" fill="#3F2C13"/>
<path d="M57.168 67.5129L54.3072 72.763L49.0271 69.8857L49.0176 69.8806L48.9985 69.8702L51.8594 64.6201L57.168 67.5129Z" fill="#2A38F7"/>
<path d="M60.0245 62.2479L54.7253 59.3604L51.8594 64.6198L57.1585 67.5074L60.0245 62.2479Z" fill="#83D9FF"/>
<path d="M62.8853 56.9979L57.5862 54.1104L54.7253 59.3604L60.0245 62.248L62.8853 56.9979Z" fill="#43CEFF"/>
<path d="M65.7513 51.7387L60.4521 48.8511L57.5862 54.1106L62.8853 56.9982L65.7513 51.7387Z" fill="#00A0F9"/>
<path d="M68.6121 46.4887L63.313 43.6011L60.4521 48.8511L65.7513 51.7387L68.6121 46.4887Z" fill="#00A0F9"/>
<path d="M71.473 41.2382L66.1738 38.3506L63.313 43.6007L68.6121 46.4882L71.473 41.2382Z" fill="#00A0F9"/>
<path d="M74.339 35.9789L69.0398 33.0913L66.1738 38.3508L71.473 41.2384L74.339 35.9789Z" fill="#00A0F9"/>
<path d="M77.2093 30.7341L74.3485 35.9842L69.0398 33.0914L71.9006 27.8413L77.1998 30.7289L77.2093 30.7341Z" fill="#739293"/>
<path d="M80.0606 25.4787L77.1998 30.7288L71.9006 27.8412L71.8911 27.836L74.752 22.5859L74.771 22.5963L74.79 22.6067L80.0606 25.4787Z" fill="#739293"/>
<path d="M34.6934 96.1444L29.3943 93.2568L26.5283 98.5163L31.8275 101.404L34.6934 96.1444Z" fill="#00A0F9"/>
<path d="M37.5594 90.8851L32.2603 87.9976L29.3994 93.2476L34.6986 96.1352L37.5594 90.8851Z" fill="#2A38F7"/>
<path d="M40.4203 85.6351L35.1211 82.7476L32.2551 88.0071L37.5543 90.8946L40.4203 85.6351Z" fill="#2A38F7"/>
<path d="M43.2811 80.3847L37.9819 77.4971L35.1211 82.7471L40.4203 85.6347L43.2811 80.3847Z" fill="#2A38F7"/>
<path d="M46.1419 75.1347L40.8428 72.2471L37.9819 77.4971L43.2811 80.3847L46.1419 75.1347Z" fill="#2A38F7"/>
<path d="M49.0177 69.8806L46.1517 75.1401L40.843 72.2473L43.709 66.9878L48.9891 69.865L48.9986 69.8702L49.0177 69.8806Z" fill="#2A38F7"/>
<path d="M77.6319 17.3461L74.7711 22.5962L74.7521 22.5858L74.7425 22.5806L69.4719 19.7086L72.3328 14.4585L77.6319 17.3461Z" fill="#634B27"/>
<path d="M51.8589 64.6196L48.9981 69.8697L48.9888 69.8646L51.8496 64.6145L54.7156 59.355L57.5764 54.1049L60.4424 48.8454L63.3033 43.5954L66.1641 38.3453L69.0301 33.0858L71.8909 27.8357L71.8816 27.8306L74.7424 22.5806L74.7518 22.5856L71.8909 27.8357L71.9002 27.8408L69.0394 33.0909L66.1734 38.3504L63.3126 43.6005L60.4517 48.8505L57.5858 54.11L54.7249 59.3601L51.8589 64.6196Z" fill="#83D9FF"/>
<path d="M51.8499 64.6146L48.9891 69.8647L43.709 66.9875L43.6899 66.9771L46.5508 61.7271L51.8499 64.6146Z" fill="#2A38F7"/>
<path d="M54.7159 59.3554L49.4167 56.4678L46.5508 61.7273L51.8499 64.6149L54.7159 59.3554Z" fill="#83D9FF"/>
<path d="M57.5767 54.1054L52.2776 51.2178L49.4167 56.4679L54.7159 59.3554L57.5767 54.1054Z" fill="#83D9FF"/>
<path d="M60.4427 48.8456L55.1436 45.958L52.2776 51.2175L57.5767 54.1051L60.4427 48.8456Z" fill="#83D9FF"/>
<path d="M63.3036 43.5956L58.0044 40.708L55.1436 45.9581L60.4427 48.8457L63.3036 43.5956Z" fill="#83D9FF"/>
<path d="M66.1644 38.3456L60.8652 35.458L58.0044 40.7081L63.3036 43.5957L66.1644 38.3456Z" fill="#83D9FF"/>
<path d="M69.0304 33.0863L63.7312 30.1987L60.8652 35.4582L66.1644 38.3458L69.0304 33.0863Z" fill="#83D9FF"/>
<path d="M71.8912 27.8358L69.0304 33.0859L63.7312 30.1983L66.592 24.9482L71.8817 27.8306L71.8912 27.8358Z" fill="#739293"/>
<path d="M74.7425 22.5809L71.8817 27.831L66.592 24.9486L66.5825 24.9434L69.4434 19.6934L69.4719 19.7089L74.7425 22.5809Z" fill="#739293"/>
<path d="M29.3944 93.2567L24.0952 90.3691L21.2292 95.6286L26.5284 98.5162L29.3944 93.2567Z" fill="#00A0F9"/>
<path d="M32.2603 87.9975L26.9612 85.1099L24.1003 90.3599L29.3995 93.2475L32.2603 87.9975Z" fill="#00A0F9"/>
<path d="M35.1212 82.7475L29.822 79.8599L26.956 85.1194L32.2552 88.007L35.1212 82.7475Z" fill="#2A38F7"/>
<path d="M37.982 77.4975L32.6829 74.6099L29.822 79.8599L35.1212 82.7475L37.982 77.4975Z" fill="#2A38F7"/>
<path d="M40.8429 72.247L35.5437 69.3594L32.6829 74.6094L37.982 77.497L40.8429 72.247Z" fill="#2A38F7"/>
<path d="M43.7088 66.9877L40.8429 72.2472L35.5437 69.3596L38.4097 64.1001L43.6898 66.9773L43.7088 66.9877Z" fill="#2A38F7"/>
<path d="M72.3326 14.4589L69.4718 19.709L69.4432 19.6934L64.1726 16.8214L67.0334 11.5713L72.3326 14.4589Z" fill="#634B27"/>
<path d="M46.5506 61.7272L43.6898 66.9773L38.4096 64.1001L38.3811 64.0845L41.2419 58.8345L46.5506 61.7272Z" fill="white"/>
<path d="M49.4166 56.468L44.1079 53.5752L41.2419 58.8347L46.5506 61.7275L49.4166 56.468Z" fill="white"/>
<path d="M52.2774 51.2175L46.9688 48.3247L44.1079 53.5748L49.4166 56.4676L52.2774 51.2175Z" fill="#83D9FF"/>
<path d="M55.1434 45.9582L49.8347 43.0654L46.9687 48.3249L52.2774 51.2177L55.1434 45.9582Z" fill="#00A0F9"/>
<path d="M58.0042 40.7082L52.6956 37.8154L49.8347 43.0655L55.1434 45.9583L58.0042 40.7082Z" fill="#00A0F9"/>
<path d="M60.8651 35.4582L55.5564 32.5654L52.6956 37.8155L58.0042 40.7083L60.8651 35.4582Z" fill="#00A0F9"/>
<path d="M63.731 30.1984L58.4224 27.3057L55.5564 32.5652L60.8651 35.4579L63.731 30.1984Z" fill="#00A0F9"/>
<path d="M66.5919 24.9484L63.731 30.1985L58.4224 27.3057L61.2832 22.0557L66.5824 24.9433L66.5919 24.9484Z" fill="#739293"/>
<path d="M69.4432 19.6933L66.5824 24.9433L61.2832 22.0557L64.144 16.8057L64.1726 16.8212L69.4432 19.6933Z" fill="#739293"/>
<path d="M26.9708 85.1149L21.6621 82.2222L18.8013 87.4722L24.1099 90.365L26.9708 85.1149Z" fill="#00A0F9"/>
<path d="M29.8316 79.8649L24.5229 76.9722L21.657 82.2317L26.9656 85.1244L29.8316 79.8649Z" fill="#2A38F7"/>
<path d="M32.6925 74.6149L27.3838 71.7222L24.5229 76.9722L29.8316 79.865L32.6925 74.6149Z" fill="#2A38F7"/>
<path d="M35.5533 69.3649L30.2446 66.4722L27.3838 71.7222L32.6925 74.615L35.5533 69.3649Z" fill="#2A38F7"/>
<path d="M38.4098 64.1L35.5438 69.3595L30.2446 66.4719L33.1106 61.2124L38.3812 64.0844L38.4098 64.1Z" fill="white"/>
<path d="M41.242 58.8344L38.3812 64.0844L33.1106 61.2124L33.082 61.1969L35.9429 55.9468L41.242 58.8344Z" fill="white"/>
<path d="M44.108 53.5751L38.8088 50.6875L35.9429 55.947L41.242 58.8346L44.108 53.5751Z" fill="white"/>
<path d="M46.9688 48.3251L41.6697 45.4375L38.8088 50.6876L44.108 53.5752L46.9688 48.3251Z" fill="#83D9FF"/>
<path d="M49.8348 43.0653L44.5356 40.1777L41.6697 45.4372L46.9688 48.3248L49.8348 43.0653Z" fill="#00A0F9"/>
<path d="M58.4225 27.3056L53.1233 24.418L50.2573 29.6775L55.5565 32.5651L58.4225 27.3056Z" fill="#00A0F9"/>
<path d="M61.2833 22.0556L58.4225 27.3056L53.1233 24.418L55.9841 19.168L61.2833 22.0556Z" fill="#83D9FF"/>
<path d="M64.1441 16.8059L61.2833 22.0559L55.9841 19.1683L55.9746 19.1632L58.8354 13.9131L58.864 13.9286L64.1441 16.8059Z" fill="white"/>
<path d="M21.6524 82.2172L16.3533 79.3296L13.4924 84.5797L18.7916 87.4673L21.6524 82.2172Z" fill="#00A0F9"/>
<path d="M24.5133 76.9672L19.2141 74.0796L16.3481 79.3391L21.6473 82.2267L24.5133 76.9672Z" fill="#2A38F7"/>
<path d="M27.3741 71.7167L22.075 68.8291L19.2141 74.0792L24.5133 76.9668L27.3741 71.7167Z" fill="#2A38F7"/>
<path d="M30.235 66.4667L24.9358 63.5791L22.075 68.8292L27.3741 71.7168L30.235 66.4667Z" fill="#2A38F7"/>
<path d="M33.1104 61.2126L30.2445 66.4721L24.9358 63.5793L27.8018 58.3198L33.0819 61.197L33.1104 61.2126Z" fill="white"/>
<path d="M35.943 55.947L33.0821 61.197L27.802 58.3198L27.7734 58.3043L30.6343 53.0542L35.943 55.947Z" fill="white"/>
<path d="M38.8089 50.6872L33.5002 47.7944L30.6343 53.0539L35.9429 55.9467L38.8089 50.6872Z" fill="#83D9FF"/>
<path d="M41.6698 45.4372L36.3611 42.5444L33.5002 47.7945L38.8089 50.6873L41.6698 45.4372Z" fill="#83D9FF"/>
<path d="M44.5357 40.1779L39.2271 37.2852L36.3611 42.5447L41.6697 45.4374L44.5357 40.1779Z" fill="#00A0F9"/>
<path d="M55.9842 19.1682L53.1234 24.4182L47.8147 21.5255L50.6755 16.2754L55.9747 19.163L55.9842 19.1682Z" fill="#00A0F9"/>
<path d="M19.2237 74.0847L13.915 71.1919L11.0491 76.4514L16.3577 79.3442L19.2237 74.0847Z" fill="#00A0F9"/>
<path d="M22.0846 68.8347L16.7759 65.9419L13.915 71.192L19.2237 74.0847L22.0846 68.8347Z" fill="#00A0F9"/>
<path d="M24.9454 63.5847L19.6367 60.6919L16.7759 65.942L22.0846 68.8347L24.9454 63.5847Z" fill="#2A38F7"/>
<path d="M27.8018 58.3197L24.9359 63.5792L19.6367 60.6916L22.5027 55.4321L27.7733 58.3042L27.8018 58.3197Z" fill="#2A38F7"/>
<path d="M30.6341 53.0541L27.7733 58.3042L22.5027 55.4321L22.4741 55.4166L25.335 50.1665L30.6341 53.0541Z" fill="#2A38F7"/>
<path d="M33.5001 47.7948L28.2009 44.9072L25.335 50.1667L30.6341 53.0543L33.5001 47.7948Z" fill="#00A0F9"/>
<path d="M36.3609 42.5443L31.0618 39.6567L28.2009 44.9068L33.5001 47.7944L36.3609 42.5443Z" fill="#00A0F9"/>
<path d="M19.6368 60.6918L14.3376 57.8042L11.4768 63.0543L16.776 65.9419L19.6368 60.6918Z" fill="#00A0F9"/>
<path d="M22.5028 55.432L19.6368 60.6915L14.3376 57.8039L17.2036 52.5444L22.4742 55.4165L22.5028 55.432Z" fill="#00A0F9"/>
<path d="M25.335 50.1664L22.4742 55.4165L17.2036 52.5444L17.175 52.5289L20.0359 47.2788L25.335 50.1664Z" fill="#00A0F9"/>
</g>
<defs>
<clipPath id="clip0_2268_627">
<rect width="66.4699" height="95.7167" fill="white" transform="translate(45.7988) rotate(28.5866)"/>
</clipPath>
</defs>
</svg>
