<svg width="101" height="130" viewBox="0 0 101 130" fill="none" xmlns="http://www.w3.org/2000/svg">
<g clip-path="url(#clip0_2268_742)">
<path d="M93.9369 79.5124L86.6458 80.7622L87.884 87.9859L95.1751 86.7361L93.9369 79.5124Z" fill="#00A0F9"/>
<path d="M92.6965 72.2756L93.9369 79.5122L86.6457 80.762L85.4053 73.5254L92.6572 72.2823L92.6965 72.2756Z" fill="#00A0F9"/>
<path d="M91.419 65.0588L92.6572 72.2825L85.4053 73.5255L85.366 73.5322L84.1278 66.3086L91.419 65.0588Z" fill="#00A0F9"/>
<path d="M89.1222 95.2094L81.8179 96.4614L83.0583 103.698L90.3626 102.446L89.1222 95.2094Z" fill="#00A0F9"/>
<path d="M87.884 87.9858L80.5797 89.2378L81.8179 96.4614L89.1222 95.2094L87.884 87.9858Z" fill="#00A0F9"/>
<path d="M86.6457 80.7621L79.3414 82.0142L80.5796 89.2378L87.8839 87.9858L86.6457 80.7621Z" fill="#2A38F7"/>
<path d="M85.4054 73.5253L86.6458 80.7619L79.3415 82.014L78.1011 74.7773L85.3661 73.5321L85.4054 73.5253Z" fill="#2A38F7"/>
<path d="M84.1279 66.3085L85.3661 73.5322L78.1011 74.7775L78.0618 74.7842L76.8236 67.5605L84.1279 66.3085Z" fill="#2A38F7"/>
<path d="M82.8743 59.074L75.5831 60.3237L76.8236 67.5604L84.1148 66.3106L82.8743 59.074Z" fill="#00A0F9"/>
<path d="M81.6362 51.8503L74.345 53.1001L75.5832 60.3238L82.8744 59.074L81.6362 51.8503Z" fill="#00A0F9"/>
<path d="M83.0561 103.685L75.7649 104.935L77.0031 112.158L84.2943 110.908L83.0561 103.685Z" fill="#00A0F9"/>
<path d="M81.8179 96.4612L74.5267 97.7109L75.7672 104.948L83.0584 103.698L81.8179 96.4612Z" fill="#2A38F7"/>
<path d="M80.5796 89.2375L73.2885 90.4873L74.5267 97.711L81.8178 96.4612L80.5796 89.2375Z" fill="#2A38F7"/>
<path d="M79.3415 82.0139L72.0503 83.2637L73.2885 90.4873L80.5797 89.2375L79.3415 82.0139Z" fill="#2A38F7"/>
<path d="M78.101 74.7776L79.3414 82.0142L72.0502 83.264L70.8098 76.0273L78.0617 74.7843L78.101 74.7776Z" fill="#2A38F7"/>
<path d="M76.8235 67.5603L78.0617 74.7839L70.8098 76.027L70.7705 76.0337L69.5323 68.8101L76.8235 67.5603Z" fill="#2A38F7"/>
<path d="M75.5832 60.324L68.292 61.5737L69.5324 68.8104L76.8236 67.5606L75.5832 60.324Z" fill="#43CEFF"/>
<path d="M74.3449 53.1003L67.0537 54.3501L68.2919 61.5738L75.5831 60.324L74.3449 53.1003Z" fill="#43CEFF"/>
<path d="M73.1045 45.8635L65.8134 47.1133L67.0538 54.3499L74.345 53.1001L73.1045 45.8635Z" fill="#00A0F9"/>
<path d="M68.1495 16.9558L69.3877 24.1794L62.0965 25.4292L60.8583 18.2056L68.1364 16.958L68.1495 16.9558Z" fill="#00A0F9"/>
<path d="M75.7649 104.935L68.4606 106.187L69.6988 113.41L77.0031 112.158L75.7649 104.935Z" fill="#00A0F9"/>
<path d="M74.5267 97.7109L67.2224 98.9629L68.4628 106.2L75.7671 104.947L74.5267 97.7109Z" fill="#2A38F7"/>
<path d="M73.2885 90.4872L65.9843 91.7393L67.2225 98.9629L74.5267 97.7109L73.2885 90.4872Z" fill="#2A38F7"/>
<path d="M72.0503 83.2636L64.746 84.5156L65.9842 91.7393L73.2885 90.4873L72.0503 83.2636Z" fill="#2A38F7"/>
<path d="M70.8099 76.0273L72.0503 83.2639L64.746 84.5159L63.5056 77.2793L70.7706 76.034L70.8099 76.0273Z" fill="#2A38F7"/>
<path d="M69.5324 68.8103L70.7706 76.0339L63.5056 77.2792L63.4794 77.2837L62.2412 70.0601L69.5324 68.8103Z" fill="#2A38F7"/>
<path d="M68.305 61.5712L61.0007 62.8232L62.2412 70.0599L69.5454 68.8078L68.305 61.5712Z" fill="#83D9FF"/>
<path d="M67.0669 54.3476L59.7626 55.5996L61.0008 62.8233L68.3051 61.5712L67.0669 54.3476Z" fill="#43CEFF"/>
<path d="M65.8264 47.1113L58.5221 48.3633L59.7625 55.5999L67.0668 54.3479L65.8264 47.1113Z" fill="#00A0F9"/>
<path d="M62.1096 25.4272L54.8053 26.6792L56.0457 33.9158L63.35 32.6638L62.1096 25.4272Z" fill="#00A0F9"/>
<path d="M60.8583 18.2058L62.0965 25.4294L54.8053 26.6792L53.5671 19.4556L60.8452 18.208L60.8583 18.2058Z" fill="#83D9FF"/>
<path d="M59.607 10.9841L60.8452 18.2078L53.5671 19.4553L53.554 19.4575L52.3158 12.2339L52.3551 12.2272L59.607 10.9841Z" fill="#00A0F9"/>
<path d="M69.701 113.424L62.4098 114.673L63.6502 121.91L70.9414 120.66L69.701 113.424Z" fill="#00A0F9"/>
<path d="M68.4606 106.187L61.1694 107.437L62.4076 114.66L69.6988 113.41L68.4606 106.187Z" fill="#00A0F9"/>
<path d="M67.2223 98.9631L59.9312 100.213L61.1716 107.45L68.4628 106.2L67.2223 98.9631Z" fill="#2A38F7"/>
<path d="M65.9842 91.7395L58.693 92.9893L59.9312 100.213L67.2224 98.9631L65.9842 91.7395Z" fill="#2A38F7"/>
<path d="M64.746 84.5158L57.4548 85.7656L58.693 92.9893L65.9842 91.7395L64.746 84.5158Z" fill="#2A38F7"/>
<path d="M63.5055 77.279L64.746 84.5157L57.4548 85.7654L56.2144 78.5288L63.4794 77.2835L63.5055 77.279Z" fill="#2A38F7"/>
<path d="M51.1169 5.00364L52.3551 12.2273L52.3158 12.234L45.0639 13.4771L43.8257 6.25342L51.1169 5.00364Z" fill="#3F2C13"/>
<path d="M62.2412 70.06L63.4794 77.2836L56.2144 78.5289L56.2013 78.5312L56.1751 78.5357L54.9369 71.312L62.2412 70.06Z" fill="#2A38F7"/>
<path d="M60.9877 62.8254L53.6965 64.0752L54.937 71.3118L62.2281 70.062L60.9877 62.8254Z" fill="#83D9FF"/>
<path d="M59.7494 55.6018L52.4583 56.8516L53.6965 64.0752L60.9876 62.8254L59.7494 55.6018Z" fill="#43CEFF"/>
<path d="M58.5091 48.3655L51.2179 49.6152L52.4583 56.8519L59.7495 55.6021L58.5091 48.3655Z" fill="#00A0F9"/>
<path d="M57.2708 41.1418L49.9796 42.3916L51.2178 49.6153L58.509 48.3655L57.2708 41.1418Z" fill="#00A0F9"/>
<path d="M56.0326 33.9182L48.7415 35.168L49.9797 42.3916L57.2708 41.1418L56.0326 33.9182Z" fill="#00A0F9"/>
<path d="M54.7922 26.6814L47.501 27.9312L48.7414 35.1678L56.0326 33.918L54.7922 26.6814Z" fill="#00A0F9"/>
<path d="M53.5671 19.4555L54.8053 26.6792L47.501 27.9312L46.2628 20.7075L53.554 19.4577L53.5671 19.4555Z" fill="#739293"/>
<path d="M52.3159 12.2343L53.5541 19.458L46.2629 20.7077L46.2498 20.71L45.0116 13.4863L45.0378 13.4818L45.064 13.4774L52.3159 12.2343Z" fill="#739293"/>
<path d="M62.3836 114.677L55.0924 115.927L56.3328 123.164L63.624 121.914L62.3836 114.677Z" fill="#00A0F9"/>
<path d="M61.1432 107.441L53.8521 108.691L55.0903 115.915L62.3814 114.665L61.1432 107.441Z" fill="#2A38F7"/>
<path d="M59.905 100.218L52.6138 101.467L53.8542 108.704L61.1454 107.454L59.905 100.218Z" fill="#2A38F7"/>
<path d="M58.6668 92.9939L51.3756 94.2437L52.6138 101.467L59.905 100.218L58.6668 92.9939Z" fill="#2A38F7"/>
<path d="M57.4286 85.7702L50.1375 87.02L51.3757 94.2437L58.6668 92.9939L57.4286 85.7702Z" fill="#2A38F7"/>
<path d="M56.2013 78.5312L57.4417 85.7678L50.1374 87.0198L48.897 79.7832L56.162 78.5379L56.1751 78.5357L56.2013 78.5312Z" fill="#2A38F7"/>
<path d="M43.7995 6.25804L45.0377 13.4817L45.0115 13.4862L44.9984 13.4884L37.7465 14.7315L36.5083 7.50781L43.7995 6.25804Z" fill="#634B27"/>
<path d="M54.9363 71.312L56.1745 78.5357L56.1617 78.5379L54.9235 71.3142L53.6831 64.0776L52.4449 56.8539L51.2045 49.6173L49.9663 42.3937L48.7281 35.17L47.4876 27.9334L46.2494 20.7097L46.2366 20.7119L44.9984 13.4883L45.0112 13.4861L46.2494 20.7097L46.2623 20.7075L47.5005 27.9312L48.7409 35.1678L49.9791 42.3915L51.2173 49.6151L52.4577 56.8517L53.6959 64.0754L54.9363 71.312Z" fill="#83D9FF"/>
<path d="M54.9238 71.3142L56.162 78.5378L48.8969 79.7831L48.8708 79.7876L47.6326 72.564L54.9238 71.3142Z" fill="#2A38F7"/>
<path d="M53.6834 64.0779L46.3922 65.3276L47.6326 72.5643L54.9238 71.3145L53.6834 64.0779Z" fill="#83D9FF"/>
<path d="M52.4452 56.8542L45.1541 58.104L46.3923 65.3277L53.6834 64.0779L52.4452 56.8542Z" fill="#83D9FF"/>
<path d="M51.2048 49.6174L43.9136 50.8672L45.154 58.1038L52.4452 56.854L51.2048 49.6174Z" fill="#83D9FF"/>
<path d="M49.9666 42.3938L42.6754 43.6436L43.9136 50.8672L51.2048 49.6174L49.9666 42.3938Z" fill="#83D9FF"/>
<path d="M48.7283 35.1701L41.4371 36.4199L42.6753 43.6436L49.9665 42.3938L48.7283 35.1701Z" fill="#83D9FF"/>
<path d="M47.488 27.9333L40.1968 29.1831L41.4372 36.4197L48.7284 35.17L47.488 27.9333Z" fill="#83D9FF"/>
<path d="M46.2497 20.7097L47.4879 27.9333L40.1967 29.1831L38.9585 21.9595L46.2366 20.7119L46.2497 20.7097Z" fill="#739293"/>
<path d="M44.9985 13.4885L46.2367 20.7122L38.9586 21.9597L38.9455 21.9619L37.7073 14.7383L37.7465 14.7316L44.9985 13.4885Z" fill="#739293"/>
<path d="M55.0925 115.927L47.8013 117.177L49.0417 124.414L56.3329 123.164L55.0925 115.927Z" fill="#00A0F9"/>
<path d="M53.852 108.691L46.5608 109.94L47.799 117.164L55.0902 115.914L53.852 108.691Z" fill="#00A0F9"/>
<path d="M52.6138 101.467L45.3226 102.717L46.5631 109.953L53.8542 108.704L52.6138 101.467Z" fill="#2A38F7"/>
<path d="M51.3757 94.2434L44.0845 95.4932L45.3227 102.717L52.6139 101.467L51.3757 94.2434Z" fill="#2A38F7"/>
<path d="M50.1374 87.0198L42.8462 88.2695L44.0844 95.4932L51.3756 94.2434L50.1374 87.0198Z" fill="#2A38F7"/>
<path d="M48.897 79.7834L50.1375 87.0201L42.8463 88.2698L41.6058 81.0332L48.8708 79.7879L48.897 79.7834Z" fill="#2A38F7"/>
<path d="M36.5084 7.50755L37.7466 14.7312L37.7073 14.7379L30.4554 15.981L29.2172 8.75732L36.5084 7.50755Z" fill="#634B27"/>
<path d="M47.6327 72.5639L48.8709 79.7876L41.6058 81.0328L41.5666 81.0396L40.3284 73.8159L47.6327 72.5639Z" fill="white"/>
<path d="M46.3922 65.3276L39.0879 66.5796L40.3283 73.8162L47.6326 72.5642L46.3922 65.3276Z" fill="white"/>
<path d="M45.154 58.1039L37.8497 59.356L39.0879 66.5796L46.3922 65.3276L45.154 58.1039Z" fill="#83D9FF"/>
<path d="M43.9135 50.8671L36.6093 52.1191L37.8497 59.3558L45.154 58.1037L43.9135 50.8671Z" fill="#00A0F9"/>
<path d="M42.6754 43.6435L35.3711 44.8955L36.6093 52.1192L43.9136 50.8671L42.6754 43.6435Z" fill="#00A0F9"/>
<path d="M41.4372 36.4199L34.1329 37.6719L35.3711 44.8955L42.6754 43.6435L41.4372 36.4199Z" fill="#00A0F9"/>
<path d="M40.1967 29.183L32.8925 30.4351L34.1329 37.6717L41.4372 36.4197L40.1967 29.183Z" fill="#00A0F9"/>
<path d="M38.9586 21.9594L40.1968 29.1831L32.8925 30.4351L31.6543 23.2114L38.9455 21.9616L38.9586 21.9594Z" fill="#739293"/>
<path d="M37.7072 14.738L38.9454 21.9617L31.6542 23.2114L30.416 15.9878L30.4553 15.9811L37.7072 14.738Z" fill="#739293"/>
<path d="M46.5739 109.938L39.2697 111.19L40.5079 118.414L47.8121 117.162L46.5739 109.938Z" fill="#00A0F9"/>
<path d="M45.3358 102.715L38.0315 103.967L39.2719 111.203L46.5762 109.951L45.3358 102.715Z" fill="#2A38F7"/>
<path d="M44.0975 95.4911L36.7932 96.7432L38.0314 103.967L45.3357 102.715L44.0975 95.4911Z" fill="#2A38F7"/>
<path d="M42.8593 88.2675L35.5551 89.5195L36.7933 96.7432L44.0975 95.4912L42.8593 88.2675Z" fill="#2A38F7"/>
<path d="M41.6058 81.0329L42.8462 88.2696L35.555 89.5193L34.3146 82.2827L41.5665 81.0397L41.6058 81.0329Z" fill="white"/>
<path d="M40.3283 73.8161L41.5665 81.0398L34.3146 82.2828L34.2753 82.2896L33.0371 75.0659L40.3283 73.8161Z" fill="white"/>
<path d="M39.0879 66.5793L31.7968 67.8291L33.0372 75.0657L40.3284 73.8159L39.0879 66.5793Z" fill="white"/>
<path d="M37.8497 59.3557L30.5585 60.6055L31.7967 67.8291L39.0879 66.5793L37.8497 59.3557Z" fill="#83D9FF"/>
<path d="M36.6093 52.1194L29.3181 53.3691L30.5585 60.6058L37.8497 59.356L36.6093 52.1194Z" fill="#00A0F9"/>
<path d="M32.8925 30.4353L25.6013 31.6851L26.8417 38.9217L34.1329 37.6719L32.8925 30.4353Z" fill="#00A0F9"/>
<path d="M31.6542 23.2116L32.8924 30.4353L25.6012 31.6851L24.363 24.4614L31.6542 23.2116Z" fill="#83D9FF"/>
<path d="M30.4161 15.9877L31.6543 23.2114L24.3631 24.4612L24.35 24.4634L23.1118 17.2397L23.1511 17.233L30.4161 15.9877Z" fill="white"/>
<path d="M39.2565 111.193L31.9653 112.442L33.2035 119.666L40.4947 118.416L39.2565 111.193Z" fill="#00A0F9"/>
<path d="M38.0184 103.969L30.7272 105.219L31.9676 112.455L39.2588 111.206L38.0184 103.969Z" fill="#2A38F7"/>
<path d="M36.7802 96.7453L29.489 97.9951L30.7272 105.219L38.0184 103.969L36.7802 96.7453Z" fill="#2A38F7"/>
<path d="M35.5419 89.5217L28.2507 90.7715L29.4889 97.9951L36.7801 96.7454L35.5419 89.5217Z" fill="#2A38F7"/>
<path d="M34.3147 82.2826L35.5551 89.5193L28.2508 90.7713L27.0104 83.5347L34.2754 82.2894L34.3147 82.2826Z" fill="white"/>
<path d="M33.0372 75.0659L34.2754 82.2895L27.0104 83.5348L26.9711 83.5415L25.7329 76.3179L33.0372 75.0659Z" fill="white"/>
<path d="M31.7967 67.829L24.4924 69.0811L25.7329 76.3177L33.0371 75.0657L31.7967 67.829Z" fill="#83D9FF"/>
<path d="M30.5586 60.6054L23.2543 61.8574L24.4925 69.0811L31.7968 67.8291L30.5586 60.6054Z" fill="#83D9FF"/>
<path d="M29.3181 53.3691L22.0138 54.6211L23.2542 61.8577L30.5585 60.6057L29.3181 53.3691Z" fill="#00A0F9"/>
<path d="M24.3631 24.4614L25.6013 31.685L18.297 32.937L17.0588 25.7134L24.35 24.4636L24.3631 24.4614Z" fill="#00A0F9"/>
<path d="M30.7402 105.216L23.4359 106.468L24.6763 113.705L31.9806 112.453L30.7402 105.216Z" fill="#00A0F9"/>
<path d="M29.502 97.9926L22.1978 99.2446L23.436 106.468L30.7402 105.216L29.502 97.9926Z" fill="#00A0F9"/>
<path d="M28.2639 90.769L20.9596 92.021L22.1978 99.2446L29.5021 97.9926L28.2639 90.769Z" fill="#2A38F7"/>
<path d="M27.0103 83.5349L28.2507 90.7715L20.9595 92.0213L19.7191 84.7847L26.971 83.5416L27.0103 83.5349Z" fill="#2A38F7"/>
<path d="M25.7328 76.3181L26.971 83.5417L19.7191 84.7848L19.6799 84.7915L18.4417 77.5679L25.7328 76.3181Z" fill="#2A38F7"/>
<path d="M24.4925 69.0813L17.2013 70.3311L18.4417 77.5677L25.7329 76.3179L24.4925 69.0813Z" fill="#00A0F9"/>
<path d="M23.2542 61.8576L15.963 63.1074L17.2012 70.3311L24.4924 69.0813L23.2542 61.8576Z" fill="#00A0F9"/>
<path d="M20.9595 92.0212L13.6683 93.271L14.9065 100.495L22.1977 99.2449L20.9595 92.0212Z" fill="#00A0F9"/>
<path d="M19.7192 84.7844L20.9596 92.021L13.6684 93.2708L12.428 86.0342L19.6799 84.7911L19.7192 84.7844Z" fill="#00A0F9"/>
<path d="M18.4417 77.5676L19.6799 84.7913L12.428 86.0343L12.3887 86.041L11.1505 78.8174L18.4417 77.5676Z" fill="#00A0F9"/>
</g>
<defs>
<clipPath id="clip0_2268_742">
<rect width="81.4791" height="117.33" fill="white" transform="translate(0 13.7656) rotate(-9.7265)"/>
</clipPath>
</defs>
</svg>
