<svg xmlns="http://www.w3.org/2000/svg" width="146" height="50" fill="none" viewBox="0 0 146 50">
  <path fill="#000" d="M142.755 28.856h2.912v20.448h-5.824v-6.88h-8.768v6.88h-5.856V28.856h2.944v-2.912h2.912V23h8.768v2.944h2.912v2.912Zm-2.912 2.912h-2.944v-2.912h-2.912v2.912h-2.912v6.88h8.768v-6.88ZM109.688 43.448h2.912V28.856h-2.912V23h11.68v5.856h-2.912v14.592h2.912v5.856h-11.68v-5.856ZM102.937 25.944h2.912v8.768h-2.912v5.824h2.912v8.768h-5.824v-8.768h-5.857v8.768h-5.856V23h14.625v2.944Zm-2.912 2.912h-5.857v5.856h5.857v-5.856ZM72.788 23h11.68v5.856H75.7v5.408h8.768v3.776H75.7v5.408h8.768v5.856h-11.68v-2.912h-2.944V25.944h2.944V23ZM55.574 28.856H49.75V23h17.536v5.856H61.43v20.448h-5.856V28.856ZM46.536 31.768H40.68v-2.912h-5.856v2.912h2.944v2.944h5.824v2.912h2.944v8.768h-2.944v2.912h-11.68v-2.912H29v-5.856h5.824v2.912h5.856v-2.912h-2.912v-2.912h-5.856v-2.912H29v-8.768h2.912V23h11.68v2.944h2.944v5.824ZM18.536 28.856h2.912v20.448h-5.824v-6.88H6.856v6.88H1V28.856h2.944v-2.912h2.912V23h8.768v2.944h2.912v2.912Zm-2.912 2.912H12.68v-2.912H9.768v2.912H6.856v6.88h8.768v-6.88Z"/>
  <path fill="#07F3E6" d="M137.755 24.856h2.912v20.448h-5.824v-6.88h-8.768v6.88h-5.856V24.856h2.944v-2.912h2.912V19h8.768v2.944h2.912v2.912Zm-2.912 2.912h-2.944v-2.912h-2.912v2.912h-2.912v6.88h8.768v-6.88ZM104.688 39.448h2.912V24.856h-2.912V19h11.68v5.856h-2.912v14.592h2.912v5.856h-11.68v-5.856ZM97.936 21.944h2.913v8.768h-2.913v5.824h2.913v8.768h-5.825v-8.768h-5.856v8.768h-5.856V19h14.624v2.944Zm-2.912 2.912h-5.856v5.856h5.856v-5.856ZM67.788 19h11.68v5.856H70.7v5.408h8.768v3.776H70.7v5.408h8.768v5.856h-11.68v-2.912h-2.944V21.944h2.944V19ZM50.574 24.856H44.75V19h17.536v5.856H56.43v20.448h-5.856V24.856ZM41.536 27.768H35.68v-2.912h-5.856v2.912h2.944v2.944h5.824v2.912h2.944v8.768h-2.944v2.912h-11.68v-2.912H24v-5.856h5.824v2.912h5.856v-2.912h-2.912v-2.912h-5.856v-2.912H24v-8.768h2.912V19h11.68v2.944h2.944v5.824ZM17.536 23.856h2.912v20.448h-5.824v-6.88H5.856v6.88H0V23.856h2.944v-2.912h2.912V18h8.768v2.944h2.912v2.912Zm-2.912 2.912H11.68v-2.912H8.768v2.912H5.856v6.88h8.768v-6.88ZM88 0h4v4h-4zM116 6h3v3h-3zM17 8h3v3h-3zM21 13h2v2h-2zM83 4h2v2h-2z"/>
</svg>