<svg width="167" height="50" viewBox="0 0 167 50" fill="none" xmlns="http://www.w3.org/2000/svg">
<path d="M142.755 29.356H145.667V49.804H139.843V42.924H131.075V49.804H125.219V29.356H128.163V26.444H131.075V23.5H139.843V26.444H142.755V29.356ZM139.843 32.268H136.899V29.356H133.987V32.268H131.075V39.148H139.843V32.268Z" fill="black"/>
<path d="M109.688 43.948H112.6V29.356H109.688V23.5H121.368V29.356H118.456V43.948H121.368V49.804H109.688V43.948Z" fill="black"/>
<path d="M102.937 26.444H105.849V35.212H102.937V41.036H105.849V49.804H100.025V41.036H94.1685V49.804H88.3125V23.5H102.937V26.444ZM100.025 29.356H94.1685V35.212H100.025V29.356Z" fill="black"/>
<path d="M72.7878 23.5H84.4678V29.356H75.6998V34.764H84.4678V38.54H75.6998V43.948H84.4678V49.804H72.7878V46.892H69.8438V26.444H72.7878V23.5Z" fill="black"/>
<path d="M55.574 29.356H49.75V23.5H67.286V29.356H61.43V49.804H55.574V29.356Z" fill="black"/>
<path d="M46.536 32.268H40.68V29.356H34.824V32.268H37.768V35.212H43.592V38.124H46.536V46.892H43.592V49.804H31.912V46.892H29V41.036H34.824V43.948H40.68V41.036H37.768V38.124H31.912V35.212H29V26.444H31.912V23.5H43.592V26.444H46.536V32.268Z" fill="black"/>
<path d="M18.536 29.356H21.448V49.804H15.624V42.924H6.856V49.804H1V29.356H3.944V26.444H6.856V23.5H15.624V26.444H18.536V29.356ZM15.624 32.268H12.68V29.356H9.768V32.268H6.856V39.148H15.624V32.268Z" fill="black"/>
<path d="M137.755 25.356H140.667V45.804H134.843V38.924H126.075V45.804H120.219V25.356H123.163V22.444H126.075V19.5H134.843V22.444H137.755V25.356ZM134.843 28.268H131.899V25.356H128.987V28.268H126.075V35.148H134.843V28.268Z" fill="#07F3E6"/>
<path d="M104.688 39.948H107.6V25.356H104.688V19.5H116.368V25.356H113.456V39.948H116.368V45.804H104.688V39.948Z" fill="#07F3E6"/>
<path d="M97.9365 22.444H100.849V31.212H97.9365V37.036H100.849V45.804H95.0245V37.036H89.1685V45.804H83.3125V19.5H97.9365V22.444ZM95.0245 25.356H89.1685V31.212H95.0245V25.356Z" fill="#07F3E6"/>
<path d="M67.7878 19.5H79.4678V25.356H70.6998V30.764H79.4678V34.54H70.6998V39.948H79.4678V45.804H67.7878V42.892H64.8438V22.444H67.7878V19.5Z" fill="#07F3E6"/>
<path d="M50.574 25.356H44.75V19.5H62.286V25.356H56.43V45.804H50.574V25.356Z" fill="#07F3E6"/>
<path d="M41.536 28.268H35.68V25.356H29.824V28.268H32.768V31.212H38.592V34.124H41.536V42.892H38.592V45.804H26.912V42.892H24V37.036H29.824V39.948H35.68V37.036H32.768V34.124H26.912V31.212H24V22.444H26.912V19.5H38.592V22.444H41.536V28.268Z" fill="#07F3E6"/>
<path d="M17.536 24.356H20.448V44.804H14.624V37.924H5.856V44.804H0V24.356H2.944V21.444H5.856V18.5H14.624V21.444H17.536V24.356ZM14.624 27.268H11.68V24.356H8.768V27.268H5.856V34.148H14.624V27.268Z" fill="#07F3E6"/>
<rect x="88" y="0.5" width="4" height="4" fill="#07F3E6"/>
<rect x="116" y="6.5" width="3" height="3" fill="#07F3E6"/>
<rect x="17" y="8.5" width="3" height="3" fill="#07F3E6"/>
<rect x="21" y="13.5" width="2" height="2" fill="#07F3E6"/>
<rect x="83" y="4.5" width="2" height="2" fill="#07F3E6"/>
</svg>
