<svg width="399" height="431" viewBox="0 0 399 431" fill="none" xmlns="http://www.w3.org/2000/svg">
<g opacity="0.77">
<path d="M15.7093 414.676H0V430.363H15.7093V414.676Z" fill="#ACACAC"/>
<path d="M230.58 292.034H214.871V307.72H230.58V292.034Z" fill="#ACACAC"/>
<path d="M77.0081 398.99H61.2988V414.676H77.0081V398.99Z" fill="#ACACAC"/>
<path d="M77.0081 353.038H61.2988V368.725H77.0081V353.038Z" fill="#ACACAC"/>
<path d="M122.955 353.038H107.245V368.725H122.955V353.038Z" fill="#ACACAC"/>
<path d="M122.955 216.141H107.245V231.827H122.955V216.141Z" fill="#ACACAC"/>
<path d="M123.547 153.777H107.838V169.463H123.547V153.777Z" fill="#ACACAC"/>
<path d="M170.083 231.389H154.373V247.076H170.083V231.389Z" fill="#ACACAC"/>
<path d="M246.289 231.389H230.58V247.076H246.289V231.389Z" fill="#ACACAC"/>
<path d="M139.256 138.09H123.547V153.777H139.256V138.09Z" fill="#ACACAC"/>
<path d="M278.369 138.659H262.659V154.346H278.369V138.659Z" fill="#ACACAC"/>
<path d="M294.078 154.346H278.369V170.032H294.078V154.346Z" fill="#ACACAC"/>
<path d="M278.369 200.017H262.659V215.703H278.369V200.017Z" fill="#ACACAC"/>
<path d="M294.078 215.703H278.369V231.39H294.078V215.703Z" fill="#ACACAC"/>
<path d="M309.787 170.032H294.078V246.259H309.787V170.032Z" fill="#ACACAC"/>
<path d="M184.719 123.538H169.009V153.777H184.719V123.538Z" fill="#ACACAC"/>
<path d="M230.737 123.538H215.028V153.777H230.737V123.538Z" fill="#ACACAC"/>
<path d="M170.083 31.373H154.373V47.0596H170.083V31.373Z" fill="#ACACAC"/>
<path d="M185.792 15.6865H170.083V31.373H185.792V15.6865Z" fill="#ACACAC"/>
<path d="M230.685 15.6865H214.975V31.373H230.685V15.6865Z" fill="#ACACAC"/>
<path d="M246.394 31.373H230.685V47.0596H246.394V31.373Z" fill="#ACACAC"/>
<path d="M262.659 47.0596H246.95V215.703H262.659V47.0596Z" fill="#ACACAC"/>
<path d="M214.975 0H185.792V15.6865H214.975V0Z" fill="#ACACAC"/>
<path d="M138.664 200.017H122.955V215.703H138.664V200.017Z" fill="#ACACAC"/>
<path d="M154.373 47.0596H138.664V215.703H154.373V47.0596Z" fill="#ACACAC"/>
<path d="M184.189 246.255H168.479V353.499H184.189V246.255Z" fill="#ACACAC"/>
<path d="M168.551 306.9H138.664V322.587H168.551V306.9Z" fill="#ACACAC"/>
<path d="M230.58 246.255H184.188V261.942H230.58V246.255Z" fill="#ACACAC"/>
<path d="M138.664 322.587H122.955V353.038H138.664V322.587Z" fill="#ACACAC"/>
<path d="M107.838 169.463H92.1284V246.255H107.838V169.463Z" fill="#ACACAC"/>
<path d="M230.58 261.942H214.871V322.587H230.58V261.942Z" fill="#ACACAC"/>
<path d="M107.242 337.352H77.0085V353.039H107.242V337.352Z" fill="#ACACAC"/>
<path d="M61.2989 368.725H45.5896V398.99H61.2989V368.725Z" fill="#ACACAC"/>
<path d="M91.9191 414.676H30.679V430.363H91.9191V414.676Z" fill="#ACACAC"/>
<path d="M246.289 292.034H230.58V307.72H246.289V292.034Z" fill="#ACACAC"/>
<path d="M261.998 307.72H246.289V337.812H261.998V307.72Z" fill="#ACACAC"/>
<path d="M153.608 383.94H137.898V399.627H153.608V383.94Z" fill="#ACACAC"/>
<path d="M260.637 368.725H229.382V384.411H260.637V368.725Z" fill="#ACACAC"/>
<path d="M399 415.313H306.322V431H399V415.313Z" fill="#ACACAC"/>
<path d="M260.637 384.019V415.229H276.346V384.019H260.637Z" fill="#ACACAC"/>
<path d="M277.708 337.812H261.999V353.499H277.708V337.812Z" fill="#ACACAC"/>
<path d="M337.659 399.627H321.949V415.313H337.659V399.627Z" fill="#ACACAC"/>
<path d="M337.659 338.453H321.949V354.139H337.659V338.453Z" fill="#ACACAC"/>
<path d="M353.368 354.139H337.658V399.623H353.368V354.139Z" fill="#ACACAC"/>
<path d="M321.946 322.767H276.343V338.453H321.946V322.767Z" fill="#ACACAC"/>
<path d="M138.664 399.627H122.955V415.313H138.664V399.627Z" fill="#ACACAC"/>
<path d="M184.719 153.777V169.463H215.001V153.777H184.719Z" fill="#ACACAC"/>
<path d="M154.373 215.706V231.392H246.95V215.706H154.373Z" fill="#ACACAC"/>
<path d="M154.373 77.4556V93.1421H246.95V77.4556H154.373Z" fill="#ACACAC"/>
<path d="M184.722 107.852V123.538H215.005V107.852H184.722Z" fill="#ACACAC"/>
</g>
</svg>
